<?xml version="1.0" standalone="no"?>
  <!-- Generator: Gravit.io -->
  <svg preserveAspectRatio="xMidYMid meet" xmlns="http://www.w3.org/2000/svg" xmlns:xlink="http://www.w3.org/1999/xlink" style="isolation:isolate" viewBox="0 0 322 277" width="322" height="277">
    <defs>
      <clipPath id="_clipPath_TmeYQ5OPydpfdkX7SaRQNbYlcHpdIdcd">
        <rect width="322" height="277" />
      </clipPath>
    </defs>
    <g clip-path="url(#_clipPath_TmeYQ5OPydpfdkX7SaRQNbYlcHpdIdcd)">
      <rect x="0" y="0" width="322" height="277" transform="matrix(1,0,0,1,0,0)" fill="rgb(235,255,241)" />
      <g id="Group">
        <path d="M 14.179 60.532 L 307.821 60.532 C 315.646 60.532 322 66.886 322 74.712 L 322 202.288 C 322 210.114 315.646 216.468 307.821 216.468 L 14.179 216.468 C 6.354 216.468 0 210.114 0 202.288 L 0 74.712 C 0 66.886 6.354 60.532 14.179 60.532 Z" style="stroke:none;fill:#C9DADF;stroke-miterlimit:10;" />
        <g id="Group">
          <path d="M 18.629 69.135 L 303.371 69.135 C 308.133 69.135 312 73.002 312 77.764 L 312 199.903 C 312 204.666 308.133 208.533 303.371 208.533 L 18.629 208.533 C 13.867 208.533 10 204.666 10 199.903 L 10 77.764 C 10 73.002 13.867 69.135 18.629 69.135 Z" style="stroke:none;fill:#6C9AA6;stroke-miterlimit:10;" />
          <path d=" M 148.509 111.959 L 148.509 111.959 L 148.509 111.959 Q 148.509 110.54 149.598 109.649 L 149.598 109.649 L 149.598 109.649 Q 150.687 108.758 152.205 108.758 L 152.205 108.758 L 152.205 108.758 Q 153.723 108.758 155.34 109.484 L 155.34 109.484 L 155.34 109.484 Q 155.505 109.088 156.116 107.19 L 156.116 107.19 L 156.116 107.19 Q 156.726 105.293 157.254 102.207 L 157.254 102.207 L 157.254 102.207 Q 157.782 99.122 157.782 97.835 L 157.782 97.835 L 157.782 97.835 Q 157.782 96.548 157.056 95.888 L 157.056 95.888 L 157.056 95.558 L 157.056 95.558 Q 158.97 94.568 161.544 94.568 L 161.544 94.568 L 162.93 94.7 L 162.93 94.7 Q 163.095 95.096 163.095 96.218 L 163.095 96.218 L 163.095 96.218 Q 163.095 99.914 161.775 104.022 L 161.775 104.022 L 161.775 104.022 Q 160.455 108.131 158.343 111.035 L 158.343 111.035 L 158.343 111.035 Q 160.719 112.289 162.27 112.289 L 162.27 112.289 L 162.27 112.289 Q 163.821 112.289 165.059 110.886 L 165.059 110.886 L 165.059 110.886 Q 166.296 109.484 166.989 107.405 L 166.989 107.405 L 166.989 107.405 Q 168.474 103.115 168.474 99.633 L 168.474 99.633 L 168.474 99.633 Q 168.474 96.152 166.626 94.469 L 166.626 94.469 L 166.626 94.469 Q 164.778 92.786 161.132 92.786 L 161.132 92.786 L 161.132 92.786 Q 157.485 92.786 154.4 94.865 L 154.4 94.865 L 154.4 94.865 Q 151.314 96.944 151.314 99.683 L 151.314 99.683 L 151.314 99.683 Q 151.314 100.838 151.875 101.399 L 151.875 101.399 L 151.875 101.399 Q 152.436 101.96 153.393 102.29 L 153.393 102.29 L 153.393 102.29 Q 153.36 103.544 152.667 104.831 L 152.667 104.831 L 152.667 104.831 Q 151.314 104.567 150.225 103.329 L 150.225 103.329 L 150.225 103.329 Q 149.136 102.092 149.136 99.947 L 149.136 99.947 L 149.136 99.947 Q 149.136 95.987 152.898 93.363 L 152.898 93.363 L 152.898 93.363 Q 156.66 90.74 162.303 90.74 L 162.303 90.74 L 162.303 90.74 Q 167.055 90.74 170.19 92.951 L 170.19 92.951 L 170.19 92.951 Q 171.774 94.073 172.649 96.036 L 172.649 96.036 L 172.649 96.036 Q 173.523 98 173.523 101.052 L 173.523 101.052 L 173.523 101.052 Q 173.523 104.105 172.17 107.388 L 172.17 107.388 L 172.17 107.388 Q 170.817 110.672 168.227 112.883 L 168.227 112.883 L 168.227 112.883 Q 165.636 115.094 162.65 115.094 L 162.65 115.094 L 162.65 115.094 Q 159.663 115.094 156.561 113.015 L 156.561 113.015 L 156.561 113.015 Q 154.35 115.061 152.073 115.061 L 152.073 115.061 L 152.073 115.061 Q 150.522 115.061 149.516 114.219 L 149.516 114.219 L 149.516 114.219 Q 148.509 113.378 148.509 111.959 Z  M 151.974 112.553 L 151.974 112.553 L 151.974 112.553 Q 153.195 112.553 154.152 111.431 L 154.152 111.431 L 154.152 111.431 Q 152.931 110.738 152.205 110.738 L 152.205 110.738 L 152.205 110.738 Q 150.687 110.738 150.687 111.629 L 150.687 111.629 L 150.687 111.629 Q 150.687 112.025 151.017 112.289 L 151.017 112.289 L 151.017 112.289 Q 151.347 112.553 151.974 112.553 Z  M 181.443 102.092 L 181.443 102.092 L 181.443 102.092 Q 181.443 103.478 180.552 106.86 L 180.552 106.86 L 180.552 106.86 Q 179.661 110.243 179.661 111.282 L 179.661 111.282 L 179.661 111.282 Q 179.661 112.322 179.959 112.322 L 179.959 112.322 L 179.959 112.322 Q 180.156 112.322 181.477 111.695 L 181.477 111.695 L 181.872 111.497 L 182.433 112.652 L 182.433 112.652 Q 182.136 112.916 181.641 113.312 L 181.641 113.312 L 181.641 113.312 Q 181.146 113.708 179.793 114.384 L 179.793 114.384 L 179.793 114.384 Q 178.441 115.061 177.285 115.061 L 177.285 115.061 L 177.285 115.061 Q 176.13 115.061 175.471 114.351 L 175.471 114.351 L 175.471 114.351 Q 174.81 113.642 174.81 112.437 L 174.81 112.437 L 174.81 112.437 Q 174.81 111.233 175.635 108.147 L 175.635 108.147 L 175.635 108.147 Q 176.46 105.062 176.46 104.138 L 176.46 104.138 L 176.46 104.138 Q 176.46 102.752 175.602 101.531 L 175.602 101.531 L 175.305 101.135 L 175.338 100.706 L 175.338 100.706 Q 177.087 100.211 181.014 100.211 L 181.014 100.211 L 181.014 100.211 Q 181.443 100.706 181.443 102.092 Z  M 177.681 96.597 L 177.681 96.597 L 177.681 96.597 Q 177.021 95.954 177.021 94.865 L 177.021 94.865 L 177.021 94.865 Q 177.021 93.776 177.929 92.951 L 177.929 92.951 L 177.929 92.951 Q 178.836 92.126 180.024 92.126 L 180.024 92.126 L 180.024 92.126 Q 181.212 92.126 181.872 92.786 L 181.872 92.786 L 181.872 92.786 Q 182.532 93.446 182.532 94.518 L 182.532 94.518 L 182.532 94.518 Q 182.532 95.591 181.592 96.416 L 181.592 96.416 L 181.592 96.416 Q 180.651 97.241 179.496 97.241 L 179.496 97.241 L 179.496 97.241 Q 178.341 97.241 177.681 96.597 Z  M 190.155 100.442 L 193.224 100.442 L 193.224 100.442 Q 193.158 101.168 192.63 102.356 L 192.63 102.356 L 192.63 102.356 Q 191.376 102.224 190.155 102.224 L 190.155 102.224 L 190.023 102.224 L 190.023 102.224 Q 189.33 110.375 188.736 114.269 L 188.736 114.269 L 188.736 114.269 Q 188.142 118.163 187.185 119.714 L 187.185 119.714 L 187.185 119.714 Q 185.997 119.681 184.727 119.4 L 184.727 119.4 L 184.727 119.4 Q 183.456 119.12 182.994 118.823 L 182.994 118.823 L 182.994 118.823 Q 183.786 116.381 184.595 111.464 L 184.595 111.464 L 184.595 111.464 Q 185.403 106.547 185.634 102.389 L 185.634 102.389 L 185.634 102.389 Q 184.71 102.455 183.588 102.62 L 183.588 102.62 L 183.588 102.62 Q 183.489 102.191 183.489 101.745 L 183.489 101.745 L 183.489 101.745 Q 183.489 101.3 183.621 100.442 L 183.621 100.442 L 185.733 100.442 L 185.733 100.442 Q 185.799 97.571 186.03 96.086 L 186.03 96.086 L 186.03 96.086 Q 186.426 93.446 187.862 91.944 L 187.862 91.944 L 187.862 91.944 Q 189.297 90.443 191.574 90.443 L 191.574 90.443 L 191.574 90.443 Q 193.026 90.443 193.868 91.086 L 193.868 91.086 L 193.868 91.086 Q 194.709 91.73 194.709 93.116 L 194.709 93.116 L 194.709 93.116 Q 194.709 94.502 193.455 96.696 L 193.455 96.696 L 193.455 96.696 Q 192.201 98.891 190.155 100.442 L 190.155 100.442 Z  M 190.221 98.363 L 190.221 98.363 Q 191.508 97.274 192.234 95.954 L 192.234 95.954 L 192.234 95.954 Q 192.96 94.634 192.96 93.561 L 192.96 93.561 L 192.96 93.561 Q 192.96 92.489 192.267 92.489 L 192.267 92.489 L 192.267 92.489 Q 190.816 92.489 190.419 95.822 L 190.419 95.822 L 190.419 95.822 Q 190.287 96.944 190.221 98.363 L 190.221 98.363 Z  M 199.824 100.442 L 202.894 100.442 L 202.894 100.442 Q 202.828 101.168 202.3 102.356 L 202.3 102.356 L 202.3 102.356 Q 201.045 102.224 199.824 102.224 L 199.824 102.224 L 199.693 102.224 L 199.693 102.224 Q 198.999 110.375 198.406 114.269 L 198.406 114.269 L 198.406 114.269 Q 197.812 118.163 196.854 119.714 L 196.854 119.714 L 196.854 119.714 Q 195.666 119.681 194.396 119.4 L 194.396 119.4 L 194.396 119.4 Q 193.126 119.12 192.663 118.823 L 192.663 118.823 L 192.663 118.823 Q 193.455 116.381 194.264 111.464 L 194.264 111.464 L 194.264 111.464 Q 195.073 106.547 195.304 102.389 L 195.304 102.389 L 195.304 102.389 Q 194.379 102.455 193.258 102.62 L 193.258 102.62 L 193.258 102.62 Q 193.158 102.191 193.158 101.745 L 193.158 101.745 L 193.158 101.745 Q 193.158 101.3 193.29 100.442 L 193.29 100.442 L 195.402 100.442 L 195.402 100.442 Q 195.468 97.571 195.699 96.086 L 195.699 96.086 L 195.699 96.086 Q 196.096 93.446 197.531 91.944 L 197.531 91.944 L 197.531 91.944 Q 198.967 90.443 201.243 90.443 L 201.243 90.443 L 201.243 90.443 Q 202.695 90.443 203.537 91.086 L 203.537 91.086 L 203.537 91.086 Q 204.378 91.73 204.378 93.116 L 204.378 93.116 L 204.378 93.116 Q 204.378 94.502 203.124 96.696 L 203.124 96.696 L 203.124 96.696 Q 201.871 98.891 199.824 100.442 L 199.824 100.442 Z  M 199.89 98.363 L 199.89 98.363 Q 201.177 97.274 201.903 95.954 L 201.903 95.954 L 201.903 95.954 Q 202.629 94.634 202.629 93.561 L 202.629 93.561 L 202.629 93.561 Q 202.629 92.489 201.937 92.489 L 201.937 92.489 L 201.937 92.489 Q 200.485 92.489 200.088 95.822 L 200.088 95.822 L 200.088 95.822 Q 199.956 96.944 199.89 98.363 L 199.89 98.363 Z  M 202.795 108.956 L 202.795 108.956 L 202.795 108.956 Q 202.795 104.831 205.286 102.438 L 205.286 102.438 L 205.286 102.438 Q 207.778 100.046 210.946 100.046 L 210.946 100.046 L 210.946 100.046 Q 212.892 100.046 214.147 101.003 L 214.147 101.003 L 214.147 101.003 Q 215.401 101.96 215.401 103.56 L 215.401 103.56 L 215.401 103.56 Q 215.401 105.161 214.592 106.25 L 214.592 106.25 L 214.592 106.25 Q 213.784 107.339 212.629 107.933 L 212.629 107.933 L 212.629 107.933 Q 210.285 109.088 208.338 109.385 L 208.338 109.385 L 207.547 109.484 L 207.547 109.484 Q 207.778 112.586 210.088 112.586 L 210.088 112.586 L 210.088 112.586 Q 210.88 112.586 211.771 112.19 L 211.771 112.19 L 211.771 112.19 Q 212.662 111.794 213.157 111.398 L 213.157 111.398 L 213.652 111.002 L 214.444 112.058 L 214.444 112.058 Q 214.18 112.421 213.388 113.015 L 213.388 113.015 L 213.388 113.015 Q 212.596 113.609 211.903 114.005 L 211.903 114.005 L 211.903 114.005 Q 209.989 115.061 207.712 115.061 L 207.712 115.061 L 207.712 115.061 Q 205.435 115.061 204.115 113.444 L 204.115 113.444 L 204.115 113.444 Q 202.795 111.827 202.795 108.956 Z  M 207.514 107.867 L 207.514 107.867 Q 209.197 107.57 210.187 106.448 L 210.187 106.448 L 210.187 106.448 Q 211.177 105.326 211.177 103.544 L 211.177 103.544 L 211.177 103.544 Q 211.177 101.762 210.121 101.762 L 210.121 101.762 L 210.121 101.762 Q 208.867 101.762 208.19 103.89 L 208.19 103.89 L 208.19 103.89 Q 207.514 106.019 207.514 107.867 L 207.514 107.867 Z  M 216.754 114.764 L 216.754 114.764 L 216.523 114.764 L 216.523 114.764 Q 216.457 114.5 216.457 113.559 L 216.457 113.559 L 216.457 113.559 Q 216.457 112.619 217.348 108.494 L 217.348 108.494 L 217.348 108.494 Q 218.239 104.369 218.239 103.775 L 218.239 103.775 L 218.239 103.775 Q 218.239 102.752 217.315 101.531 L 217.315 101.531 L 217.017 101.135 L 217.051 100.706 L 217.051 100.706 Q 218.833 100.211 222.76 100.211 L 222.76 100.211 L 222.76 100.211 Q 223.156 101.069 223.156 102.62 L 223.156 102.62 L 223.156 102.62 Q 223.519 102.026 224.674 101.036 L 224.674 101.036 L 224.674 101.036 Q 225.829 100.046 227.05 100.046 L 227.05 100.046 L 227.05 100.046 Q 228.832 100.046 228.832 103.148 L 228.832 103.148 L 228.832 103.148 Q 228.666 103.346 228.386 103.659 L 228.386 103.659 L 228.386 103.659 Q 228.106 103.973 227.264 104.534 L 227.264 104.534 L 227.264 104.534 Q 226.422 105.095 225.631 105.227 L 225.631 105.227 L 225.631 105.227 Q 225.598 105.227 225.07 104.336 L 225.07 104.336 L 225.07 104.336 Q 224.541 103.445 224.278 103.445 L 224.278 103.445 L 224.278 103.445 Q 223.453 103.742 222.826 104.435 L 222.826 104.435 L 222.826 104.435 Q 221.308 111.266 221.308 113.279 L 221.308 113.279 L 221.308 113.279 Q 221.308 114.005 221.341 114.302 L 221.341 114.302 L 221.341 114.302 Q 220.186 114.764 216.754 114.764 Z  M 227.974 108.956 L 227.974 108.956 L 227.974 108.956 Q 227.974 104.831 230.465 102.438 L 230.465 102.438 L 230.465 102.438 Q 232.957 100.046 236.124 100.046 L 236.124 100.046 L 236.124 100.046 Q 238.072 100.046 239.326 101.003 L 239.326 101.003 L 239.326 101.003 Q 240.58 101.96 240.58 103.56 L 240.58 103.56 L 240.58 103.56 Q 240.58 105.161 239.771 106.25 L 239.771 106.25 L 239.771 106.25 Q 238.963 107.339 237.808 107.933 L 237.808 107.933 L 237.808 107.933 Q 235.465 109.088 233.517 109.385 L 233.517 109.385 L 232.726 109.484 L 232.726 109.484 Q 232.957 112.586 235.267 112.586 L 235.267 112.586 L 235.267 112.586 Q 236.059 112.586 236.95 112.19 L 236.95 112.19 L 236.95 112.19 Q 237.841 111.794 238.336 111.398 L 238.336 111.398 L 238.831 111.002 L 239.623 112.058 L 239.623 112.058 Q 239.359 112.421 238.567 113.015 L 238.567 113.015 L 238.567 113.015 Q 237.775 113.609 237.082 114.005 L 237.082 114.005 L 237.082 114.005 Q 235.168 115.061 232.891 115.061 L 232.891 115.061 L 232.891 115.061 Q 230.614 115.061 229.294 113.444 L 229.294 113.444 L 229.294 113.444 Q 227.974 111.827 227.974 108.956 Z  M 232.693 107.867 L 232.693 107.867 Q 234.376 107.57 235.366 106.448 L 235.366 106.448 L 235.366 106.448 Q 236.356 105.326 236.356 103.544 L 236.356 103.544 L 236.356 103.544 Q 236.356 101.762 235.3 101.762 L 235.3 101.762 L 235.3 101.762 Q 234.046 101.762 233.369 103.89 L 233.369 103.89 L 233.369 103.89 Q 232.693 106.019 232.693 107.867 L 232.693 107.867 Z  M 242.164 114.764 L 242.164 114.764 L 241.537 114.764 L 241.537 114.764 Q 241.537 113.213 242.477 108.824 L 242.477 108.824 L 242.477 108.824 Q 243.418 104.435 243.418 103.841 L 243.418 103.841 L 243.418 103.841 Q 243.418 102.752 242.494 101.531 L 242.494 101.531 L 242.197 101.135 L 242.23 100.706 L 242.23 100.706 Q 244.012 100.211 247.939 100.211 L 247.939 100.211 L 247.939 100.211 Q 248.368 100.772 248.401 102.257 L 248.401 102.257 L 248.401 102.257 Q 251.272 100.046 253.252 100.046 L 253.252 100.046 L 253.252 100.046 Q 254.44 100.046 255.149 100.871 L 255.149 100.871 L 255.149 100.871 Q 255.859 101.696 255.859 102.933 L 255.859 102.933 L 255.859 102.933 Q 255.859 104.171 255.1 107.207 L 255.1 107.207 L 255.1 107.207 Q 254.341 110.243 254.341 111.282 L 254.341 111.282 L 254.341 111.282 Q 254.341 112.322 254.605 112.322 L 254.605 112.322 L 254.605 112.322 Q 254.803 112.322 255.991 111.695 L 255.991 111.695 L 256.386 111.497 L 256.981 112.652 L 256.981 112.652 Q 256.683 112.916 256.188 113.312 L 256.188 113.312 L 256.188 113.312 Q 255.694 113.708 254.357 114.384 L 254.357 114.384 L 254.357 114.384 Q 253.021 115.061 251.965 115.061 L 251.965 115.061 L 251.965 115.061 Q 249.556 115.061 249.556 112.322 L 249.556 112.322 L 249.556 112.322 Q 249.556 111.167 250.298 108.065 L 250.298 108.065 L 250.298 108.065 Q 251.041 104.963 251.041 104.072 L 251.041 104.072 L 251.041 104.072 Q 251.041 103.181 250.48 103.181 L 250.48 103.181 L 250.48 103.181 Q 249.523 103.181 248.137 104.006 L 248.137 104.006 L 248.137 104.006 Q 248.038 104.567 247.477 106.976 L 247.477 106.976 L 247.477 106.976 Q 246.322 112.157 246.322 114.302 L 246.322 114.302 L 246.322 114.302 Q 245.167 114.764 242.164 114.764 Z  M 265.627 101.696 L 265.627 101.696 L 265.627 101.696 Q 264.307 101.696 263.515 103.89 L 263.515 103.89 L 263.515 103.89 Q 262.722 106.085 262.722 108.593 L 262.722 108.593 L 262.722 108.593 Q 262.722 112.553 265.165 112.553 L 265.165 112.553 L 265.165 112.553 Q 265.957 112.553 266.847 112.173 L 266.847 112.173 L 266.847 112.173 Q 267.739 111.794 268.267 111.431 L 268.267 111.431 L 268.762 111.035 L 269.52 112.058 L 269.52 112.058 Q 269.257 112.421 268.465 113.015 L 268.465 113.015 L 268.465 113.015 Q 267.673 113.609 266.98 114.005 L 266.98 114.005 L 266.98 114.005 Q 266.287 114.401 265.198 114.731 L 265.198 114.731 L 265.198 114.731 Q 264.109 115.061 263.053 115.061 L 263.053 115.061 L 263.053 115.061 Q 260.479 115.061 259.192 113.378 L 259.192 113.378 L 259.192 113.378 Q 257.904 111.695 257.904 108.857 L 257.904 108.857 L 257.904 108.857 Q 257.904 104.93 260.066 102.488 L 260.066 102.488 L 260.066 102.488 Q 262.228 100.046 265.627 100.046 L 265.627 100.046 L 265.627 100.046 Q 267.838 100.046 269.141 101.052 L 269.141 101.052 L 269.141 101.052 Q 270.445 102.059 270.445 103.527 L 270.445 103.527 L 270.445 103.527 Q 270.445 104.996 269.52 106.052 L 269.52 106.052 L 269.52 106.052 Q 268.696 106.052 267.607 105.689 L 267.607 105.689 L 267.607 105.689 Q 266.518 105.326 265.957 104.798 L 265.957 104.798 L 266.452 101.894 L 266.452 101.894 Q 266.155 101.696 265.627 101.696 Z  M 271.006 108.956 L 271.006 108.956 L 271.006 108.956 Q 271.006 104.831 273.497 102.438 L 273.497 102.438 L 273.497 102.438 Q 275.989 100.046 279.157 100.046 L 279.157 100.046 L 279.157 100.046 Q 281.104 100.046 282.358 101.003 L 282.358 101.003 L 282.358 101.003 Q 283.612 101.96 283.612 103.56 L 283.612 103.56 L 283.612 103.56 Q 283.612 105.161 282.803 106.25 L 282.803 106.25 L 282.803 106.25 Q 281.995 107.339 280.84 107.933 L 280.84 107.933 L 280.84 107.933 Q 278.496 109.088 276.549 109.385 L 276.549 109.385 L 275.758 109.484 L 275.758 109.484 Q 275.989 112.586 278.299 112.586 L 278.299 112.586 L 278.299 112.586 Q 279.091 112.586 279.982 112.19 L 279.982 112.19 L 279.982 112.19 Q 280.873 111.794 281.368 111.398 L 281.368 111.398 L 281.863 111.002 L 282.655 112.058 L 282.655 112.058 Q 282.391 112.421 281.599 113.015 L 281.599 113.015 L 281.599 113.015 Q 280.807 113.609 280.114 114.005 L 280.114 114.005 L 280.114 114.005 Q 278.2 115.061 275.923 115.061 L 275.923 115.061 L 275.923 115.061 Q 273.645 115.061 272.326 113.444 L 272.326 113.444 L 272.326 113.444 Q 271.006 111.827 271.006 108.956 Z  M 275.725 107.867 L 275.725 107.867 Q 277.408 107.57 278.398 106.448 L 278.398 106.448 L 278.398 106.448 Q 279.388 105.326 279.388 103.544 L 279.388 103.544 L 279.388 103.544 Q 279.388 101.762 278.332 101.762 L 278.332 101.762 L 278.332 101.762 Q 277.078 101.762 276.401 103.89 L 276.401 103.89 L 276.401 103.89 Q 275.725 106.019 275.725 107.867 L 275.725 107.867 Z  M 286.846 115.061 L 286.846 115.061 L 286.846 115.061 Q 285.691 115.061 285.064 114.368 L 285.064 114.368 L 285.064 114.368 Q 284.437 113.675 284.437 112.52 L 284.437 112.52 L 284.437 112.52 Q 284.437 111.365 285.295 110.523 L 285.295 110.523 L 285.295 110.523 Q 286.153 109.682 287.324 109.682 L 287.324 109.682 L 287.324 109.682 Q 288.496 109.682 289.123 110.358 L 289.123 110.358 L 289.123 110.358 Q 289.75 111.035 289.75 112.173 L 289.75 112.173 L 289.75 112.173 Q 289.75 113.312 288.875 114.186 L 288.875 114.186 L 288.875 114.186 Q 288.001 115.061 286.846 115.061 Z  M 292.819 92.753 L 292.819 92.753 L 292.819 92.753 Q 292.819 96.02 290.674 103.016 L 290.674 103.016 L 290.674 103.016 Q 290.509 103.577 290.063 105.045 L 290.063 105.045 L 290.063 105.045 Q 289.618 106.514 289.386 107.306 L 289.386 107.306 L 289.386 107.306 Q 288.496 107.603 287.819 107.603 L 287.819 107.603 L 287.819 107.603 Q 287.143 107.603 286.615 107.537 L 286.615 107.537 L 286.615 107.537 Q 287.803 100.376 287.803 94.898 L 287.803 94.898 L 287.605 92.126 L 287.605 92.126 Q 290.41 91.235 292.621 91.235 L 292.621 91.235 L 292.621 91.235 Q 292.819 91.532 292.819 92.753 Z  M 119.502 116.249 L 119.502 116.249 L 119.502 116.249 Q 117.522 116.249 116.219 114.945 L 116.219 114.945 L 116.219 114.945 Q 114.915 113.642 114.915 111.909 L 114.915 111.909 L 114.915 111.909 Q 114.915 110.177 115.74 108.675 L 115.74 108.675 L 115.74 108.675 Q 116.565 107.174 118.1 105.887 L 118.1 105.887 L 118.1 105.887 Q 119.634 104.6 122.109 103.758 L 122.109 103.758 L 122.109 103.758 Q 124.584 102.917 127.587 102.818 L 127.587 102.818 L 127.587 102.818 Q 129.336 98.495 130.689 93.149 L 130.689 93.149 L 130.689 93.149 Q 130.722 92.951 130.722 92.637 L 130.722 92.637 L 130.722 92.637 Q 130.722 92.324 130.392 92.093 L 130.392 92.093 L 130.392 91.763 L 130.392 91.763 Q 133.23 91.235 135.573 91.235 L 135.573 91.235 L 137.553 91.367 L 137.553 91.367 Q 138.411 92.885 138.51 95.574 L 138.51 95.574 L 138.51 95.574 Q 138.609 98.264 138.642 104.897 L 138.642 104.897 L 138.642 104.897 Q 142.206 106.448 144.747 108.824 L 144.747 108.824 L 144.747 108.824 Q 144.615 109.253 144.236 109.665 L 144.236 109.665 L 144.236 109.665 Q 143.856 110.078 143.526 110.276 L 143.526 110.276 L 143.196 110.474 L 143.196 110.474 Q 141.249 108.56 138.675 107.207 L 138.675 107.207 L 138.675 107.207 Q 138.741 109.088 139.038 110.375 L 139.038 110.375 L 139.038 110.375 Q 139.5 112.487 140.127 112.487 L 140.127 112.487 L 140.127 112.487 Q 140.49 112.487 140.985 112.322 L 140.985 112.322 L 141.48 113.609 L 141.48 113.609 Q 139.203 115.061 137.124 115.061 L 137.124 115.061 L 137.124 115.061 Q 133.692 115.061 133.692 109.88 L 133.692 109.88 L 133.692 105.557 L 133.692 105.557 Q 131.382 104.996 129.501 104.864 L 129.501 104.864 L 129.501 104.864 Q 125.211 116.249 119.502 116.249 Z  M 126.762 104.831 L 126.762 104.831 Q 123.033 105.128 120.558 107.438 L 120.558 107.438 L 120.558 107.438 Q 118.083 109.748 118.083 111.761 L 118.083 111.761 L 118.083 111.761 Q 118.083 113.774 119.634 113.774 L 119.634 113.774 L 119.634 113.774 Q 122.802 113.774 126.762 104.831 L 126.762 104.831 Z  M 133.329 93.875 L 133.329 93.875 Q 133.263 93.842 133.065 93.842 L 133.065 93.842 L 133.065 93.842 Q 132.867 93.842 132.801 93.875 L 132.801 93.875 L 132.801 93.875 Q 132.504 96.383 130.227 102.884 L 130.227 102.884 L 130.227 102.884 Q 131.844 102.983 133.692 103.346 L 133.692 103.346 L 133.692 103.346 Q 133.692 95.228 133.329 93.875 L 133.329 93.875 Z  M 61.092 112.322 L 61.587 113.576 L 61.587 113.576 Q 59.442 115.061 57.561 115.061 L 57.561 115.061 L 57.561 115.061 Q 55.68 115.061 54.905 114.17 L 54.905 114.17 L 54.905 114.17 Q 54.129 113.279 54.129 111.827 L 54.129 111.827 L 54.129 111.827 Q 54.129 110.375 55.68 104.352 L 55.68 104.352 L 55.68 104.352 Q 57.231 98.33 57.231 96.878 L 57.231 96.878 L 57.231 96.878 Q 57.231 95.063 55.944 95.063 L 55.944 95.063 L 55.944 95.063 Q 54.657 95.063 52.446 96.977 L 52.446 96.977 L 52.446 96.977 Q 52.38 97.241 51.357 101.003 L 51.357 101.003 L 51.357 101.003 Q 49.113 109.253 48.948 114.302 L 48.948 114.302 L 48.948 114.302 Q 47.661 114.797 44.295 114.797 L 44.295 114.797 L 43.866 114.797 L 43.866 114.797 Q 43.866 112.751 45.615 105.359 L 45.615 105.359 L 45.615 105.359 Q 47.364 97.967 47.364 96.746 L 47.364 96.746 L 47.364 96.746 Q 47.364 95.063 46.011 95.063 L 46.011 95.063 L 46.011 95.063 Q 44.559 95.063 42.216 97.109 L 42.216 97.109 L 42.216 97.109 Q 42.216 103.841 39.84 109.715 L 39.84 109.715 L 39.84 109.715 Q 38.718 112.487 36.92 114.219 L 36.92 114.219 L 36.92 114.219 Q 35.121 115.952 33.224 115.952 L 33.224 115.952 L 33.224 115.952 Q 31.326 115.952 30.254 114.813 L 30.254 114.813 L 30.254 114.813 Q 29.181 113.675 29.181 111.645 L 29.181 111.645 L 29.181 111.645 Q 29.181 109.616 30.633 106.86 L 30.633 106.86 L 30.633 106.86 Q 32.085 104.105 33.719 102.141 L 33.719 102.141 L 33.719 102.141 Q 35.352 100.178 37.068 98.594 L 37.068 98.594 L 37.068 98.594 Q 37.068 95.558 36.342 94.931 L 36.342 94.931 L 36.342 94.931 Q 35.979 94.634 35.303 94.634 L 35.303 94.634 L 35.303 94.634 Q 34.626 94.634 33.323 95.228 L 33.323 95.228 L 33.323 95.228 Q 32.019 95.822 30.831 96.845 L 30.831 96.845 L 30.006 95.69 L 30.006 95.69 Q 31.161 94.271 33.471 92.951 L 33.471 92.951 L 33.471 92.951 Q 35.781 91.631 37.58 91.631 L 37.58 91.631 L 37.58 91.631 Q 39.378 91.631 40.418 92.571 L 40.418 92.571 L 40.418 92.571 Q 41.457 93.512 41.886 94.964 L 41.886 94.964 L 41.886 94.964 Q 46.44 91.235 49.08 91.235 L 49.08 91.235 L 49.08 91.235 Q 50.4 91.235 51.341 92.06 L 51.341 92.06 L 51.341 92.06 Q 52.281 92.885 52.545 94.535 L 52.545 94.535 L 52.545 94.535 Q 56.439 91.235 59.046 91.235 L 59.046 91.235 L 59.046 91.235 Q 60.498 91.235 61.505 92.39 L 61.505 92.39 L 61.505 92.39 Q 62.511 93.545 62.511 95.508 L 62.511 95.508 L 62.511 95.508 Q 62.511 97.472 60.894 103.412 L 60.894 103.412 L 60.894 103.412 Q 59.277 109.352 59.277 110.919 L 59.277 110.919 L 59.277 110.919 Q 59.277 112.487 60.267 112.487 L 60.267 112.487 L 60.267 112.487 Q 60.597 112.487 61.092 112.322 L 61.092 112.322 Z  M 32.58 112.817 L 32.58 112.817 L 32.58 112.817 Q 33.9 112.817 35.204 109.533 L 35.204 109.533 L 35.204 109.533 Q 36.507 106.25 36.969 101.3 L 36.969 101.3 L 36.969 101.3 Q 34.857 103.478 33.174 106.464 L 33.174 106.464 L 33.174 106.464 Q 31.491 109.451 31.491 111.134 L 31.491 111.134 L 31.491 111.134 Q 31.491 112.817 32.58 112.817 Z  M 74.325 101.003 L 74.325 101.003 L 74.325 101.003 Q 74.391 100.937 74.688 100.145 L 74.688 100.145 L 74.688 100.145 Q 76.239 100.145 78.846 101.069 L 78.846 101.069 L 78.846 101.069 Q 78.021 103.808 77.526 106.794 L 77.526 106.794 L 77.526 106.794 Q 77.031 109.781 77.031 111.051 L 77.031 111.051 L 77.031 111.051 Q 77.031 112.322 77.295 112.322 L 77.295 112.322 L 77.295 112.322 Q 77.493 112.322 78.747 111.695 L 78.747 111.695 L 79.143 111.497 L 79.737 112.652 L 79.737 112.652 Q 79.44 112.916 78.962 113.312 L 78.962 113.312 L 78.962 113.312 Q 78.483 113.708 77.163 114.384 L 77.163 114.384 L 77.163 114.384 Q 75.843 115.061 74.787 115.061 L 74.787 115.061 L 74.787 115.061 Q 72.741 115.061 72.411 113.213 L 72.411 113.213 L 72.411 113.213 Q 70.299 115.061 68.6 115.061 L 68.6 115.061 L 68.6 115.061 Q 66.9 115.061 65.729 113.741 L 65.729 113.741 L 65.729 113.741 Q 64.557 112.421 64.557 109.583 L 64.557 109.583 L 64.557 109.583 Q 64.557 105.161 66.372 102.603 L 66.372 102.603 L 66.372 102.603 Q 68.187 100.046 70.761 100.046 L 70.761 100.046 L 70.761 100.046 Q 72.609 100.046 74.325 101.003 Z  M 70.563 112.256 L 70.563 112.256 L 70.563 112.256 Q 71.355 112.256 72.345 111.629 L 72.345 111.629 L 72.345 111.629 Q 72.576 106.976 73.896 102.422 L 73.896 102.422 L 73.896 102.422 Q 72.906 101.993 72.213 101.993 L 72.213 101.993 L 72.213 101.993 Q 71.025 101.993 70.184 104.319 L 70.184 104.319 L 70.184 104.319 Q 69.342 106.646 69.342 109.451 L 69.342 109.451 L 69.342 109.451 Q 69.342 112.256 70.563 112.256 Z  M 84.06 92.885 L 84.06 92.885 L 84.06 92.885 Q 84.06 91.796 83.862 91.334 L 83.862 91.334 L 83.862 91.334 Q 86.436 90.443 88.713 90.443 L 88.713 90.443 L 88.713 90.443 Q 89.01 90.74 89.01 91.961 L 89.01 91.961 L 89.01 91.961 Q 89.01 94.7 87.195 102.455 L 87.195 102.455 L 87.195 102.455 Q 90.132 100.046 93.003 100.046 L 93.003 100.046 L 93.003 100.046 Q 94.29 100.046 95.181 100.838 L 95.181 100.838 L 95.181 100.838 Q 96.072 101.63 96.072 103.148 L 96.072 103.148 L 96.072 103.148 Q 96.072 105.986 91.419 107.273 L 91.419 107.273 L 91.419 107.273 Q 92.508 110.705 93.333 111.926 L 93.333 111.926 L 93.333 111.926 Q 93.696 112.454 93.861 112.454 L 93.861 112.454 L 93.861 112.454 Q 94.224 112.454 95.379 111.893 L 95.379 111.893 L 95.742 111.728 L 96.27 112.85 L 96.27 112.85 Q 95.478 113.576 94.076 114.318 L 94.076 114.318 L 94.076 114.318 Q 92.673 115.061 91.518 115.061 L 91.518 115.061 L 91.518 115.061 Q 88.944 115.061 87.921 110.375 L 87.921 110.375 L 87.921 110.375 Q 87.459 108.362 87.36 106.613 L 87.36 106.613 L 87.36 106.613 Q 89.472 106.118 90.512 105.408 L 90.512 105.408 L 90.512 105.408 Q 91.551 104.699 91.551 103.593 L 91.551 103.593 L 91.551 103.593 Q 91.551 102.488 90.429 102.488 L 90.429 102.488 L 90.429 102.488 Q 89.307 102.488 86.667 104.732 L 86.667 104.732 L 86.667 104.732 Q 85.017 111.695 85.017 114.269 L 85.017 114.269 L 85.017 114.269 Q 83.202 114.797 80.298 114.797 L 80.298 114.797 L 80.298 114.797 Q 80.265 114.236 80.265 113.807 L 80.265 113.807 L 80.265 113.807 Q 80.265 112.388 82.163 104.105 L 82.163 104.105 L 82.163 104.105 Q 84.06 95.822 84.06 92.885 Z  M 96.963 108.956 L 96.963 108.956 L 96.963 108.956 Q 96.963 104.831 99.455 102.438 L 99.455 102.438 L 99.455 102.438 Q 101.946 100.046 105.114 100.046 L 105.114 100.046 L 105.114 100.046 Q 107.061 100.046 108.315 101.003 L 108.315 101.003 L 108.315 101.003 Q 109.569 101.96 109.569 103.56 L 109.569 103.56 L 109.569 103.56 Q 109.569 105.161 108.761 106.25 L 108.761 106.25 L 108.761 106.25 Q 107.952 107.339 106.797 107.933 L 106.797 107.933 L 106.797 107.933 Q 104.454 109.088 102.507 109.385 L 102.507 109.385 L 101.715 109.484 L 101.715 109.484 Q 101.946 112.586 104.256 112.586 L 104.256 112.586 L 104.256 112.586 Q 105.048 112.586 105.939 112.19 L 105.939 112.19 L 105.939 112.19 Q 106.83 111.794 107.325 111.398 L 107.325 111.398 L 107.82 111.002 L 108.612 112.058 L 108.612 112.058 Q 108.348 112.421 107.556 113.015 L 107.556 113.015 L 107.556 113.015 Q 106.764 113.609 106.071 114.005 L 106.071 114.005 L 106.071 114.005 Q 104.157 115.061 101.88 115.061 L 101.88 115.061 L 101.88 115.061 Q 99.603 115.061 98.283 113.444 L 98.283 113.444 L 98.283 113.444 Q 96.963 111.827 96.963 108.956 Z  M 101.682 107.867 L 101.682 107.867 Q 103.365 107.57 104.355 106.448 L 104.355 106.448 L 104.355 106.448 Q 105.345 105.326 105.345 103.544 L 105.345 103.544 L 105.345 103.544 Q 105.345 101.762 104.289 101.762 L 104.289 101.762 L 104.289 101.762 Q 103.035 101.762 102.359 103.89 L 102.359 103.89 L 102.359 103.89 Q 101.682 106.019 101.682 107.867 L 101.682 107.867 Z " fill-rule="evenodd" fill="rgb(255,255,255)" />
          <path d=" M 33.16 193.876 L 33.16 193.876 Q 31.304 193.876 30.248 192.852 L 30.248 192.852 L 30.248 192.852 Q 29.192 191.828 29.192 189.972 L 29.192 189.972 L 29.192 152.66 L 29.192 152.66 Q 29.192 150.804 30.248 149.78 L 30.248 149.78 L 30.248 149.78 Q 31.304 148.756 33.16 148.756 L 33.16 148.756 L 45.832 148.756 L 45.832 148.756 Q 56.904 148.756 63.016 154.676 L 63.016 154.676 L 63.016 154.676 Q 69.128 160.596 69.128 171.284 L 69.128 171.284 L 69.128 171.284 Q 69.128 182.036 63.016 187.956 L 63.016 187.956 L 63.016 187.956 Q 56.904 193.876 45.832 193.876 L 45.832 193.876 L 33.16 193.876 Z  M 37.448 187.156 L 45.32 187.156 L 45.32 187.156 Q 60.872 187.156 60.872 171.284 L 60.872 171.284 L 60.872 171.284 Q 60.872 155.476 45.32 155.476 L 45.32 155.476 L 37.448 155.476 L 37.448 187.156 Z  M 97.544 194.452 L 97.544 194.452 Q 90.952 194.452 86.12 191.636 L 86.12 191.636 L 86.12 191.636 Q 81.288 188.82 78.664 183.572 L 78.664 183.572 L 78.664 183.572 Q 76.04 178.324 76.04 171.284 L 76.04 171.284 L 76.04 171.284 Q 76.04 164.244 78.632 159.028 L 78.632 159.028 L 78.632 159.028 Q 81.224 153.812 86.088 150.996 L 86.088 150.996 L 86.088 150.996 Q 90.952 148.18 97.544 148.18 L 97.544 148.18 L 97.544 148.18 Q 104.136 148.18 108.968 150.996 L 108.968 150.996 L 108.968 150.996 Q 113.8 153.812 116.392 159.028 L 116.392 159.028 L 116.392 159.028 Q 118.984 164.244 118.984 171.284 L 118.984 171.284 L 118.984 171.284 Q 118.984 178.324 116.36 183.572 L 116.36 183.572 L 116.36 183.572 Q 113.736 188.82 108.904 191.636 L 108.904 191.636 L 108.904 191.636 Q 104.072 194.452 97.544 194.452 L 97.544 194.452 Z  M 97.544 187.86 L 97.544 187.86 Q 103.752 187.86 107.24 183.572 L 107.24 183.572 L 107.24 183.572 Q 110.728 179.284 110.728 171.284 L 110.728 171.284 L 110.728 171.284 Q 110.728 163.284 107.24 159.028 L 107.24 159.028 L 107.24 159.028 Q 103.752 154.772 97.544 154.772 L 97.544 154.772 L 97.544 154.772 Q 91.272 154.772 87.784 159.028 L 87.784 159.028 L 87.784 159.028 Q 84.296 163.284 84.296 171.284 L 84.296 171.284 L 84.296 171.284 Q 84.296 179.284 87.784 183.572 L 87.784 183.572 L 87.784 183.572 Q 91.272 187.86 97.544 187.86 L 97.544 187.86 Z  M 161.48 148.436 L 161.48 148.436 Q 163.272 148.436 164.328 149.556 L 164.328 149.556 L 164.328 149.556 Q 165.384 150.676 165.384 152.532 L 165.384 152.532 L 165.384 190.1 L 165.384 190.1 Q 165.384 191.956 164.296 193.108 L 164.296 193.108 L 164.296 193.108 Q 163.208 194.26 161.48 194.26 L 161.48 194.26 L 161.48 194.26 Q 159.432 194.26 158.344 192.788 L 158.344 192.788 L 134.984 162.388 L 134.984 190.1 L 134.984 190.1 Q 134.984 191.956 133.96 193.108 L 133.96 193.108 L 133.96 193.108 Q 132.936 194.26 131.144 194.26 L 131.144 194.26 L 131.144 194.26 Q 129.352 194.26 128.328 193.108 L 128.328 193.108 L 128.328 193.108 Q 127.304 191.956 127.304 190.1 L 127.304 190.1 L 127.304 152.532 L 127.304 152.532 Q 127.304 150.676 128.392 149.556 L 128.392 149.556 L 128.392 149.556 Q 129.48 148.436 131.272 148.436 L 131.272 148.436 L 131.272 148.436 Q 133.256 148.436 134.344 149.908 L 134.344 149.908 L 157.64 180.18 L 157.64 152.532 L 157.64 152.532 Q 157.64 150.676 158.696 149.556 L 158.696 149.556 L 158.696 149.556 Q 159.752 148.436 161.48 148.436 L 161.48 148.436 Z  M 216.008 188.948 L 216.008 188.948 Q 216.392 189.78 216.392 190.612 L 216.392 190.612 L 216.392 190.612 Q 216.392 192.084 215.208 193.108 L 215.208 193.108 L 215.208 193.108 Q 214.024 194.132 212.488 194.132 L 212.488 194.132 L 212.488 194.132 Q 211.464 194.132 210.568 193.588 L 210.568 193.588 L 210.568 193.588 Q 209.672 193.044 209.16 191.892 L 209.16 191.892 L 205.32 183.316 L 182.792 183.316 L 178.952 191.892 L 178.952 191.892 Q 178.44 193.044 177.544 193.588 L 177.544 193.588 L 177.544 193.588 Q 176.648 194.132 175.56 194.132 L 175.56 194.132 L 175.56 194.132 Q 174.088 194.132 172.872 193.108 L 172.872 193.108 L 172.872 193.108 Q 171.656 192.084 171.656 190.612 L 171.656 190.612 L 171.656 190.612 Q 171.656 189.78 172.04 188.948 L 172.04 188.948 L 189.704 150.996 L 189.704 150.996 Q 190.28 149.716 191.464 149.044 L 191.464 149.044 L 191.464 149.044 Q 192.648 148.372 193.992 148.372 L 193.992 148.372 L 193.992 148.372 Q 195.336 148.372 196.52 149.044 L 196.52 149.044 L 196.52 149.044 Q 197.704 149.716 198.28 150.996 L 198.28 150.996 L 216.008 188.948 Z  M 194.056 157.908 L 185.608 176.916 L 202.504 176.916 L 194.056 157.908 Z  M 237.384 194.196 L 237.384 194.196 Q 235.464 194.196 234.344 193.076 L 234.344 193.076 L 234.344 193.076 Q 233.224 191.956 233.224 190.1 L 233.224 190.1 L 233.224 155.54 L 221.576 155.54 L 221.576 155.54 Q 217.736 155.54 217.736 152.148 L 217.736 152.148 L 217.736 152.148 Q 217.736 148.756 221.576 148.756 L 221.576 148.756 L 253.128 148.756 L 253.128 148.756 Q 256.968 148.756 256.968 152.148 L 256.968 152.148 L 256.968 152.148 Q 256.968 155.54 253.128 155.54 L 253.128 155.54 L 241.48 155.54 L 241.48 190.1 L 241.48 190.1 Q 241.48 191.956 240.36 193.076 L 240.36 193.076 L 240.36 193.076 Q 239.24 194.196 237.384 194.196 L 237.384 194.196 Z  M 265.8 193.876 L 265.8 193.876 Q 263.944 193.876 262.888 192.852 L 262.888 192.852 L 262.888 192.852 Q 261.832 191.828 261.832 189.972 L 261.832 189.972 L 261.832 152.66 L 261.832 152.66 Q 261.832 150.804 262.888 149.78 L 262.888 149.78 L 262.888 149.78 Q 263.944 148.756 265.8 148.756 L 265.8 148.756 L 288.904 148.756 L 288.904 148.756 Q 290.76 148.756 291.784 149.588 L 291.784 149.588 L 291.784 149.588 Q 292.808 150.42 292.808 151.956 L 292.808 151.956 L 292.808 151.956 Q 292.808 153.556 291.784 154.42 L 291.784 154.42 L 291.784 154.42 Q 290.76 155.284 288.904 155.284 L 288.904 155.284 L 269.896 155.284 L 269.896 167.7 L 287.624 167.7 L 287.624 167.7 Q 289.48 167.7 290.504 168.532 L 290.504 168.532 L 290.504 168.532 Q 291.528 169.364 291.528 170.964 L 291.528 170.964 L 291.528 170.964 Q 291.528 172.5 290.504 173.332 L 290.504 173.332 L 290.504 173.332 Q 289.48 174.164 287.624 174.164 L 287.624 174.164 L 269.896 174.164 L 269.896 187.348 L 288.904 187.348 L 288.904 187.348 Q 290.76 187.348 291.784 188.212 L 291.784 188.212 L 291.784 188.212 Q 292.808 189.076 292.808 190.676 L 292.808 190.676 L 292.808 190.676 Q 292.808 192.212 291.784 193.044 L 291.784 193.044 L 291.784 193.044 Q 290.76 193.876 288.904 193.876 L 288.904 193.876 L 265.8 193.876 Z " fill-rule="evenodd" fill="rgb(255,255,255)" />
          <rect x="27.5" y="129.172" width="267" height="5.361" transform="matrix(1,0,0,1,0,0)" fill="rgb(235,235,235)" />
        </g>
      </g>
    </g>
  </svg>
