<?xml version="1.0" standalone="no"?><!-- Generator: Gravit.io --><svg xmlns="http://www.w3.org/2000/svg" xmlns:xlink="http://www.w3.org/1999/xlink" style="isolation:isolate" viewBox="0 0 322 277" width="322" height="277"><defs><clipPath id="_clipPath_5pBNoK95qJAc6vTLI8U0580EbWtmuiN3"><rect width="322" height="277"/></clipPath></defs><g clip-path="url(#_clipPath_5pBNoK95qJAc6vTLI8U0580EbWtmuiN3)"><rect x="0" y="0" width="322" height="277" transform="matrix(1,0,0,1,0,0)" fill="rgb(235,255,241)"/><g id="Group"><path d="M 14.727 54.394 L 307.273 54.394 C 315.401 54.394 322 60.993 322 69.121 L 322 207.879 C 322 216.007 315.401 222.606 307.273 222.606 L 14.727 222.606 C 6.599 222.606 0 216.007 0 207.879 L 0 69.121 C 0 60.993 6.599 54.394 14.727 54.394 Z" style="stroke:none;fill:#C9DADF;stroke-miterlimit:10;"/><g id="Group"><path d="M 18.963 63.674 L 303.037 63.674 C 307.984 63.674 312 67.69 312 72.637 L 312 205.083 C 312 210.03 307.984 214.046 303.037 214.046 L 18.963 214.046 C 14.016 214.046 10 210.03 10 205.083 L 10 72.637 C 10 67.69 14.016 63.674 18.963 63.674 Z" style="stroke:none;fill:#6C9AA6;stroke-miterlimit:10;"/><path d=" M 149.879 105.821 L 149.879 105.821 L 149.879 105.821 Q 149.879 104.402 150.968 103.511 L 150.968 103.511 L 150.968 103.511 Q 152.057 102.62 153.575 102.62 L 153.575 102.62 L 153.575 102.62 Q 155.093 102.62 156.71 103.346 L 156.71 103.346 L 156.71 103.346 Q 156.875 102.95 157.485 101.052 L 157.485 101.052 L 157.485 101.052 Q 158.096 99.155 158.624 96.069 L 158.624 96.069 L 158.624 96.069 Q 159.152 92.984 159.152 91.697 L 159.152 91.697 L 159.152 91.697 Q 159.152 90.41 158.426 89.75 L 158.426 89.75 L 158.426 89.42 L 158.426 89.42 Q 160.34 88.43 162.914 88.43 L 162.914 88.43 L 164.3 88.562 L 164.3 88.562 Q 164.465 88.958 164.465 90.08 L 164.465 90.08 L 164.465 90.08 Q 164.465 93.776 163.145 97.884 L 163.145 97.884 L 163.145 97.884 Q 161.825 101.993 159.713 104.897 L 159.713 104.897 L 159.713 104.897 Q 162.089 106.151 163.64 106.151 L 163.64 106.151 L 163.64 106.151 Q 165.191 106.151 166.428 104.748 L 166.428 104.748 L 166.428 104.748 Q 167.666 103.346 168.359 101.267 L 168.359 101.267 L 168.359 101.267 Q 169.844 96.977 169.844 93.495 L 169.844 93.495 L 169.844 93.495 Q 169.844 90.014 167.996 88.331 L 167.996 88.331 L 167.996 88.331 Q 166.148 86.648 162.501 86.648 L 162.501 86.648 L 162.501 86.648 Q 158.855 86.648 155.769 88.727 L 155.769 88.727 L 155.769 88.727 Q 152.684 90.806 152.684 93.545 L 152.684 93.545 L 152.684 93.545 Q 152.684 94.7 153.245 95.261 L 153.245 95.261 L 153.245 95.261 Q 153.806 95.822 154.763 96.152 L 154.763 96.152 L 154.763 96.152 Q 154.73 97.406 154.037 98.693 L 154.037 98.693 L 154.037 98.693 Q 152.684 98.429 151.595 97.191 L 151.595 97.191 L 151.595 97.191 Q 150.506 95.954 150.506 93.809 L 150.506 93.809 L 150.506 93.809 Q 150.506 89.849 154.268 87.225 L 154.268 87.225 L 154.268 87.225 Q 158.03 84.602 163.673 84.602 L 163.673 84.602 L 163.673 84.602 Q 168.425 84.602 171.56 86.813 L 171.56 86.813 L 171.56 86.813 Q 173.144 87.935 174.018 89.898 L 174.018 89.898 L 174.018 89.898 Q 174.893 91.862 174.893 94.914 L 174.893 94.914 L 174.893 94.914 Q 174.893 97.967 173.54 101.25 L 173.54 101.25 L 173.54 101.25 Q 172.187 104.534 169.596 106.745 L 169.596 106.745 L 169.596 106.745 Q 167.006 108.956 164.019 108.956 L 164.019 108.956 L 164.019 108.956 Q 161.033 108.956 157.931 106.877 L 157.931 106.877 L 157.931 106.877 Q 155.72 108.923 153.443 108.923 L 153.443 108.923 L 153.443 108.923 Q 151.892 108.923 150.885 108.081 L 150.885 108.081 L 150.885 108.081 Q 149.879 107.24 149.879 105.821 Z  M 153.344 106.415 L 153.344 106.415 L 153.344 106.415 Q 154.565 106.415 155.522 105.293 L 155.522 105.293 L 155.522 105.293 Q 154.301 104.6 153.575 104.6 L 153.575 104.6 L 153.575 104.6 Q 152.057 104.6 152.057 105.491 L 152.057 105.491 L 152.057 105.491 Q 152.057 105.887 152.387 106.151 L 152.387 106.151 L 152.387 106.151 Q 152.717 106.415 153.344 106.415 Z  M 182.813 95.954 L 182.813 95.954 L 182.813 95.954 Q 182.813 97.34 181.922 100.722 L 181.922 100.722 L 181.922 100.722 Q 181.031 104.105 181.031 105.144 L 181.031 105.144 L 181.031 105.144 Q 181.031 106.184 181.328 106.184 L 181.328 106.184 L 181.328 106.184 Q 181.526 106.184 182.846 105.557 L 182.846 105.557 L 183.242 105.359 L 183.803 106.514 L 183.803 106.514 Q 183.506 106.778 183.011 107.174 L 183.011 107.174 L 183.011 107.174 Q 182.516 107.57 181.163 108.246 L 181.163 108.246 L 181.163 108.246 Q 179.81 108.923 178.655 108.923 L 178.655 108.923 L 178.655 108.923 Q 177.5 108.923 176.84 108.213 L 176.84 108.213 L 176.84 108.213 Q 176.18 107.504 176.18 106.299 L 176.18 106.299 L 176.18 106.299 Q 176.18 105.095 177.005 102.009 L 177.005 102.009 L 177.005 102.009 Q 177.83 98.924 177.83 98 L 177.83 98 L 177.83 98 Q 177.83 96.614 176.972 95.393 L 176.972 95.393 L 176.675 94.997 L 176.708 94.568 L 176.708 94.568 Q 178.457 94.073 182.384 94.073 L 182.384 94.073 L 182.384 94.073 Q 182.813 94.568 182.813 95.954 Z  M 179.051 90.459 L 179.051 90.459 L 179.051 90.459 Q 178.391 89.816 178.391 88.727 L 178.391 88.727 L 178.391 88.727 Q 178.391 87.638 179.298 86.813 L 179.298 86.813 L 179.298 86.813 Q 180.206 85.988 181.394 85.988 L 181.394 85.988 L 181.394 85.988 Q 182.582 85.988 183.242 86.648 L 183.242 86.648 L 183.242 86.648 Q 183.902 87.308 183.902 88.38 L 183.902 88.38 L 183.902 88.38 Q 183.902 89.453 182.961 90.278 L 182.961 90.278 L 182.961 90.278 Q 182.021 91.103 180.866 91.103 L 180.866 91.103 L 180.866 91.103 Q 179.711 91.103 179.051 90.459 Z  M 191.525 94.304 L 194.594 94.304 L 194.594 94.304 Q 194.528 95.03 194 96.218 L 194 96.218 L 194 96.218 Q 192.746 96.086 191.525 96.086 L 191.525 96.086 L 191.393 96.086 L 191.393 96.086 Q 190.7 104.237 190.106 108.131 L 190.106 108.131 L 190.106 108.131 Q 189.512 112.025 188.555 113.576 L 188.555 113.576 L 188.555 113.576 Q 187.367 113.543 186.096 113.262 L 186.096 113.262 L 186.096 113.262 Q 184.826 112.982 184.364 112.685 L 184.364 112.685 L 184.364 112.685 Q 185.156 110.243 185.964 105.326 L 185.964 105.326 L 185.964 105.326 Q 186.773 100.409 187.004 96.251 L 187.004 96.251 L 187.004 96.251 Q 186.08 96.317 184.958 96.482 L 184.958 96.482 L 184.958 96.482 Q 184.859 96.053 184.859 95.607 L 184.859 95.607 L 184.859 95.607 Q 184.859 95.162 184.991 94.304 L 184.991 94.304 L 187.103 94.304 L 187.103 94.304 Q 187.169 91.433 187.4 89.948 L 187.4 89.948 L 187.4 89.948 Q 187.796 87.308 189.231 85.806 L 189.231 85.806 L 189.231 85.806 Q 190.667 84.305 192.944 84.305 L 192.944 84.305 L 192.944 84.305 Q 194.396 84.305 195.237 84.948 L 195.237 84.948 L 195.237 84.948 Q 196.079 85.592 196.079 86.978 L 196.079 86.978 L 196.079 86.978 Q 196.079 88.364 194.825 90.558 L 194.825 90.558 L 194.825 90.558 Q 193.571 92.753 191.525 94.304 L 191.525 94.304 Z  M 191.591 92.225 L 191.591 92.225 Q 192.878 91.136 193.604 89.816 L 193.604 89.816 L 193.604 89.816 Q 194.33 88.496 194.33 87.423 L 194.33 87.423 L 194.33 87.423 Q 194.33 86.351 193.637 86.351 L 193.637 86.351 L 193.637 86.351 Q 192.185 86.351 191.789 89.684 L 191.789 89.684 L 191.789 89.684 Q 191.657 90.806 191.591 92.225 L 191.591 92.225 Z  M 194.495 102.818 L 194.495 102.818 L 194.495 102.818 Q 194.495 98.693 196.986 96.3 L 196.986 96.3 L 196.986 96.3 Q 199.478 93.908 202.646 93.908 L 202.646 93.908 L 202.646 93.908 Q 204.593 93.908 205.847 94.865 L 205.847 94.865 L 205.847 94.865 Q 207.101 95.822 207.101 97.422 L 207.101 97.422 L 207.101 97.422 Q 207.101 99.023 206.292 100.112 L 206.292 100.112 L 206.292 100.112 Q 205.484 101.201 204.329 101.795 L 204.329 101.795 L 204.329 101.795 Q 201.986 102.95 200.039 103.247 L 200.039 103.247 L 199.247 103.346 L 199.247 103.346 Q 199.478 106.448 201.788 106.448 L 201.788 106.448 L 201.788 106.448 Q 202.58 106.448 203.471 106.052 L 203.471 106.052 L 203.471 106.052 Q 204.362 105.656 204.857 105.26 L 204.857 105.26 L 205.352 104.864 L 206.144 105.92 L 206.144 105.92 Q 205.88 106.283 205.088 106.877 L 205.088 106.877 L 205.088 106.877 Q 204.296 107.471 203.603 107.867 L 203.603 107.867 L 203.603 107.867 Q 201.689 108.923 199.412 108.923 L 199.412 108.923 L 199.412 108.923 Q 197.135 108.923 195.815 107.306 L 195.815 107.306 L 195.815 107.306 Q 194.495 105.689 194.495 102.818 Z  M 199.214 101.729 L 199.214 101.729 Q 200.897 101.432 201.887 100.31 L 201.887 100.31 L 201.887 100.31 Q 202.877 99.188 202.877 97.406 L 202.877 97.406 L 202.877 97.406 Q 202.877 95.624 201.821 95.624 L 201.821 95.624 L 201.821 95.624 Q 200.567 95.624 199.89 97.752 L 199.89 97.752 L 199.89 97.752 Q 199.214 99.881 199.214 101.729 L 199.214 101.729 Z  M 208.454 108.626 L 208.454 108.626 L 208.223 108.626 L 208.223 108.626 Q 208.157 108.362 208.157 107.421 L 208.157 107.421 L 208.157 107.421 Q 208.157 106.481 209.048 102.356 L 209.048 102.356 L 209.048 102.356 Q 209.939 98.231 209.939 97.637 L 209.939 97.637 L 209.939 97.637 Q 209.939 96.614 209.015 95.393 L 209.015 95.393 L 208.718 94.997 L 208.751 94.568 L 208.751 94.568 Q 210.533 94.073 214.46 94.073 L 214.46 94.073 L 214.46 94.073 Q 214.856 94.931 214.856 96.482 L 214.856 96.482 L 214.856 96.482 Q 215.219 95.888 216.374 94.898 L 216.374 94.898 L 216.374 94.898 Q 217.529 93.908 218.75 93.908 L 218.75 93.908 L 218.75 93.908 Q 220.532 93.908 220.532 97.01 L 220.532 97.01 L 220.532 97.01 Q 220.367 97.208 220.086 97.521 L 220.086 97.521 L 220.086 97.521 Q 219.806 97.835 218.964 98.396 L 218.964 98.396 L 218.964 98.396 Q 218.123 98.957 217.331 99.089 L 217.331 99.089 L 217.331 99.089 Q 217.298 99.089 216.77 98.198 L 216.77 98.198 L 216.77 98.198 Q 216.242 97.307 215.978 97.307 L 215.978 97.307 L 215.978 97.307 Q 215.153 97.604 214.526 98.297 L 214.526 98.297 L 214.526 98.297 Q 213.008 105.128 213.008 107.141 L 213.008 107.141 L 213.008 107.141 Q 213.008 107.867 213.041 108.164 L 213.041 108.164 L 213.041 108.164 Q 211.886 108.626 208.454 108.626 Z  M 219.674 102.818 L 219.674 102.818 L 219.674 102.818 Q 219.674 98.693 222.165 96.3 L 222.165 96.3 L 222.165 96.3 Q 224.657 93.908 227.825 93.908 L 227.825 93.908 L 227.825 93.908 Q 229.772 93.908 231.026 94.865 L 231.026 94.865 L 231.026 94.865 Q 232.28 95.822 232.28 97.422 L 232.28 97.422 L 232.28 97.422 Q 232.28 99.023 231.471 100.112 L 231.471 100.112 L 231.471 100.112 Q 230.663 101.201 229.508 101.795 L 229.508 101.795 L 229.508 101.795 Q 227.165 102.95 225.218 103.247 L 225.218 103.247 L 224.426 103.346 L 224.426 103.346 Q 224.657 106.448 226.967 106.448 L 226.967 106.448 L 226.967 106.448 Q 227.759 106.448 228.65 106.052 L 228.65 106.052 L 228.65 106.052 Q 229.541 105.656 230.036 105.26 L 230.036 105.26 L 230.531 104.864 L 231.323 105.92 L 231.323 105.92 Q 231.059 106.283 230.267 106.877 L 230.267 106.877 L 230.267 106.877 Q 229.475 107.471 228.782 107.867 L 228.782 107.867 L 228.782 107.867 Q 226.868 108.923 224.591 108.923 L 224.591 108.923 L 224.591 108.923 Q 222.314 108.923 220.994 107.306 L 220.994 107.306 L 220.994 107.306 Q 219.674 105.689 219.674 102.818 Z  M 224.393 101.729 L 224.393 101.729 Q 226.076 101.432 227.066 100.31 L 227.066 100.31 L 227.066 100.31 Q 228.056 99.188 228.056 97.406 L 228.056 97.406 L 228.056 97.406 Q 228.056 95.624 227 95.624 L 227 95.624 L 227 95.624 Q 225.746 95.624 225.069 97.752 L 225.069 97.752 L 225.069 97.752 Q 224.393 99.881 224.393 101.729 L 224.393 101.729 Z  M 233.864 108.626 L 233.864 108.626 L 233.237 108.626 L 233.237 108.626 Q 233.237 107.075 234.177 102.686 L 234.177 102.686 L 234.177 102.686 Q 235.118 98.297 235.118 97.703 L 235.118 97.703 L 235.118 97.703 Q 235.118 96.614 234.194 95.393 L 234.194 95.393 L 233.897 94.997 L 233.93 94.568 L 233.93 94.568 Q 235.712 94.073 239.639 94.073 L 239.639 94.073 L 239.639 94.073 Q 240.068 94.634 240.101 96.119 L 240.101 96.119 L 240.101 96.119 Q 242.972 93.908 244.952 93.908 L 244.952 93.908 L 244.952 93.908 Q 246.14 93.908 246.849 94.733 L 246.849 94.733 L 246.849 94.733 Q 247.559 95.558 247.559 96.795 L 247.559 96.795 L 247.559 96.795 Q 247.559 98.033 246.8 101.069 L 246.8 101.069 L 246.8 101.069 Q 246.041 104.105 246.041 105.144 L 246.041 105.144 L 246.041 105.144 Q 246.041 106.184 246.305 106.184 L 246.305 106.184 L 246.305 106.184 Q 246.503 106.184 247.691 105.557 L 247.691 105.557 L 248.087 105.359 L 248.681 106.514 L 248.681 106.514 Q 248.384 106.778 247.889 107.174 L 247.889 107.174 L 247.889 107.174 Q 247.394 107.57 246.057 108.246 L 246.057 108.246 L 246.057 108.246 Q 244.721 108.923 243.665 108.923 L 243.665 108.923 L 243.665 108.923 Q 241.256 108.923 241.256 106.184 L 241.256 106.184 L 241.256 106.184 Q 241.256 105.029 241.998 101.927 L 241.998 101.927 L 241.998 101.927 Q 242.741 98.825 242.741 97.934 L 242.741 97.934 L 242.741 97.934 Q 242.741 97.043 242.18 97.043 L 242.18 97.043 L 242.18 97.043 Q 241.223 97.043 239.837 97.868 L 239.837 97.868 L 239.837 97.868 Q 239.738 98.429 239.177 100.838 L 239.177 100.838 L 239.177 100.838 Q 238.022 106.019 238.022 108.164 L 238.022 108.164 L 238.022 108.164 Q 236.867 108.626 233.864 108.626 Z  M 257.327 95.558 L 257.327 95.558 L 257.327 95.558 Q 256.007 95.558 255.215 97.752 L 255.215 97.752 L 255.215 97.752 Q 254.423 99.947 254.423 102.455 L 254.423 102.455 L 254.423 102.455 Q 254.423 106.415 256.865 106.415 L 256.865 106.415 L 256.865 106.415 Q 257.657 106.415 258.548 106.035 L 258.548 106.035 L 258.548 106.035 Q 259.439 105.656 259.967 105.293 L 259.967 105.293 L 260.462 104.897 L 261.221 105.92 L 261.221 105.92 Q 260.957 106.283 260.165 106.877 L 260.165 106.877 L 260.165 106.877 Q 259.373 107.471 258.68 107.867 L 258.68 107.867 L 258.68 107.867 Q 257.987 108.263 256.898 108.593 L 256.898 108.593 L 256.898 108.593 Q 255.809 108.923 254.753 108.923 L 254.753 108.923 L 254.753 108.923 Q 252.179 108.923 250.892 107.24 L 250.892 107.24 L 250.892 107.24 Q 249.605 105.557 249.605 102.719 L 249.605 102.719 L 249.605 102.719 Q 249.605 98.792 251.766 96.35 L 251.766 96.35 L 251.766 96.35 Q 253.928 93.908 257.327 93.908 L 257.327 93.908 L 257.327 93.908 Q 259.538 93.908 260.842 94.914 L 260.842 94.914 L 260.842 94.914 Q 262.145 95.921 262.145 97.389 L 262.145 97.389 L 262.145 97.389 Q 262.145 98.858 261.221 99.914 L 261.221 99.914 L 261.221 99.914 Q 260.396 99.914 259.307 99.551 L 259.307 99.551 L 259.307 99.551 Q 258.218 99.188 257.657 98.66 L 257.657 98.66 L 258.152 95.756 L 258.152 95.756 Q 257.855 95.558 257.327 95.558 Z  M 269.669 95.954 L 269.669 95.954 L 269.669 95.954 Q 269.669 97.34 268.778 100.722 L 268.778 100.722 L 268.778 100.722 Q 267.887 104.105 267.887 105.144 L 267.887 105.144 L 267.887 105.144 Q 267.887 106.184 268.184 106.184 L 268.184 106.184 L 268.184 106.184 Q 268.382 106.184 269.702 105.557 L 269.702 105.557 L 270.098 105.359 L 270.659 106.514 L 270.659 106.514 Q 270.362 106.778 269.867 107.174 L 269.867 107.174 L 269.867 107.174 Q 269.372 107.57 268.019 108.246 L 268.019 108.246 L 268.019 108.246 Q 266.666 108.923 265.511 108.923 L 265.511 108.923 L 265.511 108.923 Q 264.356 108.923 263.696 108.213 L 263.696 108.213 L 263.696 108.213 Q 263.036 107.504 263.036 106.299 L 263.036 106.299 L 263.036 106.299 Q 263.036 105.095 263.861 102.009 L 263.861 102.009 L 263.861 102.009 Q 264.686 98.924 264.686 98 L 264.686 98 L 264.686 98 Q 264.686 96.614 263.828 95.393 L 263.828 95.393 L 263.531 94.997 L 263.564 94.568 L 263.564 94.568 Q 265.313 94.073 269.24 94.073 L 269.24 94.073 L 269.24 94.073 Q 269.669 94.568 269.669 95.954 Z  M 265.907 90.459 L 265.907 90.459 L 265.907 90.459 Q 265.247 89.816 265.247 88.727 L 265.247 88.727 L 265.247 88.727 Q 265.247 87.638 266.155 86.813 L 266.155 86.813 L 266.155 86.813 Q 267.062 85.988 268.25 85.988 L 268.25 85.988 L 268.25 85.988 Q 269.438 85.988 270.098 86.648 L 270.098 86.648 L 270.098 86.648 Q 270.758 87.308 270.758 88.38 L 270.758 88.38 L 270.758 88.38 Q 270.758 89.453 269.818 90.278 L 269.818 90.278 L 269.818 90.278 Q 268.877 91.103 267.722 91.103 L 267.722 91.103 L 267.722 91.103 Q 266.567 91.103 265.907 90.459 Z  M 281.648 94.865 L 281.648 94.865 L 281.648 94.865 Q 281.714 94.799 282.011 94.007 L 282.011 94.007 L 282.011 94.007 Q 283.562 94.007 286.169 94.931 L 286.169 94.931 L 286.169 94.931 Q 285.344 97.67 284.849 100.656 L 284.849 100.656 L 284.849 100.656 Q 284.354 103.643 284.354 104.913 L 284.354 104.913 L 284.354 104.913 Q 284.354 106.184 284.618 106.184 L 284.618 106.184 L 284.618 106.184 Q 284.816 106.184 286.07 105.557 L 286.07 105.557 L 286.466 105.359 L 287.06 106.514 L 287.06 106.514 Q 286.763 106.778 286.285 107.174 L 286.285 107.174 L 286.285 107.174 Q 285.806 107.57 284.486 108.246 L 284.486 108.246 L 284.486 108.246 Q 283.166 108.923 282.11 108.923 L 282.11 108.923 L 282.11 108.923 Q 280.064 108.923 279.734 107.075 L 279.734 107.075 L 279.734 107.075 Q 277.622 108.923 275.922 108.923 L 275.922 108.923 L 275.922 108.923 Q 274.223 108.923 273.051 107.603 L 273.051 107.603 L 273.051 107.603 Q 271.88 106.283 271.88 103.445 L 271.88 103.445 L 271.88 103.445 Q 271.88 99.023 273.695 96.465 L 273.695 96.465 L 273.695 96.465 Q 275.51 93.908 278.084 93.908 L 278.084 93.908 L 278.084 93.908 Q 279.932 93.908 281.648 94.865 Z  M 277.886 106.118 L 277.886 106.118 L 277.886 106.118 Q 278.678 106.118 279.668 105.491 L 279.668 105.491 L 279.668 105.491 Q 279.899 100.838 281.219 96.284 L 281.219 96.284 L 281.219 96.284 Q 280.229 95.855 279.536 95.855 L 279.536 95.855 L 279.536 95.855 Q 278.348 95.855 277.506 98.181 L 277.506 98.181 L 277.506 98.181 Q 276.665 100.508 276.665 103.313 L 276.665 103.313 L 276.665 103.313 Q 276.665 106.118 277.886 106.118 Z  M 290.195 108.923 L 290.195 108.923 L 290.195 108.923 Q 289.04 108.923 288.413 108.23 L 288.413 108.23 L 288.413 108.23 Q 287.786 107.537 287.786 106.382 L 287.786 106.382 L 287.786 106.382 Q 287.786 105.227 288.644 104.385 L 288.644 104.385 L 288.644 104.385 Q 289.502 103.544 290.674 103.544 L 290.674 103.544 L 290.674 103.544 Q 291.845 103.544 292.472 104.22 L 292.472 104.22 L 292.472 104.22 Q 293.099 104.897 293.099 106.035 L 293.099 106.035 L 293.099 106.035 Q 293.099 107.174 292.224 108.048 L 292.224 108.048 L 292.224 108.048 Q 291.35 108.923 290.195 108.923 Z  M 296.168 86.615 L 296.168 86.615 L 296.168 86.615 Q 296.168 89.882 294.023 96.878 L 294.023 96.878 L 294.023 96.878 Q 293.858 97.439 293.412 98.907 L 293.412 98.907 L 293.412 98.907 Q 292.967 100.376 292.736 101.168 L 292.736 101.168 L 292.736 101.168 Q 291.845 101.465 291.169 101.465 L 291.169 101.465 L 291.169 101.465 Q 290.492 101.465 289.964 101.399 L 289.964 101.399 L 289.964 101.399 Q 291.152 94.238 291.152 88.76 L 291.152 88.76 L 290.954 85.988 L 290.954 85.988 Q 293.759 85.097 295.97 85.097 L 295.97 85.097 L 295.97 85.097 Q 296.168 85.394 296.168 86.615 Z  M 130.277 110.375 L 130.277 110.375 Q 129.782 111.431 128.709 112.305 L 128.709 112.305 L 128.709 112.305 Q 127.637 113.18 126.416 113.18 L 126.416 113.18 L 126.416 113.18 Q 125.195 113.18 124.023 112.503 L 124.023 112.503 L 124.023 112.503 Q 122.852 111.827 122.126 111.134 L 122.126 111.134 L 122.126 111.134 Q 121.4 110.441 120.063 108.989 L 120.063 108.989 L 120.063 108.989 Q 118.727 107.537 118.232 107.042 L 118.232 107.042 L 118.232 107.042 Q 116.483 108.923 113.975 108.923 L 113.975 108.923 L 113.975 108.923 Q 112.325 108.923 111.269 108.098 L 111.269 108.098 L 111.269 108.098 Q 110.213 107.273 110.213 105.903 L 110.213 105.903 L 110.213 105.903 Q 110.213 104.534 111.351 103.56 L 111.351 103.56 L 111.351 103.56 Q 112.49 102.587 114.404 102.587 L 114.404 102.587 L 114.404 102.587 Q 115.493 102.587 116.582 102.95 L 116.582 102.95 L 116.582 102.95 Q 116.912 101.333 117.11 98.363 L 117.11 98.363 L 117.11 98.363 Q 115.097 98 113.826 96.663 L 113.826 96.663 L 113.826 96.663 Q 112.556 95.327 112.556 92.951 L 112.556 92.951 L 112.556 92.951 Q 112.556 92.027 112.853 90.608 L 112.853 90.608 L 112.853 90.608 Q 113.216 90.542 113.81 90.542 L 113.81 90.542 L 113.81 90.542 Q 114.404 90.542 115.031 91.004 L 115.031 91.004 L 115.031 91.004 Q 114.602 91.796 114.602 93.116 L 114.602 93.116 L 114.602 93.116 Q 114.602 95.789 117.209 96.416 L 117.209 96.416 L 117.209 96.416 Q 117.341 92.819 117.605 91.35 L 117.605 91.35 L 117.605 91.35 Q 117.869 89.882 118.529 88.545 L 118.529 88.545 L 118.529 88.545 Q 119.189 87.209 120.723 86.153 L 120.723 86.153 L 120.723 86.153 Q 122.258 85.097 124.634 85.097 L 124.634 85.097 L 124.634 85.097 Q 127.01 85.097 128.313 86.499 L 128.313 86.499 L 128.313 86.499 Q 129.617 87.902 129.617 89.816 L 129.617 89.816 L 129.617 89.816 Q 129.617 92.489 127.158 95.211 L 127.158 95.211 L 127.158 95.211 Q 124.7 97.934 121.07 98.528 L 121.07 98.528 L 121.07 98.528 Q 120.047 102.983 119.585 104.567 L 119.585 104.567 L 119.585 104.567 Q 120.113 104.963 121.515 106.052 L 121.515 106.052 L 121.515 106.052 Q 122.918 107.141 123.66 107.652 L 123.66 107.652 L 123.66 107.652 Q 124.403 108.164 125.673 108.675 L 125.673 108.675 L 125.673 108.675 Q 126.944 109.187 128.132 109.187 L 128.132 109.187 L 129.518 109.088 L 129.518 109.088 Q 130.079 109.88 130.277 110.375 L 130.277 110.375 Z  M 127.406 90.113 L 127.406 90.113 L 127.406 90.113 Q 127.406 89.123 126.894 88.496 L 126.894 88.496 L 126.894 88.496 Q 126.383 87.869 125.525 87.869 L 125.525 87.869 L 125.525 87.869 Q 123.314 87.869 122.291 92.687 L 122.291 92.687 L 122.291 92.687 Q 121.73 95.327 121.499 96.515 L 121.499 96.515 L 121.499 96.515 Q 123.941 96.086 125.673 94.089 L 125.673 94.089 L 125.673 94.089 Q 127.406 92.093 127.406 90.113 Z  M 113.678 106.448 L 113.678 106.448 L 113.678 106.448 Q 114.833 106.448 115.724 105.194 L 115.724 105.194 L 115.724 105.194 Q 114.767 104.6 113.81 104.6 L 113.81 104.6 L 113.81 104.6 Q 112.391 104.6 112.391 105.524 L 112.391 105.524 L 112.391 105.524 Q 112.391 105.986 112.787 106.217 L 112.787 106.217 L 112.787 106.217 Q 113.183 106.448 113.678 106.448 Z  M 137.471 94.865 L 137.471 94.865 L 137.471 94.865 Q 137.537 94.799 137.834 94.007 L 137.834 94.007 L 137.834 94.007 Q 139.385 94.007 141.992 94.931 L 141.992 94.931 L 141.992 94.931 Q 141.167 97.67 140.672 100.656 L 140.672 100.656 L 140.672 100.656 Q 140.177 103.643 140.177 104.913 L 140.177 104.913 L 140.177 104.913 Q 140.177 106.184 140.441 106.184 L 140.441 106.184 L 140.441 106.184 Q 140.639 106.184 141.893 105.557 L 141.893 105.557 L 142.289 105.359 L 142.883 106.514 L 142.883 106.514 Q 142.586 106.778 142.107 107.174 L 142.107 107.174 L 142.107 107.174 Q 141.629 107.57 140.309 108.246 L 140.309 108.246 L 140.309 108.246 Q 138.989 108.923 137.933 108.923 L 137.933 108.923 L 137.933 108.923 Q 135.887 108.923 135.557 107.075 L 135.557 107.075 L 135.557 107.075 Q 133.445 108.923 131.745 108.923 L 131.745 108.923 L 131.745 108.923 Q 130.046 108.923 128.874 107.603 L 128.874 107.603 L 128.874 107.603 Q 127.703 106.283 127.703 103.445 L 127.703 103.445 L 127.703 103.445 Q 127.703 99.023 129.518 96.465 L 129.518 96.465 L 129.518 96.465 Q 131.333 93.908 133.907 93.908 L 133.907 93.908 L 133.907 93.908 Q 135.755 93.908 137.471 94.865 Z  M 133.709 106.118 L 133.709 106.118 L 133.709 106.118 Q 134.501 106.118 135.491 105.491 L 135.491 105.491 L 135.491 105.491 Q 135.722 100.838 137.042 96.284 L 137.042 96.284 L 137.042 96.284 Q 136.052 95.855 135.359 95.855 L 135.359 95.855 L 135.359 95.855 Q 134.171 95.855 133.329 98.181 L 133.329 98.181 L 133.329 98.181 Q 132.488 100.508 132.488 103.313 L 132.488 103.313 L 132.488 103.313 Q 132.488 106.118 133.709 106.118 Z  M 44.625 108.923 L 44.625 108.923 L 44.625 108.923 Q 42.893 108.923 42.101 108.015 L 42.101 108.015 L 42.101 108.015 Q 41.309 107.108 41.309 105.606 L 41.309 105.606 L 41.309 105.606 Q 41.309 104.105 42.794 97.505 L 42.794 97.505 L 42.794 97.505 Q 39.989 97.571 38.306 98.033 L 38.306 98.033 L 38.306 98.033 Q 37.349 102.686 35.369 106.085 L 35.369 106.085 L 35.369 106.085 Q 34.346 107.801 32.894 108.807 L 32.894 108.807 L 32.894 108.807 Q 31.442 109.814 29.726 109.814 L 29.726 109.814 L 29.726 109.814 Q 28.01 109.814 26.921 108.675 L 26.921 108.675 L 26.921 108.675 Q 25.832 107.537 25.832 105.689 L 25.832 105.689 L 25.832 105.689 Q 25.832 103.049 28.01 100.722 L 28.01 100.722 L 28.01 100.722 Q 30.188 98.396 33.521 96.977 L 33.521 96.977 L 33.521 96.977 Q 33.818 93.941 33.818 92.01 L 33.818 92.01 L 33.818 92.01 Q 33.818 90.08 33.438 89.288 L 33.438 89.288 L 33.438 89.288 Q 33.059 88.496 32.234 88.496 L 32.234 88.496 L 32.234 88.496 Q 31.409 88.496 30.056 89.106 L 30.056 89.106 L 30.056 89.106 Q 28.703 89.717 27.515 90.74 L 27.515 90.74 L 26.69 89.552 L 26.69 89.552 Q 27.878 88.1 30.188 86.796 L 30.188 86.796 L 30.188 86.796 Q 32.498 85.493 34.643 85.493 L 34.643 85.493 L 34.643 85.493 Q 38.966 85.493 38.966 92.06 L 38.966 92.06 L 38.966 92.06 Q 38.966 93.611 38.702 95.789 L 38.702 95.789 L 38.702 95.789 Q 40.847 95.36 43.289 95.228 L 43.289 95.228 L 43.289 95.228 Q 44.411 90.014 44.411 86.978 L 44.411 86.978 L 44.411 86.978 Q 44.411 86.417 44.345 86.12 L 44.345 86.12 L 44.345 86.12 Q 46.985 85.097 49.658 85.097 L 49.658 85.097 L 49.658 85.097 Q 49.757 85.361 49.757 86.021 L 49.757 86.021 L 49.757 86.021 Q 49.757 88.067 48.14 95.36 L 48.14 95.36 L 48.14 95.36 Q 52.1 95.657 53.552 96.152 L 53.552 96.152 L 53.552 96.152 Q 53.585 96.284 53.585 96.647 L 53.585 96.647 L 53.585 96.647 Q 53.585 97.34 52.958 98.396 L 52.958 98.396 L 52.958 98.396 Q 50.813 97.736 47.678 97.538 L 47.678 97.538 L 47.678 97.538 Q 46.523 103.082 46.523 104.715 L 46.523 104.715 L 46.523 104.715 Q 46.523 106.349 47.315 106.349 L 47.315 106.349 L 47.315 106.349 Q 47.744 106.349 48.239 106.184 L 48.239 106.184 L 48.734 107.471 L 48.734 107.471 Q 46.358 108.923 44.625 108.923 Z  M 29.396 106.646 L 29.396 106.646 L 29.396 106.646 Q 30.452 106.646 31.475 104.831 L 31.475 104.831 L 31.475 104.831 Q 32.498 103.016 33.125 99.419 L 33.125 99.419 L 33.125 99.419 Q 31.277 100.211 29.759 101.894 L 29.759 101.894 L 29.759 101.894 Q 28.241 103.577 28.241 105.128 L 28.241 105.128 L 28.241 105.128 Q 28.241 105.854 28.587 106.25 L 28.587 106.25 L 28.587 106.25 Q 28.934 106.646 29.396 106.646 Z  M 61.175 94.865 L 61.175 94.865 L 61.175 94.865 Q 61.241 94.799 61.538 94.007 L 61.538 94.007 L 61.538 94.007 Q 63.089 94.007 65.696 94.931 L 65.696 94.931 L 65.696 94.931 Q 64.871 97.67 64.376 100.656 L 64.376 100.656 L 64.376 100.656 Q 63.881 103.643 63.881 104.913 L 63.881 104.913 L 63.881 104.913 Q 63.881 106.184 64.145 106.184 L 64.145 106.184 L 64.145 106.184 Q 64.343 106.184 65.597 105.557 L 65.597 105.557 L 65.993 105.359 L 66.587 106.514 L 66.587 106.514 Q 66.29 106.778 65.811 107.174 L 65.811 107.174 L 65.811 107.174 Q 65.333 107.57 64.013 108.246 L 64.013 108.246 L 64.013 108.246 Q 62.693 108.923 61.637 108.923 L 61.637 108.923 L 61.637 108.923 Q 59.591 108.923 59.261 107.075 L 59.261 107.075 L 59.261 107.075 Q 57.149 108.923 55.449 108.923 L 55.449 108.923 L 55.449 108.923 Q 53.75 108.923 52.578 107.603 L 52.578 107.603 L 52.578 107.603 Q 51.407 106.283 51.407 103.445 L 51.407 103.445 L 51.407 103.445 Q 51.407 99.023 53.222 96.465 L 53.222 96.465 L 53.222 96.465 Q 55.037 93.908 57.611 93.908 L 57.611 93.908 L 57.611 93.908 Q 59.459 93.908 61.175 94.865 Z  M 57.413 106.118 L 57.413 106.118 L 57.413 106.118 Q 58.205 106.118 59.195 105.491 L 59.195 105.491 L 59.195 105.491 Q 59.426 100.838 60.746 96.284 L 60.746 96.284 L 60.746 96.284 Q 59.756 95.855 59.063 95.855 L 59.063 95.855 L 59.063 95.855 Q 57.875 95.855 57.033 98.181 L 57.033 98.181 L 57.033 98.181 Q 56.192 100.508 56.192 103.313 L 56.192 103.313 L 56.192 103.313 Q 56.192 106.118 57.413 106.118 Z  M 74.771 95.558 L 74.771 95.558 L 74.771 95.558 Q 73.451 95.558 72.659 97.752 L 72.659 97.752 L 72.659 97.752 Q 71.867 99.947 71.867 102.455 L 71.867 102.455 L 71.867 102.455 Q 71.867 106.415 74.309 106.415 L 74.309 106.415 L 74.309 106.415 Q 75.101 106.415 75.992 106.035 L 75.992 106.035 L 75.992 106.035 Q 76.883 105.656 77.411 105.293 L 77.411 105.293 L 77.906 104.897 L 78.665 105.92 L 78.665 105.92 Q 78.401 106.283 77.609 106.877 L 77.609 106.877 L 77.609 106.877 Q 76.817 107.471 76.124 107.867 L 76.124 107.867 L 76.124 107.867 Q 75.431 108.263 74.342 108.593 L 74.342 108.593 L 74.342 108.593 Q 73.253 108.923 72.197 108.923 L 72.197 108.923 L 72.197 108.923 Q 69.623 108.923 68.336 107.24 L 68.336 107.24 L 68.336 107.24 Q 67.049 105.557 67.049 102.719 L 67.049 102.719 L 67.049 102.719 Q 67.049 98.792 69.21 96.35 L 69.21 96.35 L 69.21 96.35 Q 71.372 93.908 74.771 93.908 L 74.771 93.908 L 74.771 93.908 Q 76.982 93.908 78.285 94.914 L 78.285 94.914 L 78.285 94.914 Q 79.589 95.921 79.589 97.389 L 79.589 97.389 L 79.589 97.389 Q 79.589 98.858 78.665 99.914 L 78.665 99.914 L 78.665 99.914 Q 77.84 99.914 76.751 99.551 L 76.751 99.551 L 76.751 99.551 Q 75.662 99.188 75.101 98.66 L 75.101 98.66 L 75.596 95.756 L 75.596 95.756 Q 75.299 95.558 74.771 95.558 Z  M 80.15 102.818 L 80.15 102.818 L 80.15 102.818 Q 80.15 98.693 82.641 96.3 L 82.641 96.3 L 82.641 96.3 Q 85.133 93.908 88.301 93.908 L 88.301 93.908 L 88.301 93.908 Q 90.248 93.908 91.502 94.865 L 91.502 94.865 L 91.502 94.865 Q 92.756 95.822 92.756 97.422 L 92.756 97.422 L 92.756 97.422 Q 92.756 99.023 91.947 100.112 L 91.947 100.112 L 91.947 100.112 Q 91.139 101.201 89.984 101.795 L 89.984 101.795 L 89.984 101.795 Q 87.641 102.95 85.694 103.247 L 85.694 103.247 L 84.902 103.346 L 84.902 103.346 Q 85.133 106.448 87.443 106.448 L 87.443 106.448 L 87.443 106.448 Q 88.235 106.448 89.126 106.052 L 89.126 106.052 L 89.126 106.052 Q 90.017 105.656 90.512 105.26 L 90.512 105.26 L 91.007 104.864 L 91.799 105.92 L 91.799 105.92 Q 91.535 106.283 90.743 106.877 L 90.743 106.877 L 90.743 106.877 Q 89.951 107.471 89.258 107.867 L 89.258 107.867 L 89.258 107.867 Q 87.344 108.923 85.067 108.923 L 85.067 108.923 L 85.067 108.923 Q 82.79 108.923 81.47 107.306 L 81.47 107.306 L 81.47 107.306 Q 80.15 105.689 80.15 102.818 Z  M 84.869 101.729 L 84.869 101.729 Q 86.552 101.432 87.542 100.31 L 87.542 100.31 L 87.542 100.31 Q 88.532 99.188 88.532 97.406 L 88.532 97.406 L 88.532 97.406 Q 88.532 95.624 87.476 95.624 L 87.476 95.624 L 87.476 95.624 Q 86.222 95.624 85.545 97.752 L 85.545 97.752 L 85.545 97.752 Q 84.869 99.881 84.869 101.729 L 84.869 101.729 Z  M 94.109 108.626 L 94.109 108.626 L 93.878 108.626 L 93.878 108.626 Q 93.812 108.362 93.812 107.421 L 93.812 107.421 L 93.812 107.421 Q 93.812 106.481 94.703 102.356 L 94.703 102.356 L 94.703 102.356 Q 95.594 98.231 95.594 97.637 L 95.594 97.637 L 95.594 97.637 Q 95.594 96.614 94.67 95.393 L 94.67 95.393 L 94.373 94.997 L 94.406 94.568 L 94.406 94.568 Q 96.188 94.073 100.115 94.073 L 100.115 94.073 L 100.115 94.073 Q 100.511 94.931 100.511 96.482 L 100.511 96.482 L 100.511 96.482 Q 100.874 95.888 102.029 94.898 L 102.029 94.898 L 102.029 94.898 Q 103.184 93.908 104.405 93.908 L 104.405 93.908 L 104.405 93.908 Q 106.187 93.908 106.187 97.01 L 106.187 97.01 L 106.187 97.01 Q 106.022 97.208 105.741 97.521 L 105.741 97.521 L 105.741 97.521 Q 105.461 97.835 104.619 98.396 L 104.619 98.396 L 104.619 98.396 Q 103.778 98.957 102.986 99.089 L 102.986 99.089 L 102.986 99.089 Q 102.953 99.089 102.425 98.198 L 102.425 98.198 L 102.425 98.198 Q 101.897 97.307 101.633 97.307 L 101.633 97.307 L 101.633 97.307 Q 100.808 97.604 100.181 98.297 L 100.181 98.297 L 100.181 98.297 Q 98.663 105.128 98.663 107.141 L 98.663 107.141 L 98.663 107.141 Q 98.663 107.867 98.696 108.164 L 98.696 108.164 L 98.696 108.164 Q 97.541 108.626 94.109 108.626 Z " fill-rule="evenodd" fill="rgb(255,255,255)"/><path d=" M 34.199 196.837 L 34.199 196.837 Q 32.082 196.837 30.877 195.669 L 30.877 195.669 L 30.877 195.669 Q 29.673 194.501 29.673 192.384 L 29.673 192.384 L 29.673 149.825 L 29.673 149.825 Q 29.673 147.708 30.877 146.54 L 30.877 146.54 L 30.877 146.54 Q 32.082 145.372 34.199 145.372 L 34.199 145.372 L 48.653 145.372 L 48.653 145.372 Q 61.282 145.372 68.253 152.124 L 68.253 152.124 L 68.253 152.124 Q 75.225 158.877 75.225 171.068 L 75.225 171.068 L 75.225 171.068 Q 75.225 183.332 68.253 190.084 L 68.253 190.084 L 68.253 190.084 Q 61.282 196.837 48.653 196.837 L 48.653 196.837 L 34.199 196.837 Z  M 39.09 189.172 L 48.069 189.172 L 48.069 189.172 Q 65.808 189.172 65.808 171.068 L 65.808 171.068 L 65.808 171.068 Q 65.808 153.037 48.069 153.037 L 48.069 153.037 L 39.09 153.037 L 39.09 189.172 Z  M 107.637 197.494 L 107.637 197.494 Q 100.118 197.494 94.606 194.282 L 94.606 194.282 L 94.606 194.282 Q 89.095 191.07 86.102 185.084 L 86.102 185.084 L 86.102 185.084 Q 83.109 179.098 83.109 171.068 L 83.109 171.068 L 83.109 171.068 Q 83.109 163.038 86.065 157.088 L 86.065 157.088 L 86.065 157.088 Q 89.022 151.139 94.57 147.927 L 94.57 147.927 L 94.57 147.927 Q 100.118 144.715 107.637 144.715 L 107.637 144.715 L 107.637 144.715 Q 115.156 144.715 120.667 147.927 L 120.667 147.927 L 120.667 147.927 Q 126.179 151.139 129.135 157.088 L 129.135 157.088 L 129.135 157.088 Q 132.092 163.038 132.092 171.068 L 132.092 171.068 L 132.092 171.068 Q 132.092 179.098 129.099 185.084 L 129.099 185.084 L 129.099 185.084 Q 126.106 191.07 120.594 194.282 L 120.594 194.282 L 120.594 194.282 Q 115.083 197.494 107.637 197.494 L 107.637 197.494 Z  M 107.637 189.975 L 107.637 189.975 Q 114.718 189.975 118.696 185.084 L 118.696 185.084 L 118.696 185.084 Q 122.675 180.193 122.675 171.068 L 122.675 171.068 L 122.675 171.068 Q 122.675 161.943 118.696 157.088 L 118.696 157.088 L 118.696 157.088 Q 114.718 152.234 107.637 152.234 L 107.637 152.234 L 107.637 152.234 Q 100.483 152.234 96.504 157.088 L 96.504 157.088 L 96.504 157.088 Q 92.526 161.943 92.526 171.068 L 92.526 171.068 L 92.526 171.068 Q 92.526 180.193 96.504 185.084 L 96.504 185.084 L 96.504 185.084 Q 100.483 189.975 107.637 189.975 L 107.637 189.975 Z  M 180.564 145.007 L 180.564 145.007 Q 182.608 145.007 183.812 146.284 L 183.812 146.284 L 183.812 146.284 Q 185.017 147.562 185.017 149.679 L 185.017 149.679 L 185.017 192.53 L 185.017 192.53 Q 185.017 194.647 183.776 195.961 L 183.776 195.961 L 183.776 195.961 Q 182.535 197.275 180.564 197.275 L 180.564 197.275 L 180.564 197.275 Q 178.228 197.275 176.987 195.596 L 176.987 195.596 L 150.342 160.921 L 150.342 192.53 L 150.342 192.53 Q 150.342 194.647 149.174 195.961 L 149.174 195.961 L 149.174 195.961 Q 148.006 197.275 145.962 197.275 L 145.962 197.275 L 145.962 197.275 Q 143.918 197.275 142.75 195.961 L 142.75 195.961 L 142.75 195.961 Q 141.582 194.647 141.582 192.53 L 141.582 192.53 L 141.582 149.679 L 141.582 149.679 Q 141.582 147.562 142.823 146.284 L 142.823 146.284 L 142.823 146.284 Q 144.064 145.007 146.108 145.007 L 146.108 145.007 L 146.108 145.007 Q 148.371 145.007 149.612 146.686 L 149.612 146.686 L 176.184 181.215 L 176.184 149.679 L 176.184 149.679 Q 176.184 147.562 177.388 146.284 L 177.388 146.284 L 177.388 146.284 Q 178.593 145.007 180.564 145.007 L 180.564 145.007 Z  M 242.76 191.216 L 242.76 191.216 Q 243.198 192.165 243.198 193.114 L 243.198 193.114 L 243.198 193.114 Q 243.198 194.793 241.847 195.961 L 241.847 195.961 L 241.847 195.961 Q 240.497 197.129 238.745 197.129 L 238.745 197.129 L 238.745 197.129 Q 237.577 197.129 236.555 196.508 L 236.555 196.508 L 236.555 196.508 Q 235.533 195.888 234.949 194.574 L 234.949 194.574 L 230.569 184.792 L 204.873 184.792 L 200.493 194.574 L 200.493 194.574 Q 199.909 195.888 198.887 196.508 L 198.887 196.508 L 198.887 196.508 Q 197.865 197.129 196.624 197.129 L 196.624 197.129 L 196.624 197.129 Q 194.945 197.129 193.558 195.961 L 193.558 195.961 L 193.558 195.961 Q 192.171 194.793 192.171 193.114 L 192.171 193.114 L 192.171 193.114 Q 192.171 192.165 192.609 191.216 L 192.609 191.216 L 212.757 147.927 L 212.757 147.927 Q 213.414 146.467 214.764 145.7 L 214.764 145.7 L 214.764 145.7 Q 216.115 144.934 217.648 144.934 L 217.648 144.934 L 217.648 144.934 Q 219.181 144.934 220.531 145.7 L 220.531 145.7 L 220.531 145.7 Q 221.882 146.467 222.539 147.927 L 222.539 147.927 L 242.76 191.216 Z  M 217.721 155.811 L 208.085 177.492 L 227.357 177.492 L 217.721 155.811 Z  M 291.451 190.924 L 291.451 190.924 Q 292.327 192.238 292.327 193.479 L 292.327 193.479 L 292.327 193.479 Q 292.327 195.158 290.977 196.253 L 290.977 196.253 L 290.977 196.253 Q 289.626 197.348 287.801 197.348 L 287.801 197.348 L 287.801 197.348 Q 286.633 197.348 285.574 196.8 L 285.574 196.8 L 285.574 196.8 Q 284.516 196.253 283.786 195.158 L 283.786 195.158 L 274.077 180.412 L 274.077 180.412 Q 272.617 178.076 270.974 177.127 L 270.974 177.127 L 270.974 177.127 Q 269.332 176.178 266.704 176.178 L 266.704 176.178 L 259.55 176.178 L 259.55 192.53 L 259.55 192.53 Q 259.55 194.72 258.309 195.997 L 258.309 195.997 L 258.309 195.997 Q 257.068 197.275 254.951 197.275 L 254.951 197.275 L 254.951 197.275 Q 252.834 197.275 251.556 195.997 L 251.556 195.997 L 251.556 195.997 Q 250.279 194.72 250.279 192.53 L 250.279 192.53 L 250.279 149.825 L 250.279 149.825 Q 250.279 147.708 251.483 146.54 L 251.483 146.54 L 251.483 146.54 Q 252.688 145.372 254.805 145.372 L 254.805 145.372 L 273.055 145.372 L 273.055 145.372 Q 281.815 145.372 286.377 149.277 L 286.377 149.277 L 286.377 149.277 Q 290.94 153.183 290.94 160.556 L 290.94 160.556 L 290.94 160.556 Q 290.94 166.542 287.545 170.374 L 287.545 170.374 L 287.545 170.374 Q 284.151 174.207 277.946 175.302 L 277.946 175.302 L 277.946 175.302 Q 280.063 175.813 281.669 177.127 L 281.669 177.127 L 281.669 177.127 Q 283.275 178.441 284.808 180.777 L 284.808 180.777 L 291.451 190.924 Z  M 271.741 168.951 L 271.741 168.951 Q 277.07 168.951 279.552 166.943 L 279.552 166.943 L 279.552 166.943 Q 282.034 164.936 282.034 160.775 L 282.034 160.775 L 282.034 160.775 Q 282.034 156.541 279.552 154.606 L 279.552 154.606 L 279.552 154.606 Q 277.07 152.672 271.741 152.672 L 271.741 152.672 L 259.477 152.672 L 259.477 168.951 L 271.741 168.951 Z " fill-rule="evenodd" fill="rgb(255,255,255)"/><rect x="27.5" y="123.034" width="267" height="5.361" transform="matrix(1,0,0,1,0,0)" fill="rgb(235,235,235)"/></g></g></g></svg>