<?xml version="1.0" encoding="UTF-8" standalone="no"?>
<svg
   xmlns:dc="http://purl.org/dc/elements/1.1/"
   xmlns:cc="http://creativecommons.org/ns#"
   xmlns:rdf="http://www.w3.org/1999/02/22-rdf-syntax-ns#"
   xmlns:svg="http://www.w3.org/2000/svg"
   xmlns="http://www.w3.org/2000/svg"
   width="11.84"
   height="15"
   viewBox="0 0 9.4719953 12.000004"
   id="svg4263"
   version="1.1">
  <metadata
     id="metadata4270">
    <rdf:RDF>
      <cc:Work
         rdf:about="">
        <dc:format>image/svg+xml</dc:format>
        <dc:type
           rdf:resource="http://purl.org/dc/dcmitype/StillImage" />
        <dc:title></dc:title>
      </cc:Work>
    </rdf:RDF>
  </metadata>
  <defs
     id="defs4268" />
  <path
     id="Selection"
     d="m 5.5409207,0.03083148 c 0.4254154,0.0079 0.7841757,0.0039 1.1762636,0.199971 0.6449846,0.323481 2.378013,2.06635602 2.6269888,2.74076402 0.1411517,0.380335 0.1176264,0.962601 0.1176264,1.372344 0,0 0,5.293322 0,5.293322 0,0.4724785 0.078418,1.6860215 -0.1999648,2.0389095 -0.3077889,0.388177 -1.1135296,0.313678 -1.5644306,0.313678 0,0 -5.2931865,0 -5.2931865,0 -0.4724659,0 -1.68597791,0.07842 -2.03885701,-0.19997 -0.388167,-0.307797 -0.3136703,-1.113558 -0.3136703,-1.564471 0,0 0,-7.2538125 0,-7.2538125 0,-0.878299 -0.27642197,-2.18790602 0.44894063,-2.79565802 0.92924828,-0.252903 3.92087888,-0.164682 5.04028978,-0.145077 z M 9.0697116,5.7162525 c 0,-1.460565 0.2568176,-2.180064 -0.7959384,-3.332832 -0.3842461,-0.419545 -1.2664438,-1.321371 -1.7526328,-1.56447202 -0.6685099,-0.333283 -3.787569,-0.215653 -4.7050546,-0.19997 -0.3175912,0.0059 -0.7959384,-0.0079 -1.05863732,0.19997 C 0.36928147,1.1267455 0.44377817,1.9325075 0.44377817,2.3834205 c 0,0 0,9.0182535 0,9.0182535 0,0 8.62593343,0 8.62593343,0 0,0 0,-5.6854215 0,-5.6854215 z M 6.3250964,0.81502848 c 0,0 0,1.96048902 0,1.96048902 0,0 1.9604395,0 1.9604395,0 0,0 0,0.588147 0,0.588147 -0.472466,0 -1.6859779,0.07842 -2.038857,-0.199969 -0.4489407,-0.354849 -0.3136703,-1.793848 -0.3136703,-2.34866702 0,0 0.3920878,0 0.3920878,0 z M 7.50136,4.3439105 c 0,0 0,0.588147 0,0.588147 0,0 -5.4892303,0 -5.4892303,0 0,0 0,-0.588147 0,-0.588147 0,0 5.4892303,0 5.4892303,0 z m -5.0402897,1.684061 c 0.4077714,-0.182326 3.0524042,-0.125472 3.6679822,-0.11567 0.7253625,0.01373 0.9566944,-0.03333 1.3723075,0.588147 0,0 -5.4892303,0 -5.4892303,0 0.1568352,-0.235259 0.1450725,-0.333283 0.4489406,-0.472477 z m 0,1.568391 c 0.4077714,-0.182326 3.0524042,-0.125471 3.6679822,-0.115668 0.7253625,0.01373 0.9566944,-0.03333 1.3723075,0.588147 0,0 -5.4892303,0 -5.4892303,0 0.1568352,-0.235259 0.1450725,-0.333284 0.4489406,-0.472479 z"
     style="fill:#73778d;fill-opacity:1;stroke:none;stroke-width:1" />
</svg>
