<?xml version="1.0" encoding="UTF-8" standalone="no"?>
<svg
   xmlns:dc="http://purl.org/dc/elements/1.1/"
   xmlns:cc="http://creativecommons.org/ns#"
   xmlns:rdf="http://www.w3.org/1999/02/22-rdf-syntax-ns#"
   xmlns:svg="http://www.w3.org/2000/svg"
   xmlns="http://www.w3.org/2000/svg"
   viewBox="0 0 128 128"
   height="128"
   width="128"
   version="1.1"
   id="svg4204">
  <metadata
     id="metadata4210">
    <rdf:RDF>
      <cc:Work
         rdf:about="">
        <dc:format>image/svg+xml</dc:format>
        <dc:type
           rdf:resource="http://purl.org/dc/dcmitype/StillImage" />
        <dc:title></dc:title>
      </cc:Work>
    </rdf:RDF>
  </metadata>
  <defs
     id="defs4208" />
  <g
     id="g4754">
    <path
       id="path4770"
       d="m 0,64 0,-64 64,0 64,0 0,64 0,64 -64,0 -64,0 0,-64 z"
       style="fill:#fefefe" />
    <path
       id="path4768"
       d="M 31.5,111.84527 C 26.954251,109.35894 27,109.84639 27,63.897764 L 27,20.177787 30.076725,17.588894 33.153451,15 64,15 94.846549,15 97.923275,17.588894 101,20.177787 100.98631,57.338894 100.97262,94.5 91.843975,103.75 82.715333,113 58.107667,112.96959 C 42.236474,112.94998 32.789939,112.55081 31.5,111.84527 Z M 75,77 75,74 56.5,74 38,74 l 0,3 0,3 18.5,0 18.5,0 0,-3 z m 15,-15 0,-3 -26,0 -26,0 0,3 0,3 26,0 26,0 0,-3 z m 0,-15 0,-3 -26,0 -26,0 0,3 0,3 26,0 26,0 0,-3 z m 0,-14 0,-3 -26,0 -26,0 0,3 0,3 26,0 26,0 0,-3 z"
       style="fill:#d6e5f1" />
    <path
       id="path4766"
       d="M 32.356999,112.00842 C 26.986758,109.84126 27,109.95941 27,64.211752 27,37.082541 27.369954,21.177252 28.029644,19.944609 30.483326,15.359862 33.101201,15 64,15 94.898799,15 97.516674,15.359862 99.970356,19.944609 100.62236,21.162886 101,35.195272 101,58.204009 l 0,36.335492 -9.268789,9.230249 L 82.462422,113 58.481211,112.93661 c -13.189666,-0.0349 -24.945562,-0.45255 -26.124212,-0.92819 z M 75.813358,76.75 75.5,73.5 56.75,73.227935 38,72.955869 38,76.477935 38,80 57.063358,80 76.126717,80 75.813358,76.75 Z M 90,62 l 0,-3 -26,0 -26,0 0,3 0,3 26,0 26,0 0,-3 z m 0,-14.5 0,-3.5 -26,0 -26,0 0,3.5 0,3.5 26,0 26,0 0,-3.5 z m 0,-15 0,-3.5 -26,0 -26,0 0,3.5 0,3.5 26,0 26,0 0,-3.5 z"
       style="fill:#a7cae4" />
    <path
       id="path4764"
       d="m 31.775141,111.4412 c -1.498672,-0.8133 -3.186172,-2.3407 -3.75,-3.39422 C 27.372061,106.82669 27,91.027744 27,64.516082 c 0,-45.92759 0.04589,-46.290623 6.118839,-48.407665 4.332616,-1.510358 57.429706,-1.510358 61.762322,0 C 100.85647,18.191421 101,19.180412 101,58.269736 L 101,93.638791 91.914433,103.3194 82.828866,113 58.664433,112.96 c -19.372581,-0.0321 -24.704778,-0.33331 -26.889292,-1.5188 z M 76,76.5 76,73 56.5,73 37,73 l 0,3.5 0,3.5 19.5,0 19.5,0 0,-3.5 z M 90.813358,61.75 90.5,58.5 64,58.5 37.5,58.5 37.186642,61.75 36.873283,65 64,65 91.126717,65 90.813358,61.75 Z m 0,-14.5 L 91.126717,44 64.063358,44 37,44 l 0,2.833333 c 0,1.558334 0.307311,3.140644 0.682913,3.516246 0.375602,0.375603 12.413102,0.563103 26.75,0.416667 L 90.5,50.5 90.813358,47.25 Z m 0,-14.5 L 90.5,29.5 64,29.5 37.5,29.5 37.186642,32.75 36.873283,36 64,36 91.126717,36 90.813358,32.75 Z"
       style="fill:#92bcdd" />
    <path
       id="path4762"
       d="M 32.475761,111.60406 C 27.088746,109.25694 27,108.4778 27,63.529672 L 27,22.153451 29.588894,19.076725 32.177787,16 64,16 95.822213,16 98.411106,19.076725 101,22.153451 l 0,35.50504 0,35.50504 -9.174351,9.918239 L 82.651298,113 59.075649,112.96086 c -17.235467,-0.0286 -24.388955,-0.3935 -26.599888,-1.3568 z M 76,76.5 76,73 56.5,73 37,73 l 0,3.5 0,3.5 19.5,0 19.5,0 0,-3.5 z M 90.5,62 l 0,-3.5 -26.5,0 -26.5,0 -0.329081,2.322726 c -0.754719,5.32697 -1.277426,5.231449 27.054086,4.943926 L 90.5,65.5 90.5,62 Z M 91,47.5 91,44 l -27,0 -27,0 0,3.5 0,3.5 27,0 27,0 0,-3.5 z m 0,-15 0,-3.5 -27,0 -27,0 0,3.5 0,3.5 27,0 27,0 0,-3.5 z"
       style="fill:#71a9d3" />
    <path
       id="path4760"
       d="M 30.305764,109.58658 27.5,107.17317 27.5,64 27.5,20.826833 30.305764,18.413416 33.111527,16 64,16 l 30.888473,0 2.805763,2.412371 2.805764,2.412372 0.26653,36.337628 0.26652,36.337629 -9.158857,9.25 -9.15886,9.25 -24.801903,0 c -24.776372,0 -24.804791,-0.002 -27.607666,-2.41342 z M 76,76.5 76,73 56.5,73 37,73 l 0,3.5 0,3.5 19.5,0 19.5,0 0,-3.5 z M 91,62 l 0,-4 -27,0 -27,0 0,4 0,4 27,0 27,0 0,-4 z M 90.810365,47.25 90.5,43.5 64,43.5 37.5,43.5 37.189635,47.25 36.879269,51 64,51 91.120731,51 90.810365,47.25 Z M 91,33 l 0,-4 -27,0 -27,0 0,4 0,4 27,0 27,0 0,-4 z"
       style="fill:#4c94c9" />
    <path
       id="path4758"
       d="m 71.788996,106.25 c 2.742786,-3.1625 5.937311,-6.607244 7.098944,-7.654988 L 81,96.690025 81,104.34501 81,112 l -7.098944,0 -7.098945,0 4.986885,-5.75 z M 82.215775,103 82.5,93.5 91.25,93.211067 c 4.8125,-0.158913 8.75,0.07547 8.75,0.520849 0,0.445381 -4.065401,4.8504 -9.034225,9.788934 L 81.931551,112.5 82.215775,103 Z"
       style="fill:#4185bb" />
    <path
       id="path4756"
       d="m 83,102.5 0,-8.5 8.727922,0 8.727918,0 L 92,102.5 C 87.349286,107.175 83.421721,111 83.272078,111 83.122435,111 83,107.175 83,102.5 Z"
       style="fill:#3375a9" />
  </g>
</svg>
