<?xml version="1.0" encoding="UTF-8" standalone="no"?>
<svg
   xmlns:dc="http://purl.org/dc/elements/1.1/"
   xmlns:cc="http://creativecommons.org/ns#"
   xmlns:rdf="http://www.w3.org/1999/02/22-rdf-syntax-ns#"
   xmlns:svg="http://www.w3.org/2000/svg"
   xmlns="http://www.w3.org/2000/svg"
   width="18.290001"
   height="15"
   viewBox="0 0 14.632008 11.999992"
   id="svg6126"
   version="1.1">
  <metadata
     id="metadata6133">
    <rdf:RDF>
      <cc:Work
         rdf:about="">
        <dc:format>image/svg+xml</dc:format>
        <dc:type
           rdf:resource="http://purl.org/dc/dcmitype/StillImage" />
        <dc:title></dc:title>
      </cc:Work>
    </rdf:RDF>
  </metadata>
  <defs
     id="defs6131" />
  <path
     id="Selection"
     d="m 1.8137383,4.3157926 c 0.5403636,-0.467 1.423039,-0.3888 2.0954371,-0.3912 0,0 8.3132866,0 8.3132866,0 0.606381,0 1.789802,-0.091 2.203021,0.4254 0.471901,0.5893 0.0098,2.0808 -0.156486,2.7532 -0.242063,0.9951 -0.721299,4.1053004 -1.47194,4.6481004 -0.354538,0.2567 -0.890011,0.2347 -1.30812,0.242 0,0 -9.2913204,0 -9.2913204,0 -0.5550341,0 -1.57707927,0.091 -1.92183613,-0.3912 -0.54036359,-0.6626 0.11980912,-2.0441004 0,-2.9903004 0,0 -0.26406909,-1.2861 -0.26406909,-1.2861 0,0 0,-5.3572 0,-5.3572 -0.0122254242,-0.5233 -0.08557794,-1.31060001 0.36920771,-1.67000001 0.47190124,-0.3692 1.93650661,-0.2959 2.55022271,-0.2861 2.4304136,0.046 2.0612059,1.21770001 3.6676262,1.80940001 0.6797334,0.2494 3.711638,0.1345 4.64566,0.1467 0.525693,0.01 1.349687,-0.027 1.714004,0.4254 0.266514,0.3301 0.229838,0.8852 0.242064,1.2862 0,0 -1.041606,-0.7409 -1.041606,-0.7409 -0.755531,-0.3839 -3.3644364,-0.2347 -4.3375799,-0.2372 -0.6503924,0 -1.3594668,0.047 -1.9560673,-0.2494 -1.0489411,-0.5232 -1.3423512,-1.46460001 -2.6895926,-1.67000001 -0.5990456,-0.093 -1.8460385,-0.1002 -2.29837903,0.35460001 -0.46945616,0.4694 -0.38876838,1.4328 -0.39121346,2.0538 -0.002445,1.5184 -0.16382064,3.4574 0.24450841,4.8902 0.0757976,-0.8998 0.40588388,-3.181 1.08317218,-3.7654 z m 2.0954371,0.3423 c 0,0 -1.5746341,0.2494 -1.5746341,0.2494 0,0 -0.7115195,1.7067 -0.7115195,1.7067 0,0 -0.89245568,4.6456004 -0.89245568,4.6456004 0,0 10.26935388,0 10.26935388,0 0,0 1.484166,-0.3912 1.484166,-0.3912 0,0 0.625941,-1.8094004 0.625941,-1.8094004 0,0 1.068502,-4.4011 1.068502,-4.4011 0,0 -10.2693536,0 -10.2693536,0 z"
     style="fill:#708090;fill-opacity:1;stroke:none;stroke-width:1" />
</svg>
