<?xml version="1.0" standalone="no"?><!-- Generator: Gravit.io --><svg xmlns="http://www.w3.org/2000/svg" xmlns:xlink="http://www.w3.org/1999/xlink" style="isolation:isolate" viewBox="0 0 222 109.47" width="222" height="109.47"><defs><clipPath id="_clipPath_voGkhFNWmfvMvtNjDaqTq1Ml5UgLLQzN"><rect width="222" height="109.47"/></clipPath></defs><g clip-path="url(#_clipPath_voGkhFNWmfvMvtNjDaqTq1Ml5UgLLQzN)"><rect x="0" y="0" width="222" height="109.47" transform="matrix(1,0,0,1,0,0)" fill="rgb(235,255,241)"/><g id="Group"><path d="M 9.864 0 L 212.136 0 C 217.58 0 222 4.42 222 9.864 L 222 99.603 C 222 105.047 217.58 109.468 212.136 109.468 L 9.864 109.468 C 4.42 109.468 0 105.047 0 99.603 L 0 9.864 C 0 4.42 4.42 0 9.864 0 Z" style="stroke:none;fill:#C9DADF;stroke-miterlimit:10;"/><g id="Group"><path d="M 19.287 8.602 L 204.091 8.602 C 207.126 8.602 209.59 11.066 209.59 14.101 L 209.59 90.4 C 209.59 93.435 207.126 95.898 204.091 95.898 L 19.287 95.898 C 16.253 95.898 13.789 93.435 13.789 90.4 L 13.789 14.101 C 13.789 11.066 16.253 8.602 19.287 8.602 Z" style="stroke:none;fill:#A66C8B;stroke-miterlimit:10;"/><path d=" M 107.476 29.274 L 107.476 29.274 Q 109.162 29.274 110.155 30.394 L 110.155 30.394 L 110.155 30.394 Q 111.148 31.514 111.148 33.37 L 111.148 33.37 L 111.148 70.938 L 111.148 70.938 Q 111.148 72.794 110.125 73.946 L 110.125 73.946 L 110.125 73.946 Q 109.101 75.098 107.476 75.098 L 107.476 75.098 L 107.476 75.098 Q 105.551 75.098 104.527 73.626 L 104.527 73.626 L 82.56 43.226 L 82.56 70.938 L 82.56 70.938 Q 82.56 72.794 81.597 73.946 L 81.597 73.946 L 81.597 73.946 Q 80.634 75.098 78.949 75.098 L 78.949 75.098 L 78.949 75.098 Q 77.263 75.098 76.3 73.946 L 76.3 73.946 L 76.3 73.946 Q 75.337 72.794 75.337 70.938 L 75.337 70.938 L 75.337 33.37 L 75.337 33.37 Q 75.337 31.514 76.361 30.394 L 76.361 30.394 L 76.361 30.394 Q 77.384 29.274 79.069 29.274 L 79.069 29.274 L 79.069 29.274 Q 80.935 29.274 81.958 30.746 L 81.958 30.746 L 103.865 61.018 L 103.865 33.37 L 103.865 33.37 Q 103.865 31.514 104.858 30.394 L 104.858 30.394 L 104.858 30.394 Q 105.851 29.274 107.476 29.274 L 107.476 29.274 Z  M 133.055 75.226 L 133.055 75.226 Q 128.541 75.226 125.141 73.242 L 125.141 73.242 L 125.141 73.242 Q 121.74 71.258 119.875 67.546 L 119.875 67.546 L 119.875 67.546 Q 118.009 63.834 118.009 58.906 L 118.009 58.906 L 118.009 58.906 Q 118.009 53.978 119.875 50.298 L 119.875 50.298 L 119.875 50.298 Q 121.74 46.618 125.141 44.634 L 125.141 44.634 L 125.141 44.634 Q 128.541 42.65 133.055 42.65 L 133.055 42.65 L 133.055 42.65 Q 137.569 42.65 140.97 44.634 L 140.97 44.634 L 140.97 44.634 Q 144.37 46.618 146.206 50.298 L 146.206 50.298 L 146.206 50.298 Q 148.041 53.978 148.041 58.906 L 148.041 58.906 L 148.041 58.906 Q 148.041 63.834 146.206 67.546 L 146.206 67.546 L 146.206 67.546 Q 144.37 71.258 140.97 73.242 L 140.97 73.242 L 140.97 73.242 Q 137.569 75.226 133.055 75.226 L 133.055 75.226 Z  M 132.995 69.018 L 132.995 69.018 Q 136.666 69.018 138.592 66.458 L 138.592 66.458 L 138.592 66.458 Q 140.518 63.898 140.518 58.906 L 140.518 58.906 L 140.518 58.906 Q 140.518 53.978 138.592 51.386 L 138.592 51.386 L 138.592 51.386 Q 136.666 48.794 133.055 48.794 L 133.055 48.794 L 133.055 48.794 Q 129.444 48.794 127.488 51.386 L 127.488 51.386 L 127.488 51.386 Q 125.532 53.978 125.532 58.906 L 125.532 58.906 L 125.532 58.906 Q 125.532 63.898 127.458 66.458 L 127.458 66.458 L 127.458 66.458 Q 129.384 69.018 132.995 69.018 L 132.995 69.018 Z " fill-rule="evenodd" fill="rgb(255,255,255)"/></g></g></g></svg>