<?xml version="1.0" standalone="no"?><!-- Generator: Gravit.io --><svg xmlns="http://www.w3.org/2000/svg" xmlns:xlink="http://www.w3.org/1999/xlink" style="isolation:isolate" viewBox="0 0 222 109.47" width="222" height="109.47"><defs><clipPath id="_clipPath_4GadU0u2Zaac1soIVwdrAqUXRwkE1KKS"><rect width="222" height="109.47"/></clipPath></defs><g clip-path="url(#_clipPath_4GadU0u2Zaac1soIVwdrAqUXRwkE1KKS)"><rect x="0" y="0" width="222" height="109.47" transform="matrix(1,0,0,1,0,0)" fill="rgb(235,255,241)"/><g id="Group"><path d="M 9.864 0 L 212.136 0 C 217.58 0 222 4.42 222 9.864 L 222 99.603 C 222 105.047 217.58 109.468 212.136 109.468 L 9.864 109.468 C 4.42 109.468 0 105.047 0 99.603 L 0 9.864 C 0 4.42 4.42 0 9.864 0 Z" style="stroke:none;fill:#C9DADF;stroke-miterlimit:10;"/><g id="Group"><path d="M 19.287 8.602 L 204.091 8.602 C 207.126 8.602 209.59 11.066 209.59 14.101 L 209.59 90.4 C 209.59 93.435 207.126 95.898 204.091 95.898 L 19.287 95.898 C 16.253 95.898 13.789 93.435 13.789 90.4 L 13.789 14.101 C 13.789 11.066 16.253 8.602 19.287 8.602 Z" style="stroke:none;fill:#6C9AA6;stroke-miterlimit:10;"/><path d=" M 101.277 76.89 L 101.277 76.89 Q 96.643 76.89 92.52 75.578 L 92.52 75.578 L 92.52 75.578 Q 88.398 74.266 85.81 72.026 L 85.81 72.026 L 85.81 72.026 Q 84.425 70.938 84.425 68.954 L 84.425 68.954 L 84.425 68.954 Q 84.425 67.61 85.178 66.618 L 85.178 66.618 L 85.178 66.618 Q 85.93 65.626 86.953 65.626 L 86.953 65.626 L 86.953 65.626 Q 88.037 65.626 89.421 66.522 L 89.421 66.522 L 89.421 66.522 Q 92.009 68.506 94.838 69.402 L 94.838 69.402 L 94.838 69.402 Q 97.666 70.298 101.097 70.298 L 101.097 70.298 L 101.097 70.298 Q 105.49 70.298 107.838 68.666 L 107.838 68.666 L 107.838 68.666 Q 110.185 67.034 110.185 63.898 L 110.185 63.898 L 110.185 63.898 Q 110.185 61.466 107.988 60.154 L 107.988 60.154 L 107.988 60.154 Q 105.791 58.842 100.676 57.626 L 100.676 57.626 L 100.676 57.626 Q 95.379 56.41 92.069 54.81 L 92.069 54.81 L 92.069 54.81 Q 88.759 53.21 87.074 50.714 L 87.074 50.714 L 87.074 50.714 Q 85.388 48.218 85.388 44.378 L 85.388 44.378 L 85.388 44.378 Q 85.388 40.41 87.495 37.274 L 87.495 37.274 L 87.495 37.274 Q 89.601 34.138 93.363 32.378 L 93.363 32.378 L 93.363 32.378 Q 97.125 30.618 101.819 30.618 L 101.819 30.618 L 101.819 30.618 Q 110.426 30.618 115.842 35.482 L 115.842 35.482 L 115.842 35.482 Q 116.625 36.186 116.956 36.858 L 116.956 36.858 L 116.956 36.858 Q 117.287 37.53 117.287 38.554 L 117.287 38.554 L 117.287 38.554 Q 117.287 39.898 116.534 40.89 L 116.534 40.89 L 116.534 40.89 Q 115.782 41.882 114.759 41.882 L 114.759 41.882 L 114.759 41.882 Q 114.157 41.882 113.645 41.69 L 113.645 41.69 L 113.645 41.69 Q 113.134 41.498 112.291 40.986 L 112.291 40.986 L 112.291 40.986 Q 109.824 39.066 107.507 38.138 L 107.507 38.138 L 107.507 38.138 Q 105.189 37.21 101.819 37.21 L 101.819 37.21 L 101.819 37.21 Q 97.726 37.21 95.349 38.97 L 95.349 38.97 L 95.349 38.97 Q 92.972 40.73 92.972 43.866 L 92.972 43.866 L 92.972 43.866 Q 92.972 46.49 95.078 47.898 L 95.078 47.898 L 95.078 47.898 Q 97.185 49.306 102.24 50.522 L 102.24 50.522 L 102.24 50.522 Q 107.597 51.802 110.937 53.37 L 110.937 53.37 L 110.937 53.37 Q 114.277 54.938 116.053 57.37 L 116.053 57.37 L 116.053 57.37 Q 117.828 59.802 117.828 63.45 L 117.828 63.45 L 117.828 63.45 Q 117.828 67.418 115.752 70.458 L 115.752 70.458 L 115.752 70.458 Q 113.676 73.498 109.914 75.194 L 109.914 75.194 L 109.914 75.194 Q 106.152 76.89 101.277 76.89 L 101.277 76.89 Z  M 128.06 76.698 L 128.06 76.698 Q 126.435 76.698 125.382 75.706 L 125.382 75.706 L 125.382 75.706 Q 124.328 74.714 124.328 72.858 L 124.328 72.858 L 124.328 48.154 L 124.328 48.154 Q 124.328 46.298 125.382 45.338 L 125.382 45.338 L 125.382 45.338 Q 126.435 44.378 128.06 44.378 L 128.06 44.378 L 128.06 44.378 Q 129.685 44.378 130.768 45.338 L 130.768 45.338 L 130.768 45.338 Q 131.852 46.298 131.852 48.154 L 131.852 48.154 L 131.852 72.858 L 131.852 72.858 Q 131.852 74.714 130.768 75.706 L 130.768 75.706 L 130.768 75.706 Q 129.685 76.698 128.06 76.698 L 128.06 76.698 Z  M 129.565 40.73 L 129.565 40.73 Q 128.902 41.242 128.24 41.242 L 128.24 41.242 L 128.24 41.242 Q 127.398 41.242 126.826 40.634 L 126.826 40.634 L 126.826 40.634 Q 126.254 40.026 126.254 39.194 L 126.254 39.194 L 126.254 39.194 Q 126.254 38.49 126.736 37.786 L 126.736 37.786 L 132.574 29.53 L 132.574 29.53 Q 133.958 27.61 135.764 27.61 L 135.764 27.61 L 135.764 27.61 Q 137.088 27.61 138.021 28.602 L 138.021 28.602 L 138.021 28.602 Q 138.953 29.594 138.953 30.938 L 138.953 30.938 L 138.953 30.938 Q 138.953 32.73 137.328 34.01 L 137.328 34.01 L 129.565 40.73 Z " fill-rule="evenodd" fill="rgb(255,255,255)"/></g></g></g></svg>