<?xml version="1.0" standalone="no"?><!-- Generator: Gravit.io --><svg xmlns="http://www.w3.org/2000/svg" xmlns:xlink="http://www.w3.org/1999/xlink" style="isolation:isolate" viewBox="0 0 222 109.47" width="222" height="109.47"><defs><clipPath id="_clipPath_mv31z7Fm5m27NPZglgAwgFmAbQJkvnAO"><rect width="222" height="109.47"/></clipPath></defs><g clip-path="url(#_clipPath_mv31z7Fm5m27NPZglgAwgFmAbQJkvnAO)"><rect x="0" y="0" width="222" height="109.47" transform="matrix(1,0,0,1,0,0)" fill="rgb(235,255,241)"/><g id="Group"><path d="M 9.864 0 L 212.136 0 C 217.58 0 222 4.42 222 9.864 L 222 99.603 C 222 105.047 217.58 109.468 212.136 109.468 L 9.864 109.468 C 4.42 109.468 0 105.047 0 99.603 L 0 9.864 C 0 4.42 4.42 0 9.864 0 Z" style="stroke:none;fill:#C9DADF;stroke-miterlimit:10;"/><g id="Group"><path d="M 19.287 8.602 L 204.091 8.602 C 207.126 8.602 209.59 11.066 209.59 14.101 L 209.59 90.4 C 209.59 93.435 207.126 95.898 204.091 95.898 L 19.287 95.898 C 16.253 95.898 13.789 93.435 13.789 90.4 L 13.789 14.101 C 13.789 11.066 16.253 8.602 19.287 8.602 Z" style="stroke:none;fill:#6CA69E;stroke-miterlimit:10;"/><path d=" M 94.356 30.682 L 94.356 30.682 Q 95.439 29.274 96.944 29.274 L 96.944 29.274 L 96.944 29.274 Q 98.328 29.274 99.412 30.394 L 99.412 30.394 L 99.412 30.394 Q 100.495 31.514 100.495 33.05 L 100.495 33.05 L 100.495 33.05 Q 100.495 34.33 99.592 35.482 L 99.592 35.482 L 85.93 53.21 L 85.93 70.938 L 85.93 70.938 Q 85.93 72.922 84.847 74.01 L 84.847 74.01 L 84.847 74.01 Q 83.763 75.098 82.078 75.098 L 82.078 75.098 L 82.078 75.098 Q 80.333 75.098 79.249 74.01 L 79.249 74.01 L 79.249 74.01 Q 78.166 72.922 78.166 70.938 L 78.166 70.938 L 78.166 53.21 L 64.504 35.482 L 64.504 35.482 Q 63.601 34.33 63.601 33.05 L 63.601 33.05 L 63.601 33.05 Q 63.601 31.514 64.685 30.394 L 64.685 30.394 L 64.685 30.394 Q 65.768 29.274 67.152 29.274 L 67.152 29.274 L 67.152 29.274 Q 68.657 29.274 69.74 30.682 L 69.74 30.682 L 82.078 46.938 L 94.356 30.682 Z  M 128 66.138 L 128 66.138 Q 129.023 66.138 129.655 66.97 L 129.655 66.97 L 129.655 66.97 Q 130.287 67.802 130.287 69.21 L 130.287 69.21 L 130.287 69.21 Q 130.287 71.194 128.06 72.538 L 128.06 72.538 L 128.06 72.538 Q 126.014 73.754 123.426 74.49 L 123.426 74.49 L 123.426 74.49 Q 120.838 75.226 118.49 75.226 L 118.49 75.226 L 118.49 75.226 Q 111.389 75.226 107.236 70.874 L 107.236 70.874 L 107.236 70.874 Q 103.083 66.522 103.083 58.97 L 103.083 58.97 L 103.083 58.97 Q 103.083 54.17 104.888 50.458 L 104.888 50.458 L 104.888 50.458 Q 106.694 46.746 109.974 44.698 L 109.974 44.698 L 109.974 44.698 Q 113.254 42.65 117.407 42.65 L 117.407 42.65 L 117.407 42.65 Q 121.379 42.65 124.328 44.506 L 124.328 44.506 L 124.328 44.506 Q 127.277 46.362 128.902 49.754 L 128.902 49.754 L 128.902 49.754 Q 130.527 53.146 130.527 57.754 L 130.527 57.754 L 130.527 57.754 Q 130.527 60.506 128.24 60.506 L 128.24 60.506 L 110.486 60.506 L 110.486 60.506 Q 110.847 64.922 112.833 67.002 L 112.833 67.002 L 112.833 67.002 Q 114.819 69.082 118.611 69.082 L 118.611 69.082 L 118.611 69.082 Q 120.537 69.082 122.011 68.57 L 122.011 68.57 L 122.011 68.57 Q 123.486 68.058 125.352 67.162 L 125.352 67.162 L 125.352 67.162 Q 127.157 66.138 128 66.138 L 128 66.138 Z  M 117.588 48.282 L 117.588 48.282 Q 114.518 48.282 112.683 50.33 L 112.683 50.33 L 112.683 50.33 Q 110.847 52.378 110.486 56.218 L 110.486 56.218 L 124.088 56.218 L 124.088 56.218 Q 123.967 52.314 122.282 50.298 L 122.282 50.298 L 122.282 50.298 Q 120.597 48.282 117.588 48.282 L 117.588 48.282 Z  M 147.319 75.226 L 147.319 75.226 Q 140.759 75.226 136.727 72.474 L 136.727 72.474 L 136.727 72.474 Q 134.801 71.258 134.801 69.018 L 134.801 69.018 L 134.801 69.018 Q 134.801 67.738 135.463 66.938 L 135.463 66.938 L 135.463 66.938 Q 136.125 66.138 137.088 66.138 L 137.088 66.138 L 137.088 66.138 Q 138.111 66.138 139.916 67.162 L 139.916 67.162 L 139.916 67.162 Q 141.842 68.122 143.437 68.634 L 143.437 68.634 L 143.437 68.634 Q 145.032 69.146 147.5 69.146 L 147.5 69.146 L 147.5 69.146 Q 150.028 69.146 151.442 68.25 L 151.442 68.25 L 151.442 68.25 Q 152.856 67.354 152.856 65.754 L 152.856 65.754 L 152.856 65.754 Q 152.856 64.666 152.285 64.026 L 152.285 64.026 L 152.285 64.026 Q 151.713 63.386 150.238 62.842 L 150.238 62.842 L 150.238 62.842 Q 148.764 62.298 145.754 61.594 L 145.754 61.594 L 145.754 61.594 Q 140.398 60.442 138.081 58.33 L 138.081 58.33 L 138.081 58.33 Q 135.764 56.218 135.764 52.506 L 135.764 52.506 L 135.764 52.506 Q 135.764 49.69 137.328 47.418 L 137.328 47.418 L 137.328 47.418 Q 138.893 45.146 141.632 43.898 L 141.632 43.898 L 141.632 43.898 Q 144.37 42.65 147.861 42.65 L 147.861 42.65 L 147.861 42.65 Q 150.389 42.65 152.736 43.322 L 152.736 43.322 L 152.736 43.322 Q 155.083 43.994 156.949 45.274 L 156.949 45.274 L 156.949 45.274 Q 158.875 46.554 158.875 48.666 L 158.875 48.666 L 158.875 48.666 Q 158.875 49.946 158.213 50.81 L 158.213 50.81 L 158.213 50.81 Q 157.551 51.674 156.588 51.674 L 156.588 51.674 L 156.588 51.674 Q 155.926 51.674 155.294 51.386 L 155.294 51.386 L 155.294 51.386 Q 154.662 51.098 153.699 50.522 L 153.699 50.522 L 153.699 50.522 Q 151.953 49.562 150.69 49.082 L 150.69 49.082 L 150.69 49.082 Q 149.426 48.602 147.56 48.602 L 147.56 48.602 L 147.56 48.602 Q 145.333 48.602 144.039 49.562 L 144.039 49.562 L 144.039 49.562 Q 142.745 50.522 142.745 52.186 L 142.745 52.186 L 142.745 52.186 Q 142.745 53.786 144.069 54.618 L 144.069 54.618 L 144.069 54.618 Q 145.393 55.45 149.185 56.282 L 149.185 56.282 L 149.185 56.282 Q 153.217 57.178 155.504 58.33 L 155.504 58.33 L 155.504 58.33 Q 157.791 59.482 158.785 61.21 L 158.785 61.21 L 158.785 61.21 Q 159.778 62.938 159.778 65.626 L 159.778 65.626 L 159.778 65.626 Q 159.778 69.978 156.377 72.602 L 156.377 72.602 L 156.377 72.602 Q 152.977 75.226 147.319 75.226 L 147.319 75.226 Z " fill-rule="evenodd" fill="rgb(255,255,255)"/></g></g></g></svg>