<?xml version="1.0" encoding="UTF-8" standalone="no"?>
<svg
   xmlns:dc="http://purl.org/dc/elements/1.1/"
   xmlns:cc="http://creativecommons.org/ns#"
   xmlns:rdf="http://www.w3.org/1999/02/22-rdf-syntax-ns#"
   xmlns:svg="http://www.w3.org/2000/svg"
   xmlns="http://www.w3.org/2000/svg"
   xmlns:sodipodi="http://sodipodi.sourceforge.net/DTD/sodipodi-0.dtd"
   xmlns:inkscape="http://www.inkscape.org/namespaces/inkscape"
   version="1.1"
   id="svg4158"
   viewBox="0 0 250 250"
   height="250"
   width="250"
   inkscape:version="0.48.4 r9939"
   sodipodi:docname="logo.svg">
  <sodipodi:namedview
     pagecolor="#ffffff"
     bordercolor="#666666"
     borderopacity="1"
     objecttolerance="10"
     gridtolerance="10"
     guidetolerance="10"
     inkscape:pageopacity="0"
     inkscape:pageshadow="2"
     inkscape:window-width="1366"
     inkscape:window-height="658"
     id="namedview13"
     showgrid="false"
     inkscape:zoom="0.944"
     inkscape:cx="125"
     inkscape:cy="125"
     inkscape:window-x="0"
     inkscape:window-y="30"
     inkscape:window-maximized="1"
     inkscape:current-layer="svg4158" />
  <defs
     id="defs4160">
    <filter
       id="a">
      <feOffset
         dy="-250"
         in="SourceGraphic"
         result="b"
         id="feOffset4804" />
      <feColorMatrix
         in="b"
         result="b"
         type="matrix"
         values="0 0 0 0 0 0 0 0 0 0 0 0 0 0 0 0 0 1 0 0"
         id="feColorMatrix4806" />
      <feComposite
         in="SourceGraphic"
         in2="b"
         operator="in"
         id="feComposite4808" />
    </filter>
  </defs>
  <metadata
     id="metadata4163">
    <rdf:RDF>
      <cc:Work
         rdf:about="">
        <dc:format>image/svg+xml</dc:format>
        <dc:type
           rdf:resource="http://purl.org/dc/dcmitype/StillImage" />
        <dc:title />
      </cc:Work>
    </rdf:RDF>
  </metadata>
  <g
     id="g3001">
    <path
       style="fill:#fcfcfd"
       d="M 0,125 0,0 l 125,0 125,0 0,125 0,125 -125,0 -125,0 0,-125 z"
       id="path3017"
       inkscape:connector-curvature="0" />
    <path
       style="fill:#b4bbc4"
       d="M 0,125 0,0 l 125,0 125,0 0,125 0,125 -125,0 -125,0 0,-125 z m 109.14408,33.75 c 8.4848,-23.2375 15.7796,-42.25 16.21068,-42.25 0.43108,0 8.05919,19.0125 16.95137,42.25 8.89218,23.2375 16.6644,42.25 17.27161,42.25 0.6072,0 9.10748,-22.8375 18.8895,-50.75 25.91392,-73.944013 26.2557,-74.839085 29.67609,-77.71715 1.62074,-1.363764 4.72652,-3.012788 6.90174,-3.664498 C 217.22028,68.216642 219,67.079654 219,66.341712 219,65.2653 215.14422,65 199.5,65 183.3728,65 180,65.244243 180,66.412102 c 0,0.885854 1.58385,1.670529 4.25,2.105549 8.68977,1.417858 10.16885,5.319773 7.1207,18.784944 -1.53887,6.797964 -24.81451,71.299155 -26.33797,72.987515 -0.9677,1.07244 -31.92957,-78.258319 -32.67993,-83.732777 -0.53273,-3.886737 -0.32465,-4.52967 1.94792,-6.018717 1.3994,-0.916923 5.05422,-1.926173 8.12182,-2.242777 C 146.17648,67.908399 148,67.275517 148,66.360097 148,65.246884 143.09898,65 121,65 c -22.350594,0 -27,0.238748 -27,1.386456 0,0.876351 1.653893,1.634473 4.495246,2.06056 8.307644,1.245809 11.462544,5.51853 19.525464,26.443572 l 3.23309,8.390592 -4.7579,12.60941 C 103.32027,150.80869 99.700505,159.99923 99.126679,159.99086 97.772496,159.9711 67.672082,79.424454 67.609396,75.65277 67.532612,71.032814 69.256967,69.488472 75.545098,68.545508 78.444464,68.110721 80,67.375088 80,66.438727 80,65.22624 76.147372,65 55.5,65 36.40886,65 31,65.279336 31,66.265281 c 0,0.695904 2.237949,2.06013 4.973221,3.031612 3.116963,1.107048 5.895518,2.975526 7.444208,5.005964 4.882331,6.401065 12.432142,25.845753 36.671107,94.447143 6.267199,17.7375 11.8975,32.25 12.51178,32.25 0.614279,0 8.058974,-19.0125 16.543764,-42.25 z"
       id="path3015"
       inkscape:connector-curvature="0" />
    <path
       style="fill:#969fab"
       d="M 0,125 0,0 l 125,0 125,0 0,125 0,125 -125,0 -125,0 0,-125 z m 108.95608,34.75 c 8.4534,-23.2375 15.66957,-42.60058 16.03593,-43.02906 0.36636,-0.42848 8.05553,18.43872 17.08705,41.92711 9.03152,23.48839 16.87822,42.85389 17.43711,43.03445 0.55889,0.18055 9.95903,-25.21165 20.88919,-56.42711 10.93016,-31.21546 21.20261,-60.018441 22.82766,-64.006614 3.209,-7.875489 5.91976,-10.674283 11.89753,-12.283929 C 217.38274,68.358394 219,67.312089 219,66.461456 219,65.22823 215.87668,65 199,65 c -16.83422,0 -20,0.230261 -20,1.454687 0,0.906042 1.41434,1.684366 3.75,2.063663 9.86062,1.601303 11.29564,4.107317 9.04076,15.78809 -1.25946,6.524262 -23.778,70.21475 -26.66858,75.42827 -0.57138,1.03055 -26.53845,-63.656011 -31.71654,-79.009056 -2.79296,-8.281121 -0.72109,-10.95165 9.5541,-12.314701 C 146.23775,67.97611 148,67.26293 148,66.371169 148,65.243466 143.20585,65 121,65 c -22.58638,0 -27,0.230833 -27,1.412102 0,0.85795 1.504498,1.666286 3.833796,2.059818 8.719444,1.47314 11.295254,4.771614 19.178654,24.559333 l 4.06144,10.194417 -10.75734,28.36677 C 104.40001,147.19416 99.251004,159.63088 98.874318,159.2296 98.235032,158.54858 70.451928,86.086402 68.304772,79.5 66.747029,74.721626 68.407619,70.272835 72.008486,69.577591 73.653819,69.259916 76.35,68.739245 78,68.420545 c 1.653482,-0.319373 3,-1.217052 3,-2 C 81,65.231033 76.934078,65 56,65 c -21.412614,0 -25,0.212509 -25,1.480948 0,0.814521 1.2375,1.772327 2.75,2.128457 10.816355,2.546798 13.16904,7.478036 41.142132,86.234095 C 91.594881,201.86878 91.644858,202 92.85215,202 c 0.403764,0 7.65053,-19.0125 16.10393,-42.25 z"
       id="path3013"
       inkscape:connector-curvature="0" />
    <path
       style="fill:#788493"
       d="M 0,125 0,0 l 125,0 125,0 0,125 0,125 -125,0 -125,0 0,-125 z m 108.95552,35.25 c 8.37883,-22.9625 15.55107,-42.31991 15.93832,-43.01646 0.39789,-0.7157 7.85457,17.44074 17.14633,41.75 C 151.0834,182.64259 158.97825,202 159.58427,202 c 0.60602,0 9.5713,-24.1875 19.92285,-53.75 10.35155,-29.5625 20.57682,-58.352969 22.72282,-63.97882 4.15731,-10.898571 6.19718,-13.28817 12.80507,-15.000445 1.96584,-0.509402 3.60232,-1.626047 3.78678,-2.583906 C 219.11783,65.149624 217.36612,65 199.07332,65 182.58224,65 179,65.248594 179,66.393011 179,68.061588 181.14932,69 184.971,69 c 1.54409,0 3.86978,0.861137 5.16822,1.913638 1.9694,1.596388 2.33571,2.757523 2.20958,7.003929 -0.0832,2.799661 -0.70901,7.451024 -1.39076,10.336362 -1.00176,4.239629 -25.41166,71.563871 -26.22715,72.336341 -0.43228,0.40947 -30.81178,-78.070089 -31.93658,-82.501963 -1.05674,-4.163748 -0.97516,-4.535991 1.45153,-6.623347 1.6326,-1.404302 4.61234,-2.466678 8.16268,-2.910263 C 146.2607,68.073398 148,67.411876 148,66.428044 148,65.225271 143.66192,65 120.5,65 97.483008,65 93,65.230199 93,66.412102 c 0,0.883862 1.589843,1.676258 4.25,2.118248 9.33307,1.550707 11.55286,4.254261 19.16103,23.336854 l 4.53207,11.367206 -10.72155,28.32347 C 104.3247,147.1358 99.221747,159.57055 98.88166,159.19068 97.014721,157.10533 68,78.545992 68,75.576481 68,71.589277 70.811428,69 75.140719,69 78.856115,69 81,68.046114 81,66.393011 81,65.239368 76.691528,65 55.926676,65 c -22.983367,0 -25.046247,0.140604 -24.748471,1.686829 0.186062,0.966142 1.819552,2.067889 3.823324,2.578734 9.706321,2.474544 12.924494,9.534705 42.612208,93.484437 7.634135,21.5875 14.381386,39.25 14.993893,39.25 0.612506,0 7.96906,-18.7875 16.34789,-41.75 z"
       id="path3011"
       inkscape:connector-curvature="0" />
    <path
       style="fill:#687687"
       d="M 0,125 0,0 l 125,0 125,0 0,125 0,125 -125,0 -125,0 0,-125 z m 94,76.71247 c 0,-0.51256 30.97499,-85.02079 31.27156,-85.31737 0.15799,-0.15798 7.67416,19.03849 16.70259,42.65883 C 152.01751,185.32952 158.89615,202 159.69474,202 160.41263,202 161,201.84366 161,201.65258 161,200.69054 203.20149,81.33293 204.89637,77.50137 206.79887,73.200447 210.1745,70.767925 217.25,68.599172 218.2125,68.304151 219,67.373646 219,66.531385 219,65.207065 216.2858,65 198.92668,65 c -18.53217,0 -20.04761,0.133538 -19.73837,1.739309 0.23972,1.244761 1.72584,1.938265 5.22665,2.439033 2.69042,0.384849 5.54129,1.349336 6.33526,2.143305 1.71699,1.716993 1.84367,9.002239 0.28139,16.183276 -1.09059,5.012912 -24.76529,70.311067 -26.02351,71.776487 -0.70637,0.82269 -30.07514,-73.612977 -32.02824,-81.176121 -1.00319,-3.884764 -0.91589,-4.613707 0.75241,-6.282003 1.03801,-1.038009 3.66039,-2.12704 5.82751,-2.420067 C 146.66688,68.442231 148,67.980664 148,66.480948 148,65.208919 144.12054,65 120.5,65 97.660938,65 93,65.2361 93,66.393011 93,68.012884 95.132303,69 98.631447,69 c 4.061203,0 8.139633,2.750984 10.756643,7.255569 2.7233,4.687547 10.70574,24.289261 10.8778,26.711581 0.13508,1.90165 -20.315042,56.04172 -21.156253,56.00951 -1.186168,-0.0454 -31.154334,-80.523781 -31.132155,-83.604215 0.02868,-3.983714 1.72791,-5.353055 7.703308,-6.207799 3.416278,-0.488677 4.892297,-1.18638 5.130898,-2.425337 C 81.122743,65.124128 79.352026,65 56,65 c -22.495021,0 -25.112555,0.168322 -24.823324,1.596277 0.177828,0.877952 2.088266,2.201548 4.245418,2.941325 2.157152,0.739777 5.220219,2.643173 6.806816,4.229769 4.208908,4.208909 12.386886,24.617402 32.001401,79.860869 C 84.93554,183.77906 91.893741,202 92.702495,202 93.416123,202 94,201.87061 94,201.71247 z"
       id="path3009"
       inkscape:connector-curvature="0" />
    <path
       style="fill:#526175"
       d="M 0,125 0,0 l 125,0 125,0 0,125 0,125 -125,0 -125,0 0,-125 z m 95.802722,71.75 c 1.070531,-2.8875 8.147788,-22.24258 15.727228,-43.01129 7.57944,-20.76871 13.86676,-37.64371 13.97181,-37.5 0.10505,0.14371 7.53072,19.49879 16.50149,43.01129 9.46673,24.81244 16.83461,42.75 17.55962,42.75 0.68702,0 1.91809,-1.9125 2.73571,-4.25 C 184.69895,133.70974 203.43576,81.051162 205.02501,77.670188 207.15522,73.138346 212.81664,69 216.88615,69 218.33333,69 219,68.369238 219,67 c 0,-1.933577 -0.66667,-2 -20.07332,-2 -18.57896,0 -20.04828,0.13028 -19.73689,1.75 0.22965,1.194552 1.60187,1.926085 4.32332,2.304774 7.23037,1.006104 8.48689,2.277308 8.48689,8.586065 0,3.06376 -0.70439,8.288805 -1.56531,11.611213 -1.46946,5.670826 -23.55206,66.348358 -25.25171,69.385468 -0.74054,1.32327 -26.91787,-63.767482 -31.35366,-77.961849 C 131.11681,71.995747 133.61482,69 143.5651,69 147.33333,69 148,68.699354 148,67 c 0,-1.951644 -0.66667,-2 -27.57332,-2 -25.657468,0 -27.550054,0.120851 -27.238368,1.739309 0.236446,1.227767 1.694178,1.933736 4.956481,2.400388 6.778657,0.969644 9.381617,3.185442 13.160507,11.202992 3.72559,7.904491 9.02877,21.484281 9.02673,23.114681 -0.003,2.41454 -20.79359,55.47998 -21.467947,54.79434 C 97.145956,156.50482 68,78.254298 68,75.388386 c 0,-3.995353 1.693052,-5.367231 7.68079,-6.22374 3.416278,-0.488677 4.892297,-1.18638 5.130898,-2.425337 C 81.122722,65.124237 79.355689,65 56.073324,65 31.666667,65 31,65.053177 31,67 c 0,1.349486 0.666667,2 2.04966,2 1.127313,0 3.354051,0.674527 4.948307,1.498949 7.631945,3.946632 11.086655,12.119396 41.531718,98.251051 7.193986,20.35239 12.252085,33.25 13.039768,33.25 0.707767,0 2.162738,-2.3625 3.233269,-5.25 z"
       id="path3007"
       inkscape:connector-curvature="0" />
    <path
       style="fill:#35485e"
       d="M 0,125 0,0 l 125,0 125,0 0,125 0,125 -125,0 -125,0 0,-125 z m 109.4499,34.72772 c 8.39373,-22.97475 15.47943,-41.99039 15.74601,-42.25696 0.26658,-0.26658 7.81139,18.64345 16.76626,42.02228 C 151.47104,184.31822 158.76655,202 159.50055,202 c 1.62049,0 0.22174,3.73174 23.90823,-63.7848 11.24627,-32.05665 21.29188,-59.730117 22.32356,-61.496606 C 207.99913,72.837312 213.42581,69 216.64788,69 218.49014,69 219,68.458085 219,66.5 l 0,-2.5 -20,0 -20,0 0,2.5 c 0,2.082031 0.47661,2.5 2.85078,2.5 4.9566,0 9.10916,1.992215 9.78769,4.695701 0.98704,3.932682 -0.3946,13.727805 -3.04605,21.594972 -1.33636,3.96513 -7.26594,20.215837 -13.17684,36.112677 l -10.7471,28.90334 -4.86703,-12.40334 C 130.09651,72.201969 130.45566,73.367092 135.95034,70.52568 137.57303,69.686556 140.94803,69 143.45034,69 147.64439,69 148,68.803341 148,66.483928 l 0,-2.516072 -27.25,0.266072 c -26.437627,0.25814 -27.25,0.325327 -27.25,2.253716 0,1.615778 0.910148,2.117836 4.864785,2.683522 2.936525,0.42005 5.867735,1.614065 7.395115,3.012355 2.79862,2.562097 8.80613,14.692928 12.35697,24.952164 l 2.29669,6.635685 -7.69594,20.36431 C 98.568083,161.57695 99.334064,159.84403 98.191019,157 88.267744,132.30975 68,77.384771 68,75.183248 68,71.299437 70.020088,69.800572 76.033179,69.22279 80.459345,68.797492 81,68.487257 81,66.372771 L 81,64 l -25,0 -25,0 0,2.388709 c 0,1.924638 0.660261,2.512575 3.398553,3.026282 10.499011,1.969626 11.177074,3.54676 55.842423,129.886069 0.581525,1.64488 1.600607,2.67679 2.468933,2.5 0.957484,-0.19495 6.85776,-15.02437 16.739991,-42.07334 z"
       id="path3005"
       inkscape:connector-curvature="0" />
    <path
       style="fill:#182d48"
       d="M 0,125 0,0 l 125,0 125,0 0,125 0,125 -125,0 -125,0 0,-125 z m 109.66209,34.59332 c 8.42487,-23.04868 15.44959,-42.03833 15.61049,-42.19923 0.1609,-0.1609 7.55922,18.69711 16.44071,41.90668 12.59189,32.90577 16.52567,42.19923 17.86227,42.19923 1.3646,0 5.75693,-11.51991 21.54242,-56.5 23.69444,-67.516314 24.29596,-69.1008 27.30684,-71.929373 1.29885,-1.220201 4.32211,-2.797435 6.71836,-3.504964 3.15147,-0.930519 4.35682,-1.809195 4.35682,-3.176039 0,-1.78171 -1.15645,-1.905084 -20.25,-2.160329 L 179,63.958589 l 0,2.390653 c 0,2.094722 0.56206,2.454006 4.54058,2.902442 6.23029,0.702244 8.45942,2.944429 8.45942,8.508959 0,7.000032 -2.29824,14.470559 -15.23065,49.507947 l -12.09499,32.7686 -15.3796,-39.2686 c -8.45879,-21.597723 -15.64783,-41.403014 -15.97567,-44.011755 -0.59035,-4.697775 -0.56154,-4.757586 3.01031,-6.25 C 138.3129,69.678076 141.75022,69 143.96788,69 147.60214,69 148,68.753319 148,66.5 l 0,-2.5 -27.5,0 -27.5,0 0,2.5 c 0,2.153527 0.450414,2.500215 3.25,2.501554 4.50288,0.0022 9.80103,2.885785 12.36961,6.732425 C 110.95189,79.22674 120,101.16469 120,103.32675 120,106.10214 99.117388,159.42244 98.587516,158 98.280196,157.175 91.272283,138.80167 83.014376,117.17037 74.756469,95.539071 68.006891,76.864071 68.015313,75.670368 c 0.0084,-1.193702 0.35508,-2.704715 0.770352,-3.357807 C 69.824347,70.679041 74.527824,69 78.0651,69 80.528993,69 81,68.598788 81,66.5 l 0,-2.5 -25,0 -25,0 0,2.375 c 0,1.85329 0.677488,2.510498 3.084158,2.991832 9.974503,1.9949 12.607491,7.572724 39.950737,84.633168 8.684429,24.475 16.11092,45.30959 16.503315,46.29909 1.966094,4.9579 4.068065,0.48379 19.12388,-40.70577 z"
       id="path3003"
       inkscape:connector-curvature="0" />
  </g>
</svg>
