<?xml version="1.0" encoding="UTF-8" standalone="no"?>
<!-- Created with Inkscape (http://www.inkscape.org/) -->

<svg
   xmlns:dc="http://purl.org/dc/elements/1.1/"
   xmlns:cc="http://creativecommons.org/ns#"
   xmlns:rdf="http://www.w3.org/1999/02/22-rdf-syntax-ns#"
   xmlns:svg="http://www.w3.org/2000/svg"
   xmlns="http://www.w3.org/2000/svg"
   xmlns:xlink="http://www.w3.org/1999/xlink"
   xmlns:sodipodi="http://sodipodi.sourceforge.net/DTD/sodipodi-0.dtd"
   xmlns:inkscape="http://www.inkscape.org/namespaces/inkscape"
   width="512"
   height="512"
   viewBox="0 0 512.00001 512.00001"
   id="svg2"
   version="1.1"
   inkscape:version="0.91 r13725"
   sodipodi:docname="loadlogo-rounded.svg">
  <defs
     id="defs4">
    <linearGradient
       inkscape:collect="always"
       id="linearGradient4247">
      <stop
         style="stop-color:#44b1d1;stop-opacity:1"
         offset="0"
         id="stop4249" />
      <stop
         style="stop-color:#65ce8c;stop-opacity:1"
         offset="1"
         id="stop4251" />
    </linearGradient>
    <linearGradient
       inkscape:collect="always"
       xlink:href="#linearGradient4247"
       id="linearGradient4253"
       x1="504.28571"
       y1="550.93359"
       x2="2.8571429"
       y2="1049.505"
       gradientUnits="userSpaceOnUse"
       gradientTransform="translate(0,-540.36216)" />
  </defs>
  <sodipodi:namedview
     id="base"
     pagecolor="#ffffff"
     bordercolor="#666666"
     borderopacity="1.0"
     inkscape:pageopacity="0.0"
     inkscape:pageshadow="2"
     inkscape:zoom="0.35"
     inkscape:cx="13.542007"
     inkscape:cy="-115.34053"
     inkscape:document-units="px"
     inkscape:current-layer="layer1"
     showgrid="false"
     units="px"
     inkscape:window-width="1366"
     inkscape:window-height="705"
     inkscape:window-x="-8"
     inkscape:window-y="-8"
     inkscape:window-maximized="1" />
  <metadata
     id="metadata7">
    <rdf:RDF>
      <cc:Work
         rdf:about="">
        <dc:format>image/svg+xml</dc:format>
        <dc:type
           rdf:resource="http://purl.org/dc/dcmitype/StillImage" />
        <dc:title />
      </cc:Work>
    </rdf:RDF>
  </metadata>
  <g
     inkscape:label="Layer 1"
     inkscape:groupmode="layer"
     id="layer1"
     transform="translate(0,-540.36216)">
    <g
       id="g4334">
      <g
         transform="translate(860.40234,395.98047)"
         id="g4327">
        <path
           inkscape:connector-curvature="0"
           style="fill:#5cceb1"
           d="m -604.52539,-395.97656 a 256,256 0 0 0 -0.70313,0.0254 256,256 0 0 0 -21.0371,1.06836 256,256 0 0 0 -13.01563,1.58008 256,256 0 0 0 -12.27148,1.86328 256,256 0 0 0 -13.02539,2.92578 256,256 0 0 0 -11.75196,3.00976 256,256 0 0 0 -12.90625,4.28907 256,256 0 0 0 -11.20703,4.10156 256,256 0 0 0 -12.55859,5.61914 256,256 0 0 0 -10.58008,5.12109 256,256 0 0 0 -12.14453,6.9668 256,256 0 0 0 -9.79102,6.01172 256,256 0 0 0 -11.58594,8.28711 256,256 0 0 0 -8.97851,6.83594 256,256 0 0 0 -10.79688,9.48437 256,256 0 0 0 -8.16797,7.62109 256,256 0 0 0 -9.88671,10.61329 256,256 0 0 0 -7.26953,8.28906 256,256 0 0 0 -8.86915,11.66797 256,256 0 0 0 -6.31835,8.84765 256,256 0 0 0 -7.74415,12.63282 256,256 0 0 0 -5.32617,9.30078 256,256 0 0 0 -6.49414,13.44336 256,256 0 0 0 -4.33008,9.69336 256,256 0 0 0 -5.14843,14.10546 256,256 0 0 0 -3.31836,10.01172 256,256 0 0 0 -3.73047,14.61524 256,256 0 0 0 -2.2832,10.20312 256,256 0 0 0 -2.26563,14.99219 256,256 0 0 0 -1.24609,10.3418 256,256 0 0 0 -1.12305,22.42773 256,256 0 0 0 0.45898,12.94336 256,256 0 0 0 0.78321,10.11133 256,256 0 0 0 2.01562,16.60937 256,256 0 0 0 1.57031,8.761722 256,256 0 0 0 3.64649,16.242188 256,256 0 0 0 2.45703,8.632812 256,256 0 0 0 5.21484,15.69336 256,256 0 0 0 3.36133,8.482422 256,256 0 0 0 6.69336,14.958984 256,256 0 0 0 4.25391,8.22461 256,256 0 0 0 8.08203,14.0917964 256,256 0 0 0 5.16016,7.921875 256,256 0 0 0 9.31054,13.0195316 256,256 0 0 0 6.08594,7.566406 256,256 0 0 0 10.40039,11.837891 256,256 0 0 0 6.99023,7.103515 256,256 0 0 0 11.32227,10.548828 256,256 0 0 0 7.89844,6.566407 256,256 0 0 0 12.07422,9.179687 256,256 0 0 0 8.78906,5.927734 256,256 0 0 0 12.63476,7.746094 256,256 0 0 0 9.64258,5.1875 256,256 0 0 0 13.02344,6.291016 256,256 0 0 0 10.44336,4.335937 256,256 0 0 0 13.27734,4.845704 256,256 0 0 0 11.13477,3.36523 256,256 0 0 0 13.33008,3.4043 256,256 0 0 0 11.82812,2.31641 256,256 0 0 0 13.21485,1.99804 256,256 0 0 0 12.35742,1.15821 256,256 0 0 0 18.41992,0.92187 256,256 0 0 0 22.13672,-1.10937 256,256 0 0 0 11.20312,-1.35938 256,256 0 0 0 14.47461,-2.1875 256,256 0 0 0 9.84571,-2.20898 256,256 0 0 0 15.33593,-3.91602 256,256 0 0 0 8.49219,-2.82226 256,256 0 0 0 15.92578,-5.814457 256,256 0 0 0 7.14063,-3.195312 256,256 0 0 0 16.27929,-7.863282 256,256 0 0 0 5.83399,-3.345703 256,256 0 0 0 16.33984,-10.019531 256,256 0 0 0 4.62696,-3.308594 256,256 0 0 0 16.04882,-12.199219 256,256 0 0 0 3.58008,-3.146484 256,256 0 0 0 15.42383,-14.367187 256,256 0 0 0 2.64844,-2.841797 256,256 0 0 0 14.46875,-16.470703 256,256 0 0 0 1.88672,-2.482422 256,256 0 0 0 13.1875,-18.4414065 256,256 0 0 0 1.26562,-2.0644531 256,256 0 0 0 11.61328,-20.2480474 256,256 0 0 0 0.79297,-1.636718 256,256 0 0 0 9.76367,-21.81836 256,256 0 0 0 0.4668,-1.279296 256,256 0 0 0 7.66797,-23.080079 256,256 0 0 0 0.25586,-1.003906 256,256 0 0 0 5.38867,-24.001953 256,256 0 0 0 0.13086,-0.865234 256,256 0 0 0 2.98242,-24.566406 256,256 0 0 0 0.0664,-1.29883 256,256 0 0 0 0.60156,-17.03125 256,256 0 0 0 -1.26758,-25.33789 256,256 0 0 0 -0.0918,-0.74414 256,256 0 0 0 -3.70312,-24.50195 256,256 0 0 0 -0.20703,-0.92969 256,256 0 0 0 -6.07031,-23.76758 256,256 0 0 0 -0.41211,-1.24219 256,256 0 0 0 -8.28321,-22.6914 256,256 0 0 0 -0.70703,-1.58008 256,256 0 0 0 -10.30273,-21.33203 256,256 0 0 0 -1.14649,-1.99805 256,256 0 0 0 -12.0664,-19.67773 256,256 0 0 0 -1.73828,-2.43164 256,256 0 0 0 -13.54493,-17.81641 256,256 0 0 0 -2.45898,-2.80078 256,256 0 0 0 -14.73438,-15.81641 256,256 0 0 0 -3.33398,-3.10547 256,256 0 0 0 -15.58984,-13.69531 256,256 0 0 0 -4.37891,-3.33008 256,256 0 0 0 -16.09766,-11.51172 256,256 0 0 0 -5.54687,-3.40039 256,256 0 0 0 -16.2793,-9.33789 256,256 0 0 0 -6.80078,-3.28515 256,256 0 0 0 -16.16797,-7.23633 256,256 0 0 0 -8.09961,-2.95703 256,256 0 0 0 -15.78515,-5.24414 256,256 0 0 0 -9.4668,-2.41602 256,256 0 0 0 -15.06445,-3.38281 256,256 0 0 0 -10.89258,-1.64649 256,256 0 0 0 -14.10156,-1.71093 256,256 0 0 0 -20.8086,-1.04297 256,256 0 0 0 -0.72656,-0.0254 z m 255.875,255.99609 0,4.99414 a 256,256 0 0 0 0.24805,-4.95508 l 0,-0.0391 0,-0.0547 a 256,256 0 0 0 -0.24805,-7.01172 l 0,7.06641 z m -511.75,0 0,-4.99805 a 256,256 0 0 0 -0.002,0.043 l 0,4.95508 0,6.99024 a 256,256 0 0 0 0.002,0.0254 l 0,-7.01563 z"
           id="path4282"
           transform="translate(0,540.36216)" />
        <path
           inkscape:connector-curvature="0"
           id="path4291"
           d="m -681.69727,-180.88086 c -2.59223,-0.0154 -6.17629,0.88052 -11.74609,2.36719 -13.14755,3.50928 -15.92604,6.08674 -19.04297,17.66211 -4.11401,15.27829 -29.11106,42.07665 -33.35547,35.75976 -13.07521,-19.45962 -29.19156,-39.53906 -31.73437,-39.53906 -1.71464,0 -5.24816,3.41213 -7.85352,7.58398 -4.18297,6.69802 -8.84554,7.58594 -39.85547,7.58594 l -34.89062,0 a 256,256 0 0 0 -0.22656,4.52539 l 0,11.94532 a 256,256 0 0 0 255.75195,249.00976 256,256 0 0 0 254.00195,-225.68945 c -1.12382,-3.96843 -2.80657,-3.21996 -5.33789,-1.86524 -5.46425,2.92436 -9.8617,2.83996 -15.72656,-0.29882 -6.61751,-3.54159 -8.78254,-3.21082 -11.56641,1.76367 -2.14733,3.83705 -8.44135,6.12109 -16.87304,6.12109 -13.87099,0 -32.363,10.254924 -43.84375,24.314454 -5.52975,6.77183 -7.5885,7.234011 -14.17188,3.181641 -4.23594,-2.60741 -10.18764,-4.742187 -13.22656,-4.742187 -7.16019,0 -17.33203,-14.599121 -17.33203,-24.874998 0,-11.7112 -37.48712,-30.05417 -59.46485,-29.09766 -13.97308,0.60814 -16.38867,-0.37886 -16.38867,-6.69531 0,-6.20026 -1.84482,-7.03923 -11.31836,-5.14453 -8.11598,1.6232 -11.9401,0.64907 -13.50976,-3.44141 -1.20407,-3.13774 -8.7688,-10.99293 -16.8125,-17.45703 l -14.625,-11.75391 -21.2793,9.41016 c -11.7031,5.17567 -22.03883,9.41016 -22.96875,9.41016 -0.92992,0 -4.22443,-4.90007 -7.32227,-10.89063 -3.3965,-6.56812 -4.96086,-9.12476 -9.28125,-9.15039 z m 333.04688,103.466798 0,193.433592 0.24805,0 0,-115.80663938 c 0,-35.90259862 -0.007,-60.66245262 -0.24805,-77.62695262 z"
           style="fill:#003426"
           transform="translate(0,540.36216)" />
        <path
           inkscape:connector-curvature="0"
           style="fill:#138577"
           d="m -604.54688,-395.97461 a 256,256 0 0 0 -0.67382,0.0234 256,256 0 0 0 -21.11328,1.07812 256,256 0 0 0 -12.65625,1.53516 256,256 0 0 0 -12.73438,1.9375 256,256 0 0 0 -12.35547,2.77344 256,256 0 0 0 -12.49609,3.20507 256,256 0 0 0 -11.99805,3.98633 256,256 0 0 0 -12.16601,4.45313 256,256 0 0 0 -11.5,5.14648 256,256 0 0 0 -11.69922,5.66797 256,256 0 0 0 -10.85157,6.22461 256,256 0 0 0 -11.15234,6.85352 256,256 0 0 0 -10.11523,7.23437 256,256 0 0 0 -10.47071,7.97656 256,256 0 0 0 -9.27929,8.15235 256,256 0 0 0 -9.6875,9.04297 256,256 0 0 0 -9.48829,10.18554 256,256 0 0 0 -6.79687,7.67969 256,256 0 0 0 -1.59766,2.09961 c 2.295,1.3442 4.58706,2.78073 6.76758,4.29492 23.79894,16.52642 56.37861,25.30422 94.52149,25.4668 29.88899,0.1274 31.69449,-0.35601 41.19922,-11.02344 5.46733,-6.13614 14.54262,-12.76038 20.16601,-14.7207 8.99113,-3.13433 13.28481,-1.28564 35.59961,15.33789 13.95649,10.39697 25.375,21.10319 25.375,23.79101 0,6.0629 25.18705,16.39409 52.09961,21.36915 20.16754,3.72816 46.50781,16.38456 46.50781,22.34765 0,1.71811 6.35866,5.22401 14.13086,7.78906 7.77216,2.56504 19.09059,7.6781 25.15039,11.36329 8.81106,5.35833 12.85663,5.862 20.20117,2.51562 7.28447,-3.31903 11.41985,-2.8622 19.99805,2.20508 5.94834,3.51376 16.52696,6.50768 23.50586,6.6543 6.9789,0.14661 16.10159,1.73268 20.27344,3.52539 2.54709,1.09451 4.65543,1.97468 6.27539,2.63476 a 256,256 0 0 0 -4.95508,-24.98437 256,256 0 0 0 -0.0352,-0.15235 256,256 0 0 0 -7.33007,-24.05469 256,256 0 0 0 -0.16993,-0.51171 256,256 0 0 0 -9.52734,-22.80079 256,256 0 0 0 -0.40234,-0.90234 256,256 0 0 0 -11.45899,-21.18945 256,256 0 0 0 -0.83203,-1.44922 256,256 0 0 0 -13.13672,-19.375 256,256 0 0 0 -1.36523,-1.91016 256,256 0 0 0 -14.53907,-17.41015 256,256 0 0 0 -2.0371,-2.32032 256,256 0 0 0 -15.58204,-15.25976 256,256 0 0 0 -2.93359,-2.73438 256,256 0 0 0 -16.25977,-13.01562 256,256 0 0 0 -3.98437,-3.02734 256,256 0 0 0 -16.56836,-10.73829 256,256 0 0 0 -5.2207,-3.20117 256,256 0 0 0 -16.55078,-8.51172 256,256 0 0 0 -6.52539,-3.15234 256,256 0 0 0 -16.25977,-6.40039 256,256 0 0 0 -7.88281,-2.87891 256,256 0 0 0 -15.66016,-4.41797 256,256 0 0 0 -9.32812,-2.38086 256,256 0 0 0 -14.77149,-2.61328 256,256 0 0 0 -10.76367,-1.62695 256,256 0 0 0 -13.70703,-1.0293 256,256 0 0 0 -15.15235,-0.75781 z"
           transform="translate(0,540.36216)"
           id="path4276" />
        <path
           inkscape:connector-curvature="0"
           style="fill:#002c1d"
           d="m -859.90039,-149.98633 a 256,256 0 0 0 -0.5,10.00586 256,256 0 0 0 0.45898,12.94336 256,256 0 0 0 0.78321,10.11133 256,256 0 0 0 2.01562,16.60937 256,256 0 0 0 1.57031,8.761722 256,256 0 0 0 3.64649,16.242188 256,256 0 0 0 2.45703,8.632812 256,256 0 0 0 5.21484,15.69336 256,256 0 0 0 3.36133,8.482422 256,256 0 0 0 6.69336,14.958984 256,256 0 0 0 4.25391,8.22461 256,256 0 0 0 8.08203,14.0917964 256,256 0 0 0 5.16016,7.921875 256,256 0 0 0 9.31054,13.0195316 256,256 0 0 0 6.08594,7.566406 256,256 0 0 0 10.40039,11.837891 256,256 0 0 0 6.99023,7.103515 256,256 0 0 0 11.32227,10.548828 256,256 0 0 0 7.89844,6.566407 256,256 0 0 0 12.07422,9.179687 256,256 0 0 0 8.78906,5.927734 256,256 0 0 0 12.63476,7.746094 256,256 0 0 0 9.64258,5.1875 256,256 0 0 0 13.02344,6.291016 256,256 0 0 0 10.44336,4.335937 256,256 0 0 0 13.27734,4.845704 256,256 0 0 0 11.13477,3.36523 256,256 0 0 0 13.33008,3.4043 256,256 0 0 0 11.82812,2.31641 256,256 0 0 0 13.21485,1.99804 256,256 0 0 0 12.35742,1.15821 256,256 0 0 0 18.41992,0.92187 256,256 0 0 0 22.37695,-1.13867 256,256 0 0 0 10.11719,-1.22656 256,256 0 0 0 15.83594,-2.40625 256,256 0 0 0 7.88476,-1.76953 256,256 0 0 0 17.54883,-4.4961 256,256 0 0 0 5.74219,-1.9082 256,256 0 0 0 18.88867,-6.91211 256,256 0 0 0 3.73242,-1.667969 256,256 0 0 0 19.88282,-9.625 256,256 0 0 0 1.84179,-1.054687 256,256 0 0 0 20.45703,-12.566406 256,256 0 0 0 0.25391,-0.181641 256,256 0 0 0 109.30078,-180.634767 c -1.08679,-3.92937 -2.69281,-3.36928 -5.07617,-2.09375 -4.87303,2.60799 -10.60398,2.68355 -17.06641,0.22656 -7.71944,-2.93494 -9.73047,-2.54251 -9.73047,1.89649 0,3.96279 -4.25988,5.5957 -14.60156,5.5957 -14.28632,0 -36.9277,12.67663 -49.13867,27.51172 -4.52244,5.49428 -5.90637,5.477161 -15.79688,-0.199219 -10.25574,-5.88597 -11.93913,-5.76524 -31.27734,2.25 -13.17631,5.46128 -24.40752,7.697139 -31.61133,6.292969 -6.21026,-1.2105 -18.59768,0.468507 -27.88476,3.779297 -9.19057,3.27639 -17.72383,4.941082 -18.96289,3.701172 -1.23906,-1.23992 -2.09791,-9.433465 -1.90821,-18.208985 l 0.34571,-15.955078 -14.16602,15.185547 c -11.75798,12.60518 -13.5977,16.674949 -10.83203,23.949219 2.83831,7.46533 1.52954,9.860106 -8.83008,16.160156 l -12.16211,7.396484 -9.58594,-8.826171 c -5.27283,-4.85396 -17.26762,-14.07831 -26.65429,-20.5 -9.38667,-6.4217 -26.29806,-19.356891 -37.58203,-28.744141 -11.28398,-9.38725 -24.93836,-18.16489 -30.3418,-19.50586 -5.40343,-1.34096 -21.33071,-10.28271 -35.39453,-19.87109 -25.53256,-17.40753 -25.62645,-17.43597 -63.52539,-18.95313 l -37.45508,-1.5 z m -0.5,10.00586 0,-4.99414 a 256,256 0 0 0 -0.002,0.0391 l 0,11.94532 a 256,256 0 0 0 0.002,0.0254 l 0,-7.01563 z"
           id="path4270"
           transform="translate(0,540.36216)" />
        <path
           inkscape:connector-curvature="0"
           style="fill:#00241b"
           d="m -380.50586,-113.66992 c -1.55966,-0.0236 -2.0293,1.23392 -2.0293,3.89648 0,4.16599 -3.91743,5.82422 -13.77343,5.82422 -15.33,0 -35.32296,10.786088 -46.625,25.154298 -7.05616,8.97046 -7.88924,9.138713 -16.67383,3.382813 -8.48555,-5.5599 -10.611,-5.543872 -25.82031,0.199218 -9.11542,3.44201 -28.51962,7.736699 -43.1211,9.542969 -50.40737,6.23565 -45.51172,7.435226 -45.51172,-11.146484 l 0,-16.482422 -12.45507,14.419922 c -9.80936,11.35576 -11.97319,16.621359 -10.17969,24.787109 1.93654,8.817 0.51982,11.276993 -9.47461,16.445313 -15.01221,7.76312 -12.32504,11.72221 11.41015,16.8125 20.45674,4.38718 46.34029,16.1346184 58.625,26.6054684 8.76622,7.4718246 68.88727,35.4227236 100.03125,46.5097656 a 256,256 0 0 0 85.6836,-163.45508 l -7.10938,1.78516 c -5.02052,1.26008 -12.70025,0.37966 -17.0664,-1.95703 -2.82354,-1.51111 -4.69709,-2.30585 -5.91016,-2.32422 z"
           id="path4268"
           transform="translate(0,540.36216)" />
      </g>
      <path
         transform="translate(0,540.36216)"
         id="rect4245"
         d="M 256 0 A 256 256 0 0 0 0 256 A 256 256 0 0 0 256 512 A 256 256 0 0 0 512 256 A 256 256 0 0 0 256 0 z "
         style="opacity:0.64;fill:url(#linearGradient4253);fill-opacity:1;stroke:none;stroke-width:1.25;stroke-miterlimit:4;stroke-dasharray:none;stroke-opacity:1" />
      <path
         id="rect4220-2"
         d="m 233.69689,688.91736 c -57.33233,0.0586 -91.85393,2.31854 -102.38672,6.72852 -8.46315,3.54345 -20.89141,17.72088 -23.98242,27.35742 -3.58828,11.18688 -5.05371,115.99747 -1.88476,134.78515 4.8849,28.96096 17.514,39.70907 50.59179,43.05469 26.12524,2.64241 168.79454,2.86368 196.12892,0.30469 33.70327,-3.15524 46.5271,-11.12443 52.6582,-32.72461 6.64323,-23.40441 7.87397,-109.37533 1.95508,-136.5 -5.25977,-24.10411 -15.9162,-35.37522 -37.2832,-39.42969 -6.12503,-1.16225 -47.73828,-2.63197 -92.47462,-3.26562 -15.64558,-0.22161 -30.09173,-0.32407 -43.32227,-0.31055 z m 22.58203,29.58594 28.75586,29.93554 28.75783,29.93555 0.0332,16.51563 0.0332,16.51758 -7.50586,-8.25782 c -13.5643,-14.92676 -34.04555,-36.1289 -34.9004,-36.1289 -0.46116,0 -0.83789,14.86351 -0.83789,33.03125 l 0,33.0332 -14.45117,0 -14.45117,0 0,-33.0332 c 0,-18.16774 -0.39938,-33.03125 -0.88672,-33.03125 -0.81504,0 -5.49525,4.86926 -32.74023,34.06445 l -9.63282,10.32227 0.0508,-16.51758 0.0488,-16.51563 28.86328,-29.93555 28.86328,-29.93554 z m -0.11523,126.96875 c 13.07526,0 14.45117,0.39311 14.45117,4.1289 0,3.73578 -1.37591,4.12891 -14.45117,4.12891 -13.07526,0 -14.45117,-0.39313 -14.45117,-4.12891 0,-3.73579 1.37591,-4.1289 14.45117,-4.1289 z m 0,20.64453 c 13.07526,0 14.45117,0.39312 14.45117,4.12891 0,3.73578 -1.37591,4.1289 -14.45117,4.1289 -13.07526,0 -14.45117,-0.39312 -14.45117,-4.1289 0,-3.73579 1.37591,-4.12891 14.45117,-4.12891 z"
         style="opacity:1;fill:#ffffff;fill-opacity:1;stroke:none;stroke-width:1.25;stroke-miterlimit:4;stroke-dasharray:none;stroke-opacity:1"
         inkscape:connector-curvature="0" />
    </g>
  </g>
</svg>
