<?xml version="1.0" encoding="UTF-8" standalone="no"?>
<!-- Created with Inkscape (http://www.inkscape.org/) -->

<svg
   xmlns:dc="http://purl.org/dc/elements/1.1/"
   xmlns:cc="http://creativecommons.org/ns#"
   xmlns:rdf="http://www.w3.org/1999/02/22-rdf-syntax-ns#"
   xmlns:svg="http://www.w3.org/2000/svg"
   xmlns="http://www.w3.org/2000/svg"
   xmlns:xlink="http://www.w3.org/1999/xlink"
   xmlns:sodipodi="http://sodipodi.sourceforge.net/DTD/sodipodi-0.dtd"
   xmlns:inkscape="http://www.inkscape.org/namespaces/inkscape"
   width="512"
   height="512"
   viewBox="0 0 512.00001 512.00001"
   id="svg2"
   version="1.1"
   inkscape:version="0.91 r13725"
   sodipodi:docname="loadlogo.svg"
   inkscape:export-filename="C:\Users\PERSONA\Desktop\WebDGap\assets\loadlogo-rounded.png"
   inkscape:export-xdpi="90"
   inkscape:export-ydpi="90">
  <defs
     id="defs4">
    <linearGradient
       inkscape:collect="always"
       id="linearGradient4247">
      <stop
         style="stop-color:#44b1d1;stop-opacity:1"
         offset="0"
         id="stop4249" />
      <stop
         style="stop-color:#65ce8c;stop-opacity:1"
         offset="1"
         id="stop4251" />
    </linearGradient>
    <linearGradient
       gradientTransform="translate(1.8027344e-5,-1e-5)"
       inkscape:collect="always"
       xlink:href="#linearGradient4247"
       id="linearGradient4253-9"
       x1="504.28571"
       y1="550.93359"
       x2="2.8571429"
       y2="1049.505"
       gradientUnits="userSpaceOnUse" />
  </defs>
  <sodipodi:namedview
     id="base"
     pagecolor="#ffffff"
     bordercolor="#666666"
     borderopacity="1.0"
     inkscape:pageopacity="0.0"
     inkscape:pageshadow="2"
     inkscape:zoom="0.49497475"
     inkscape:cx="118.85229"
     inkscape:cy="133.18724"
     inkscape:document-units="px"
     inkscape:current-layer="layer1"
     showgrid="false"
     units="px"
     inkscape:window-width="1366"
     inkscape:window-height="705"
     inkscape:window-x="-8"
     inkscape:window-y="-8"
     inkscape:window-maximized="1" />
  <metadata
     id="metadata7">
    <rdf:RDF>
      <cc:Work
         rdf:about="">
        <dc:format>image/svg+xml</dc:format>
        <dc:type
           rdf:resource="http://purl.org/dc/dcmitype/StillImage" />
        <dc:title></dc:title>
      </cc:Work>
    </rdf:RDF>
  </metadata>
  <g
     inkscape:label="Layer 1"
     inkscape:groupmode="layer"
     id="layer1"
     transform="translate(0,-540.36216)">
    <path
       inkscape:connector-curvature="0"
       id="path4282-4"
       d="m 0,796.36213 0,-256 256,0 256,0 0,256 0,256.00007 -256,0 -256,0 0,-256.00007 z"
       style="fill:#5cceb1" />
    <path
       style="fill:#138577"
       d="m 0,540.36216 0,41.22266 0,41.22265 14.2226,2.34961 c 7.8222,1.29293 18.1826,2.36958 23.0215,2.39258 4.839,0.023 16.7844,5.58793 26.5469,12.36719 23.7989,16.52642 56.3787,25.30421 94.5215,25.46679 29.889,0.1274 31.6944,-0.356 41.1992,-11.02343 5.4673,-6.13614 14.5426,-12.76039 20.166,-14.72071 8.9911,-3.13433 13.2848,-1.28368 35.5996,15.33985 13.9565,10.39697 25.375,21.10319 25.375,23.79101 0,6.0629 25.187,16.39213 52.0996,21.36719 20.1675,3.72817 46.5078,16.38652 46.5078,22.34961 0,1.71811 6.3587,5.22206 14.1309,7.78711 7.7721,2.56504 19.0906,7.68005 25.15039,11.36523 8.81106,5.35833 12.85663,5.86201 20.20117,2.51563 7.28447,-3.31903 11.4218,-2.86416 20,2.20312 5.94834,3.51376 16.52501,6.50963 23.50391,6.65625 6.9789,0.14661 16.10158,1.73268 20.27343,3.52539 4.17185,1.7927 8.01173,3.37878 8.53321,3.52539 0.52148,0.14662 0.94726,-49.2269 0.94726,-109.71874 l 0,-109.98438 -255.99997,0 -256,0 z"
       id="path4276-8"
       inkscape:connector-curvature="0" />
    <path
       inkscape:connector-curvature="0"
       id="path4272-8"
       d="m 0,919.62138 0,-132.74074 35.1174,0 c 31.0099,0 35.6713,-0.88718 39.8543,-7.58519 2.6054,-4.17185 6.1399,-7.58518 7.8546,-7.58518 2.5428,0 18.659,20.08038 31.7342,39.54 4.2444,6.31689 29.2401,-20.48197 33.3541,-35.76026 3.1169,-11.57537 5.896,-14.15283 19.0435,-17.66211 14.8528,-3.96444 15.5921,-3.72596 21.0265,6.78303 3.0978,5.99056 6.3933,10.89193 7.3232,10.89193 0.9299,0 11.266,-4.23463 22.9691,-9.4103 l 21.2784,-9.4103 14.6249,11.75288 c 8.0437,6.4641 15.61,14.32014 16.8141,17.45788 1.5697,4.09048 5.3926,5.06432 13.5086,3.44112 9.4735,-1.8947 11.3193,-1.05581 11.3193,5.14445 0,6.31645 2.4154,7.30319 16.3885,6.69505 21.9777,-0.95651 59.4634,17.3869 59.4634,29.0981 0,10.27588 10.173,24.87557 17.3332,24.87557 3.0389,0 8.991,2.13333 13.227,4.74074 6.5834,4.05237 8.641,3.59042 14.1707,-3.18141 11.4808,-14.05953 29.9729,-24.31489 43.8439,-24.31489 8.4317,0 14.7259,-2.28292 16.8732,-6.11997 2.7839,-4.97449 4.9487,-5.30444 11.5662,-1.76285 5.8649,3.13878 10.2623,3.222 15.7265,0.29764 7.50823,-4.01827 7.58522,-2.88423 7.58522,111.74806 l 0,115.80757 -256.00002,0 -256,0 0,-132.74082 z"
       style="fill:#003426" />
    <path
       inkscape:connector-curvature="0"
       id="path4270-8"
       d="m 0,919.34893 0,-133.0132 37.95535,1.51942 c 37.89894,1.51716 37.99336,1.54533 63.52592,18.95286 14.06382,9.58838 29.99157,18.53058 35.395,19.87154 5.40344,1.34097 19.05677,10.1186 30.34075,19.50585 11.28397,9.38725 28.19631,22.32184 37.58298,28.74354 9.38667,6.42169 21.38081,15.64723 26.65364,20.50119 l 9.58698,8.82538 12.1614,-7.39579 c 10.35962,-6.30005 11.66775,-8.69419 8.82944,-16.15952 -2.76567,-7.27427 -0.92443,-11.34474 10.83355,-23.94992 l 14.16552,-15.18618 -0.3449,15.9555 c -0.1897,8.77552 0.66889,16.96996 1.90795,18.20988 1.23906,1.23991 9.77239,-0.42629 18.96296,-3.70268 9.28708,-3.31079 21.6739,-4.98952 27.88416,-3.77902 7.20381,1.40417 18.43589,-0.83183 31.6122,-6.29311 19.33821,-8.01524 21.02152,-8.13635 31.27726,-2.25038 9.89051,5.67638 11.27276,5.69385 15.7952,0.19957 12.21097,-14.83509 34.85366,-27.5121 49.13998,-27.5121 10.34168,0 14.60133,-1.63223 14.60133,-5.59502 0,-4.439 2.01034,-4.83069 9.72978,-1.89575 6.46243,2.45699 12.19364,2.38066 17.06667,-0.22733 C 511.84276,820.83125 512,823.22886 512,936.55463 l 0,115.80757 -256,0 -256,0 0,-133.01327 z"
       style="fill:#002c1d" />
    <path
       inkscape:connector-curvature="0"
       id="path4268-2"
       d="m 475.97037,1001.1566 c -16.68741,-2.7193 -39.90896,-8.3475 -51.60342,-12.50722 -31.12527,-11.07126 -91.32797,-39.05938 -100.10028,-46.5364 -12.28471,-10.47085 -38.16905,-22.21712 -58.62579,-26.6043 -23.73519,-5.09029 -26.42199,-9.04931 -11.40978,-16.81243 9.99443,-5.16832 11.4124,-7.62935 9.47586,-16.44635 -1.7935,-8.16575 0.36887,-13.43189 10.17823,-24.78765 l 12.45555,-14.41911 0,16.48172 c 0,18.58171 -4.89626,17.38249 45.51111,11.14684 14.60148,-1.80627 34.00622,-6.10033 43.12164,-9.54234 15.20931,-5.74309 17.33456,-5.75951 25.82011,-0.19961 8.78459,5.7559 9.61771,5.58684 16.67387,-3.38362 11.30204,-14.36821 31.29461,-25.15437 46.62461,-25.15437 9.856,0 13.77459,-1.65634 13.77459,-5.82233 0,-4.73345 1.48461,-5.02777 7.93842,-1.57381 4.36615,2.33669 12.04615,3.21756 17.06667,1.95748 L 512,824.66206 l 0,91.09448 c 0,50.10198 -1.28,90.92556 -2.84444,90.71916 -1.56445,-0.2063 -16.49778,-2.6 -33.18519,-5.3192 z"
       style="fill:#00241b" />
    <rect
       style="opacity:0.63999999;fill:url(#linearGradient4253-9);fill-opacity:1;stroke:none;stroke-width:1.25;stroke-miterlimit:4;stroke-dasharray:none;stroke-opacity:1"
       id="rect4245-0"
       width="512"
       height="512"
       x="0"
       y="540.36218" />
    <path
       inkscape:connector-curvature="0"
       style="opacity:1;fill:#ffffff;fill-opacity:1;stroke:none;stroke-width:1.25;stroke-miterlimit:4;stroke-dasharray:none;stroke-opacity:1"
       d="m 233.69689,688.91735 c -57.33233,0.0586 -91.85393,2.31854 -102.38672,6.72852 -8.46315,3.54345 -20.89141,17.72088 -23.98242,27.35742 -3.58828,11.18688 -5.05371,115.99747 -1.88476,134.78515 4.8849,28.96096 17.514,39.70907 50.59179,43.05469 26.12524,2.64241 168.79454,2.86368 196.12892,0.30469 33.70327,-3.15524 46.5271,-11.12443 52.6582,-32.72461 6.64323,-23.40441 7.87397,-109.37533 1.95508,-136.5 -5.25977,-24.10411 -15.9162,-35.37522 -37.2832,-39.42969 -6.12503,-1.16225 -47.73828,-2.63197 -92.47462,-3.26562 -15.64558,-0.22161 -30.09173,-0.32407 -43.32227,-0.31055 z m 22.58203,29.58594 28.75586,29.93554 28.75783,29.93555 0.0332,16.51563 0.0332,16.51758 -7.50586,-8.25782 c -13.5643,-14.92676 -34.04555,-36.1289 -34.9004,-36.1289 -0.46116,0 -0.83789,14.86351 -0.83789,33.03125 l 0,33.0332 -14.45117,0 -14.45117,0 0,-33.0332 c 0,-18.16774 -0.39938,-33.03125 -0.88672,-33.03125 -0.81504,0 -5.49525,4.86926 -32.74023,34.06445 l -9.63282,10.32227 0.0508,-16.51758 0.0488,-16.51563 28.86328,-29.93555 28.86328,-29.93554 z m -0.11523,126.96875 c 13.07526,0 14.45117,0.39311 14.45117,4.1289 0,3.73578 -1.37591,4.12891 -14.45117,4.12891 -13.07526,0 -14.45117,-0.39313 -14.45117,-4.12891 0,-3.73579 1.37591,-4.1289 14.45117,-4.1289 z m 0,20.64453 c 13.07526,0 14.45117,0.39312 14.45117,4.12891 0,3.73578 -1.37591,4.1289 -14.45117,4.1289 -13.07526,0 -14.45117,-0.39312 -14.45117,-4.1289 0,-3.73579 1.37591,-4.12891 14.45117,-4.12891 z"
       id="rect4220-2-6" />
  </g>
</svg>
