<?xml version="1.0" encoding="UTF-8" standalone="no"?>
<svg
   xmlns:dc="http://purl.org/dc/elements/1.1/"
   xmlns:cc="http://creativecommons.org/ns#"
   xmlns:rdf="http://www.w3.org/1999/02/22-rdf-syntax-ns#"
   xmlns:svg="http://www.w3.org/2000/svg"
   xmlns="http://www.w3.org/2000/svg"
   xmlns:xlink="http://www.w3.org/1999/xlink"
   viewBox="0 0 128 128"
   height="128"
   width="128"
   version="1.1"
   id="svg3433">
  <metadata
     id="metadata3439">
    <rdf:RDF>
      <cc:Work
         rdf:about="">
        <dc:format>image/svg+xml</dc:format>
        <dc:type
           rdf:resource="http://purl.org/dc/dcmitype/StillImage" />
        <dc:title></dc:title>
      </cc:Work>
    </rdf:RDF>
  </metadata>
  <defs
     id="defs3437">
    <linearGradient
       id="linearGradient4326">
      <stop
         style="stop-color:#025aff;stop-opacity:1"
         offset="0"
         id="stop4328" />
      <stop
         style="stop-color:#298eff;stop-opacity:0"
         offset="1"
         id="stop4330" />
    </linearGradient>
    <linearGradient
       id="linearGradient4291">
      <stop
         id="stop4293"
         offset="0"
         style="stop-color:#3aa1ff;stop-opacity:1" />
      <stop
         id="stop4295"
         offset="1"
         style="stop-color:#298eff;stop-opacity:1" />
    </linearGradient>
    <linearGradient
       id="linearGradient4271">
      <stop
         style="stop-color:#2c92ff;stop-opacity:1;"
         offset="0"
         id="stop4281" />
      <stop
         style="stop-color:#1775ff;stop-opacity:1"
         offset="1"
         id="stop4283" />
    </linearGradient>
    <linearGradient
       gradientUnits="userSpaceOnUse"
       y2="83.450287"
       x2="112.53568"
       y1="0.5292598"
       x1="112.53568"
       id="linearGradient4277"
       xlink:href="#linearGradient4271" />
    <linearGradient
       gradientTransform="matrix(1.0196078,0,0,1,-10.278026,0)"
       gradientUnits="userSpaceOnUse"
       y2="390.25809"
       x2="169.39581"
       y1="79.89653"
       x1="169.39581"
       id="linearGradient4297"
       xlink:href="#linearGradient4291" />
    <linearGradient
       gradientTransform="matrix(1.0329792,0,0,0.98329624,-16.998335,6.5496331)"
       gradientUnits="userSpaceOnUse"
       y2="377.77063"
       x2="85.438141"
       y1="406.45941"
       x1="85.438141"
       id="linearGradient4316"
       xlink:href="#linearGradient4326" />
  </defs>
  <g
     transform="matrix(0.24446083,0,0,0.24446083,-0.14283237,14.356785)"
     id="g4336">
    <path
       style="fill:url(#linearGradient4277);fill-opacity:1;fill-rule:evenodd;stroke:none;stroke-width:1px;stroke-linecap:butt;stroke-linejoin:miter;stroke-opacity:1"
       d="m 60.140625,-0.24609375 c -9.51578,0 -17.175781,7.66195425 -17.175781,17.17773475 l 0,14.214843 -14.214844,0 c -9.51578,0 -17.177734,7.660002 -17.177734,17.175782 l 0,159.976564 c 0,9.51578 7.661954,17.17773 17.177734,17.17773 l 467.44336,0 c 9.51578,0 17.17578,-7.66195 17.17578,-17.17773 l 0,-159.976564 c 0,-9.51578 -7.66,-17.175782 -17.17578,-17.175782 l -240.4707,0 0,-14.214843 c 0,-9.5157805 -7.66196,-17.17773475 -17.17774,-17.17773475 l -178.404295,0 z"
       id="rect3461" />
    <path
       id="path4305"
       d="m 14.215033,79.89653 496.341557,0 c 7.547,0 13.855,6.079317 13.62274,13.62274 l -9.21392,299.24862 c -0.23226,7.54342 -6.07574,13.62496 -13.62274,13.62274 L 24.728235,406.24999 c -7.546998,-0.002 -13.357638,-6.08039 -13.62274,-13.62274 L 0.59229302,93.51927 C 0.32719095,85.97693 6.668035,79.89653 14.215033,79.89653 Z"
       style="fill:url(#linearGradient4297);fill-opacity:1;stroke:none" />
    <g
       id="g4322">
      <rect
         y="46.135826"
         x="36.129875"
         height="20.730255"
         width="451.91959"
         id="rect4318"
         style="fill:#f0f0f0;fill-opacity:1;stroke:none" />
      <rect
         style="fill:#f7f7f7;fill-opacity:1;stroke:none"
         id="rect4320"
         width="467.9115"
         height="20.730255"
         x="27.83777"
         y="62.127735" />
    </g>
    <path
       style="fill:url(#linearGradient4316);fill-opacity:1;stroke:none"
       d="m 10.37653,378.05893 0.519747,14.55931 c 0.265212,7.41636 6.078569,13.39353 13.628698,13.3955 L 501.33595,406.152 c 7.55013,0.002 13.39633,-5.97807 13.6287,-13.39548 l 0.46113,-14.69759 -505.04925,0 z"
       id="rect4299" />
  </g>
</svg>
