<?xml version="1.0" encoding="UTF-8" standalone="no"?>
<svg
   xmlns:dc="http://purl.org/dc/elements/1.1/"
   xmlns:cc="http://creativecommons.org/ns#"
   xmlns:rdf="http://www.w3.org/1999/02/22-rdf-syntax-ns#"
   xmlns:svg="http://www.w3.org/2000/svg"
   xmlns="http://www.w3.org/2000/svg"
   xmlns:sodipodi="http://sodipodi.sourceforge.net/DTD/sodipodi-0.dtd"
   xmlns:inkscape="http://www.inkscape.org/namespaces/inkscape"
   width="512"
   height="512"
   viewBox="0 0 409.60004 409.60004"
   id="svg2"
   version="1.1"
   inkscape:version="0.91 r13725"
   sodipodi:docname="playvideo.svg">
  <metadata
     id="metadata9">
    <rdf:RDF>
      <cc:Work
         rdf:about="">
        <dc:format>image/svg+xml</dc:format>
        <dc:type
           rdf:resource="http://purl.org/dc/dcmitype/StillImage" />
        <dc:title></dc:title>
      </cc:Work>
    </rdf:RDF>
  </metadata>
  <defs
     id="defs7" />
  <sodipodi:namedview
     pagecolor="#ffffff"
     bordercolor="#666666"
     borderopacity="1"
     objecttolerance="10"
     gridtolerance="10"
     guidetolerance="10"
     inkscape:pageopacity="0"
     inkscape:pageshadow="2"
     inkscape:window-width="1140"
     inkscape:window-height="670"
     id="namedview5"
     showgrid="false"
     units="px"
     inkscape:zoom="0.36875005"
     inkscape:cx="317.2881"
     inkscape:cy="319.99996"
     inkscape:window-x="0"
     inkscape:window-y="0"
     inkscape:window-maximized="0"
     inkscape:current-layer="svg2" />
  <path
     id="Selection"
     d="M 13.605511,278.71012 C 6.9413175,260.27543 4.49183,250.25182 1.7448331,230.93123 c 0,0 -1.71563256,-16.92168 -1.71563256,-16.92168 C -0.22864005,191.29467 1.1398994,170.33168 7.397497,148.31358 24.950505,86.569329 69.755304,35.326469 129.9413,12.522009 146.94888,6.0718591 167.21913,-4.0937496e-5 185.47624,-4.0937496e-5 c 0,0 0,40.811129937496 0,40.811129937496 -16.91832,1.37364 -37.40674,8.09255 -52.55986,15.67745 -57.72659,28.90622 -92.981357,86.957571 -92.227668,151.548641 0.158671,13.34823 3.173425,28.956 6.80303,41.80653 0.971862,3.44406 5.989844,16.3145 5.315492,18.70344 -0.793366,2.7871 -5.761755,5.09641 -8.151741,6.4601 -6.198096,3.53365 -21.043776,12.83062 -26.775776,14.65219 0,0 -4.274206,-10.94932 -4.274206,-10.94932 z M 279.68731,12.522009 c 67.39562,25.53184 116.3457,87.505041 127.35352,158.685621 1.30904,8.41107 2.54865,17.36961 2.55857,25.88023 0.0397,25.65129 -1.7553,46.08671 -9.91695,70.67293 0,0 -5.35515,14.9309 -5.35515,14.9309 -0.74378,1.78175 -1.82472,4.89734 -3.83787,5.53439 -2.4594,0.78636 -7.46746,-2.84683 -9.64919,-4.12093 0,0 -24.79238,-14.35357 -24.79238,-14.35357 0,0 6.208,-19.90787 6.208,-19.90787 3.08417,-11.10859 6.5452,-29.39397 6.68404,-40.81113 0.75368,-65.24804 -33.72757,-123.249611 -92.22768,-152.544041 -15.40103,-7.70435 -35.35394,-14.27394 -52.55986,-15.67745 0,0 0,-40.811129937496 0,-40.811129937496 18.25712,0 38.52737,6.071900037496 55.53495,12.522049937496 z M 172.58421,117.64551 c 0,0 31.73425,19.65902 31.73425,19.65902 0,0 67.43528,41.28892 67.43528,41.28892 0,0 43.6346,26.45755 43.6346,26.45755 0,0 0,2.98618 0,2.98618 0,0 -39.66781,24.07857 -39.66781,24.07857 0,0 -73.38547,45.02165 -73.38547,45.02165 0,0 -46.60968,28.44834 -46.60968,28.44834 0,0 -0.9917,-26.87562 -0.9917,-26.87562 0,0 0,-40.81113 0,-40.81113 0,0 0,-129.40115 0,-129.40115 6.70387,1.28406 12.11852,5.62398 17.85053,9.14767 z m 189.41381,199.46688 c 2.33049,1.34379 7.53689,3.73273 8.06249,6.5696 0.42643,2.34913 -1.80488,5.0566 -3.12385,6.78858 -3.1635,4.16075 -8.27073,10.21274 -11.89043,13.93551 -17.4935,17.99671 -34.97709,32.22089 -57.5084,43.52856 -45.80641,22.99358 -100.59759,27.8511 -149.74601,13.77624 -10.88881,-3.11558 -21.39087,-7.37587 -31.73425,-11.93477 -23.364352,-10.31227 -43.813113,-27.2041 -61.475203,-45.37003 0,0 -11.811095,-13.93551 -11.811095,-13.93551 -1.368539,-1.73198 -3.639522,-4.38968 -3.203176,-6.78858 0.505764,-2.69752 4.889058,-4.73807 7.070788,-6.00222 0,0 23.800689,-13.5274 23.800689,-13.5274 5.68242,-1.6623 13.239132,10.55117 16.898485,14.37348 13.814332,14.42325 30.673152,25.90014 48.553422,34.57997 52.74827,25.62143 116.30603,18.85275 163.62974,-15.24943 12.74328,-9.17752 27.27162,-21.92851 35.70103,-35.25683 6.64435,1.95097 20.04216,10.6308 26.77577,14.51283 z"
     style="fill:#7bbf6a;fill-opacity:1;stroke:none;stroke-width:1"
     inkscape:connector-curvature="0" />
</svg>
