<?xml version="1.0" encoding="UTF-8" standalone="no"?>
<svg
   xmlns:dc="http://purl.org/dc/elements/1.1/"
   xmlns:cc="http://creativecommons.org/ns#"
   xmlns:rdf="http://www.w3.org/1999/02/22-rdf-syntax-ns#"
   xmlns:svg="http://www.w3.org/2000/svg"
   xmlns="http://www.w3.org/2000/svg"
   xmlns:xlink="http://www.w3.org/1999/xlink"
   xmlns:sodipodi="http://sodipodi.sourceforge.net/DTD/sodipodi-0.dtd"
   xmlns:inkscape="http://www.inkscape.org/namespaces/inkscape"
   version="1.1"
   id="svg4212"
   viewBox="0 0 187.00021 38.999876"
   height="48.75"
   width="233.75"
   inkscape:version="0.91 r13725"
   sodipodi:docname="sitelogo.svg">
  <sodipodi:namedview
     pagecolor="#ffffff"
     bordercolor="#666666"
     borderopacity="1"
     objecttolerance="10"
     gridtolerance="10"
     guidetolerance="10"
     inkscape:pageopacity="0"
     inkscape:pageshadow="2"
     inkscape:window-width="1366"
     inkscape:window-height="705"
     id="namedview16"
     showgrid="false"
     inkscape:zoom="1.2663102"
     inkscape:cx="-86.471706"
     inkscape:cy="22.005914"
     inkscape:window-x="-8"
     inkscape:window-y="-8"
     inkscape:window-maximized="1"
     inkscape:current-layer="text4196" />
  <metadata
     id="metadata4219">
    <rdf:RDF>
      <cc:Work
         rdf:about="">
        <dc:format>image/svg+xml</dc:format>
        <dc:type
           rdf:resource="http://purl.org/dc/dcmitype/StillImage" />
        <dc:title />
      </cc:Work>
    </rdf:RDF>
  </metadata>
  <defs
     id="defs4217">
    <linearGradient
       id="linearGradient4831">
      <stop
         style="stop-color:#71da99;stop-opacity:1"
         offset="0"
         id="stop4833" />
      <stop
         style="stop-color:#47b5d5;stop-opacity:1"
         offset="1"
         id="stop4835" />
    </linearGradient>
    <linearGradient
       xlink:href="#linearGradient4831"
       id="linearGradient4837"
       x1="441.69168"
       y1="676.35638"
       x2="870.80176"
       y2="353.55557"
       gradientUnits="userSpaceOnUse" />
    <linearGradient
       y2="353.55557"
       x2="870.80176"
       y1="676.35638"
       x1="441.69168"
       gradientUnits="userSpaceOnUse"
       id="linearGradient4186"
       xlink:href="#linearGradient4831" />
    <linearGradient
       y2="353.55557"
       x2="870.80176"
       y1="676.35638"
       x1="441.69168"
       gradientUnits="userSpaceOnUse"
       id="linearGradient4188"
       xlink:href="#linearGradient4831" />
    <linearGradient
       inkscape:collect="always"
       xlink:href="#linearGradient4831"
       id="linearGradient5601"
       x1="40.598633"
       y1="21.596344"
       x2="182.10953"
       y2="21.596344"
       gradientUnits="userSpaceOnUse" />
    <linearGradient
       inkscape:collect="always"
       xlink:href="#linearGradient4831"
       id="linearGradient5625"
       x1="53.102024"
       y1="21.596344"
       x2="181.60953"
       y2="21.596344"
       gradientUnits="userSpaceOnUse" />
  </defs>
  <g
     id="g4827"
     transform="matrix(0.06342531,0,0,0.06342526,-27.972973,-3.948033)"
     style="fill:url(#linearGradient4837);fill-opacity:1">
    <path
       transform="matrix(0.80000092,0,0,0.80000092,0,-0.00166016)"
       id="path4825"
       d="M 1161.4473,578.72461 1058.041,838.29102 912.50977,464.20898 768.30273,839.61328 669.27344,591.57617 551.29688,846.06641 l 738.14842,0.36384 z"
       style="fill:url(#linearGradient4186);fill-opacity:1;stroke:none;stroke-width:16.02615547" />
    <path
       transform="matrix(0.80000092,0,0,0.80000092,0,-0.00166016)"
       id="Unnamed"
       d="m 911.41992,66.554688 0,2.675781 L 705.75391,512.88281 768.30273,672.58398 912.50977,296.1875 1058.041,672.58398 1124.2988,502.62695 911.41992,66.554688 Z"
       style="fill:url(#linearGradient4188);fill-opacity:1;stroke:none;stroke-width:16.02615547" />
  </g>
  <g
     style="font-style:normal;font-variant:normal;font-weight:normal;font-stretch:normal;font-size:27.17432785px;line-height:125%;font-family:'Futura (Light)';-inkscape-font-specification:'Futura (Light)';letter-spacing:0px;word-spacing:0px;fill:url(#linearGradient5625);fill-opacity:1;stroke:none;stroke-width:1.00000107;stroke-linecap:butt;stroke-linejoin:miter;stroke-miterlimit:4;stroke-dasharray:none;stroke-opacity:1"
     id="text4196">
    <g
       id="g4169">
      <path
         id="path4146"
         style="fill:url(#linearGradient5625);fill-opacity:1;stroke:none;stroke-width:1.00000107;stroke-miterlimit:4;stroke-dasharray:none;stroke-opacity:1"
         d="M 54.408991,8.6493959 60.167614,26.25698 67.830296,7.6144361 75.492979,26.25698 l 5.67901,-17.6075841 1.306968,0 -6.899731,21.1636001 -7.828542,-18.94109 -7.802004,18.94109 -6.846657,-21.1636001 1.306968,0 z" />
      <path
         id="path4148"
         style="fill:url(#linearGradient5625);fill-opacity:1;stroke:none;stroke-width:1.00000107;stroke-miterlimit:4;stroke-dasharray:none;stroke-opacity:1"
         d="m 95.807382,22.966339 -10.900249,0 q 0,1.592246 0.656801,2.799699 0.656802,1.207453 1.804545,1.85762 1.147744,0.643533 2.567497,0.643533 1.433021,0 2.587399,-0.77622 1.161013,-0.782854 1.844352,-2.076554 l 1.028325,0.597092 q -0.855832,1.632052 -2.315391,2.514422 -1.452924,0.882369 -3.30391,0.882369 -1.804545,0 -3.19776,-0.889004 -1.386581,-0.889004 -2.142897,-2.395003 -0.749683,-1.505999 -0.749683,-3.290641 0,-1.758105 0.762951,-3.250835 0.762951,-1.499365 2.149532,-2.381734 1.393215,-0.889004 3.177857,-0.889004 1.837717,0 3.211029,0.895638 1.373312,0.895638 2.096457,2.42154 0.723145,1.519268 0.723145,3.337082 z m -10.900249,-1.141109 9.679527,0 q -0.145956,-1.154379 -0.802757,-2.162801 -0.656801,-1.008422 -1.698395,-1.605514 -1.03496,-0.603727 -2.282219,-0.603727 -1.24726,0 -2.335294,0.597092 -1.0814,0.590458 -1.771374,1.59888 -0.683338,1.008423 -0.789488,2.17607 z" />
      <path
         id="path4150"
         style="fill:url(#linearGradient5625);fill-opacity:1;stroke:none;stroke-width:1.00000107;stroke-miterlimit:4;stroke-dasharray:none;stroke-opacity:1"
         d="m 104.85001,28.267191 q 1.4861,0 2.6073,-0.749683 1.12785,-0.756316 1.73157,-2.016844 0.60373,-1.260528 0.60373,-2.720087 0,-1.028325 -0.35162,-1.990307 -0.35162,-0.968616 -1.00842,-1.718299 -0.65681,-0.756316 -1.56571,-1.18755 -0.90228,-0.431233 -1.96377,-0.431233 -1.54581,0 -2.68028,0.703242 -1.13448,0.703242 -1.73157,1.923964 -0.590459,1.220721 -0.590459,2.726721 0,1.472827 0.597089,2.72672 0.60373,1.253894 1.73157,1.996942 1.13448,0.736414 2.62057,0.736414 z m -6.090338,0.869101 0,-22.4174941 1.227356,0 0,12.0347241 0.05307,0 q 0.78286,-1.161012 2.07656,-1.797911 1.2937,-0.643532 2.75989,-0.643532 1.81781,0 3.2243,0.849197 1.40648,0.842564 2.1628,2.322026 0.75631,1.472827 0.75631,3.297275 0,1.824448 -0.76295,3.350351 -0.76295,1.519267 -2.17607,2.401637 -1.41311,0.875735 -3.25747,0.875735 -1.43302,0 -2.77316,-0.676704 -1.3335,-0.683339 -2.01021,-1.850986 l -0.05307,0 0,2.255682 -1.227356,0 z" />
      <path
         id="path4152"
         style="fill:url(#linearGradient5625);fill-opacity:1;stroke:none;stroke-width:1.00000107;stroke-miterlimit:4;stroke-dasharray:none;stroke-opacity:1"
         d="m 114.10494,29.136292 0,-20.4868961 3.69534,0 q 1.59888,0 2.87931,0.2189338 1.28043,0.2122994 2.46134,0.7894885 1.18755,0.5705548 2.26895,1.5723428 1.57898,1.466193 2.41491,3.469769 0.84256,2.003576 0.84256,4.219451 0,2.142898 -0.81602,4.086764 -0.80939,1.943867 -2.3353,3.41006 -0.82266,0.796123 -1.71166,1.333506 -0.88237,0.530748 -1.83108,0.835929 -0.94872,0.298546 -1.9505,0.424599 -1.00179,0.126053 -2.22251,0.126053 l -3.69534,0 z m 1.30033,-1.220722 2.36847,0 q 2.14953,0 3.80812,-0.544018 1.66522,-0.550651 3.06507,-1.930598 1.31361,-1.313602 2.01685,-2.998729 0.70324,-1.685127 0.70324,-3.522844 0,-1.96377 -0.76959,-3.741777 -0.76958,-1.778008 -2.19597,-3.078342 -1.37994,-1.247259 -2.96556,-1.738202 -1.57897,-0.4909423 -3.66216,-0.4909423 l -2.36847,0 0,18.0454523 z" />
      <path
         id="path4154"
         style="fill:url(#linearGradient5625);fill-opacity:1;stroke:none;stroke-width:1.00000107;stroke-miterlimit:4;stroke-dasharray:none;stroke-opacity:1"
         d="m 142.40047,19.271002 8.64457,0 q 0,1.399849 -0.17249,2.574131 -0.16586,1.167647 -0.64354,2.242413 -0.47104,1.068131 -1.3335,2.003575 -1.43966,1.565709 -3.51621,2.441444 -2.06992,0.875735 -4.25263,0.875735 -2.08982,0 -4.00715,-0.82266 -1.91069,-0.82266 -3.38352,-2.282219 -1.46619,-1.459559 -2.30212,-3.356985 -0.8293,-1.897426 -0.8293,-3.97398 0,-2.872677 1.43966,-5.31412 1.43966,-2.441444 3.89437,-3.8611963 2.46134,-1.4197525 5.34729,-1.4197525 1.81118,0 3.44323,0.5771891 1.63205,0.5705548 2.9921,1.6453207 1.36004,1.074766 2.45471,2.560862 l -1.0615,0.842563 q -0.6568,-1.001788 -1.53254,-1.831082 -0.87573,-0.835929 -1.86425,-1.39985 -0.98852,-0.570554 -2.13626,-0.8691006 -1.14775,-0.3051804 -2.3751,-0.3051804 -2.43481,0 -4.59098,1.2937 -2.15616,1.293699 -3.42996,3.436597 -1.2738,2.142897 -1.2738,4.564438 0,2.467981 1.2539,4.617512 1.25389,2.149532 3.39679,3.416694 2.14289,1.260528 4.64405,1.260528 3.22429,0 6.03063,-2.255681 0.85583,-0.729779 1.39985,-1.559074 0.54401,-0.835929 0.80275,-1.791277 0.25874,-0.955347 0.29855,-2.089822 l -7.3376,0 0,-1.220722 z" />
      <path
         id="path4156"
         style="fill:url(#linearGradient5625);fill-opacity:1;stroke:none;stroke-width:1.00000107;stroke-miterlimit:4;stroke-dasharray:none;stroke-opacity:1"
         d="m 158.98637,17.453188 q -1.0615,0 -1.95714,0.437868 -0.889,0.431233 -1.54581,1.18755 -0.65016,0.756316 -1.00842,1.724933 -0.35825,0.968616 -0.35825,1.977038 0,1.44629 0.61036,2.713452 0.61699,1.267163 1.7382,2.023479 1.12784,0.749683 2.60067,0.749683 1.53917,0 2.66701,-0.762951 1.12784,-0.762952 1.69839,-2.050017 0.57719,-1.287065 0.57719,-2.812967 0,-1.074766 -0.35825,-2.023479 -0.35162,-0.955348 -1.01506,-1.665224 -0.66343,-0.709876 -1.59224,-1.101303 -0.92218,-0.398062 -2.05665,-0.398062 z m 6.16331,-0.869101 0,12.552205 -1.22072,0 0,-2.255682 -0.0531,0 q -0.66344,1.161013 -2.01021,1.844351 -1.34014,0.683339 -2.77317,0.683339 -1.84435,0 -3.25746,-0.875735 -1.41312,-0.88237 -2.17607,-2.401637 -0.76296,-1.525903 -0.76296,-3.350351 0,-1.379946 0.43124,-2.567496 0.43123,-1.18755 1.23399,-2.063285 0.80939,-0.875736 1.9505,-1.353409 1.14111,-0.484308 2.52769,-0.484308 1.46619,0 2.75326,0.636898 1.2937,0.636898 2.08319,1.804545 l 0.0531,0 0,-2.169435 1.22072,0 z" />
      <path
         id="path4158"
         style="fill:url(#linearGradient5625);fill-opacity:1;stroke:none;stroke-width:1.00000107;stroke-miterlimit:4;stroke-dasharray:none;stroke-opacity:1"
         d="m 175.43958,17.453188 q -1.53917,0 -2.66701,0.769586 -1.12121,0.769585 -1.70503,2.076553 -0.57719,1.306969 -0.57719,2.832871 0,1.452924 0.62363,2.627206 0.62363,1.174281 1.76474,1.844351 1.1411,0.663436 2.61393,0.663436 1.41975,0 2.54096,-0.723145 1.12121,-0.72978 1.73157,-1.943867 0.61699,-1.214087 0.61699,-2.607302 0,-1.459559 -0.60372,-2.726721 -0.60373,-1.273797 -1.73157,-2.043382 -1.12784,-0.769586 -2.6073,-0.769586 z m -4.86299,-0.869101 0,2.255682 0.0531,0 q 0.6767,-1.167647 2.01021,-1.844352 1.34014,-0.683338 2.77316,-0.683338 1.40648,0 2.55423,0.510845 1.15438,0.504211 1.9704,1.433021 0.82266,0.922176 1.24726,2.122995 0.4246,1.200818 0.4246,2.587399 0,1.831083 -0.75632,3.30391 -0.74968,1.466193 -2.14953,2.302122 -1.39985,0.835929 -3.23757,0.835929 -1.48609,0 -2.78643,-0.636898 -1.2937,-0.643533 -2.05001,-1.81118 l -0.0531,0 0,9.513669 -1.22735,0 0,-19.889804 1.22735,0 z" />
    </g>
  </g>
</svg>
